<svg width="370" height="103" viewBox="0 0 370 103" fill="none" xmlns="http://www.w3.org/2000/svg">
<rect width="370" height="103" rx="16" fill="#A780FF"/>
<path d="M22.5488 45C22.3262 44.6367 22.1328 44.1621 21.9688 43.5762C21.8047 42.9902 21.6641 42.3164 21.5469 41.5547C21.4414 40.793 21.3535 39.9668 21.2832 39.0762C21.2129 38.1738 21.1543 37.2363 21.1074 36.2637C21.0723 35.2793 21.0488 34.2773 21.0371 33.2578C21.0254 32.2266 21.0195 31.2012 21.0195 30.1816C21.0195 28.7285 21.0547 27.4512 21.125 26.3496C21.207 25.248 21.3594 24.293 21.582 23.4844C21.8047 22.6758 22.1211 22.002 22.5312 21.4629C22.9414 20.9238 23.4805 20.4902 24.1484 20.1621C24.8281 19.834 25.6484 19.6055 26.6094 19.4766C27.582 19.3359 28.7363 19.2656 30.0723 19.2656C31.3613 19.2656 32.5391 19.4297 33.6055 19.7578C34.6836 20.0742 35.6445 20.5195 36.4883 21.0938C37.3438 21.668 38.0762 22.3477 38.6855 23.1328C39.2949 23.918 39.7812 24.7734 40.1445 25.6992C40.7422 24.7266 41.3633 23.8242 42.0078 22.9922C42.6523 22.1602 43.3613 21.4395 44.1348 20.8301C44.9199 20.2207 45.7988 19.7461 46.7715 19.4062C47.7559 19.0547 48.8867 18.8789 50.1641 18.8789C52.0156 18.8789 53.5332 19.084 54.7168 19.4941C55.9121 19.9043 56.8555 20.543 57.5469 21.4102C58.2383 22.2773 58.7188 23.3965 58.9883 24.7676C59.2578 26.127 59.3926 27.7617 59.3926 29.6719C59.3926 30.1641 59.4043 30.8027 59.4277 31.5879C59.4512 32.3613 59.4746 33.2168 59.498 34.1543C59.5332 35.0801 59.5566 36.0527 59.5684 37.0723C59.5801 38.0918 59.5684 39.0879 59.5332 40.0605C59.5098 41.0332 59.4629 41.9473 59.3926 42.8027C59.3223 43.6582 59.2109 44.3906 59.0586 45L44.9961 45.3516C45.2539 44.332 45.4531 43.3359 45.5938 42.3633C45.7344 41.3906 45.8281 40.4766 45.875 39.6211C45.9336 38.7656 45.9453 37.9746 45.9102 37.248C45.8867 36.5215 45.834 35.9004 45.752 35.3848C45.6816 34.8691 45.5879 34.4648 45.4707 34.1719C45.3652 33.8789 45.248 33.7324 45.1191 33.7324C44.8965 33.7324 44.7031 33.873 44.5391 34.1543C44.3867 34.4355 44.2344 34.793 44.082 35.2266C43.9297 35.6484 43.7598 36.1113 43.5723 36.6152C43.3848 37.1074 43.1445 37.5703 42.8516 38.0039C42.5586 38.4258 42.1953 38.7773 41.7617 39.0586C41.3281 39.3398 40.7891 39.4805 40.1445 39.4805C39.5 39.4805 38.9492 39.3164 38.4922 38.9883C38.0469 38.6484 37.666 38.2266 37.3496 37.7227C37.0332 37.2188 36.7695 36.6738 36.5586 36.0879C36.3477 35.502 36.1543 34.957 35.9785 34.4531C35.8027 33.9492 35.6328 33.5332 35.4688 33.2051C35.3047 32.8652 35.1113 32.6953 34.8887 32.6953C34.666 32.6953 34.5371 32.9238 34.502 33.3809C34.4668 33.8379 34.4844 34.4297 34.5547 35.1562C34.6367 35.8711 34.7598 36.6797 34.9238 37.582C35.0879 38.4727 35.2637 39.3574 35.4512 40.2363C35.6387 41.1152 35.8203 41.9414 35.9961 42.7148C36.1719 43.4883 36.3125 44.1094 36.418 44.5781L22.5488 45ZM77.7786 45C75.6692 45 73.8177 44.9414 72.2239 44.8242C70.6419 44.707 69.2766 44.4902 68.1282 44.1738C66.9915 43.8457 66.0423 43.4004 65.2805 42.8379C64.5305 42.2637 63.9329 41.5254 63.4876 40.623C63.054 39.709 62.7434 38.6074 62.5559 37.3184C62.3802 36.0293 62.2923 34.5059 62.2923 32.748C62.2923 30.8262 62.3919 29.1562 62.5911 27.7383C62.7903 26.3203 63.1243 25.1074 63.593 24.0996C64.0618 23.0918 64.6829 22.2715 65.4563 21.6387C66.2298 20.9941 67.1966 20.4902 68.3567 20.127C69.5169 19.752 70.888 19.5 72.47 19.3711C74.052 19.2305 75.8802 19.1602 77.9544 19.1602C79.8763 19.1602 81.6048 19.2422 83.1399 19.4062C84.6868 19.5703 86.0579 19.8516 87.2532 20.25C88.4485 20.6484 89.4739 21.1816 90.3294 21.8496C91.1966 22.5176 91.9055 23.3555 92.4563 24.3633C93.0071 25.3594 93.4114 26.5488 93.6692 27.9316C93.9388 29.3027 94.0735 30.8906 94.0735 32.6953C94.0735 34.418 93.9505 35.918 93.7044 37.1953C93.4583 38.4727 93.0657 39.5684 92.5266 40.4824C91.9993 41.3965 91.3079 42.1465 90.4524 42.7324C89.6087 43.3066 88.5833 43.7637 87.3763 44.1035C86.1692 44.4434 84.7688 44.6777 83.1751 44.8066C81.593 44.9355 79.7942 45 77.7786 45ZM78.2708 36.8965C78.5286 36.8965 78.7454 36.8145 78.9212 36.6504C79.097 36.4863 79.2434 36.2754 79.3606 36.0176C79.4895 35.748 79.5891 35.4551 79.6595 35.1387C79.7298 34.8105 79.7825 34.4883 79.8177 34.1719C79.8528 33.8438 79.8763 33.5391 79.888 33.2578C79.8997 32.9766 79.9055 32.7422 79.9055 32.5547C79.9055 32.3672 79.8997 32.0977 79.888 31.7461C79.8763 31.3945 79.8528 31.0078 79.8177 30.5859C79.7825 30.1641 79.7298 29.7305 79.6595 29.2852C79.5891 28.8398 79.4895 28.4355 79.3606 28.0723C79.2434 27.709 79.097 27.416 78.9212 27.1934C78.7454 26.959 78.5286 26.8418 78.2708 26.8418C78.013 26.8418 77.7903 26.959 77.6028 27.1934C77.4153 27.416 77.2513 27.709 77.1106 28.0723C76.9817 28.4355 76.8763 28.8398 76.7942 29.2852C76.7122 29.7305 76.6419 30.1641 76.5833 30.5859C76.5364 31.0078 76.5013 31.3945 76.4778 31.7461C76.4661 32.0977 76.4602 32.3672 76.4602 32.5547C76.4602 32.7305 76.4661 32.9648 76.4778 33.2578C76.5013 33.5391 76.5364 33.8438 76.5833 34.1719C76.6419 34.4883 76.7122 34.8105 76.7942 35.1387C76.8763 35.4551 76.9817 35.748 77.1106 36.0176C77.2513 36.2754 77.4153 36.4863 77.6028 36.6504C77.7903 36.8145 78.013 36.8965 78.2708 36.8965ZM99.7154 45.7031C99.1412 44.9414 98.6548 44.1211 98.2564 43.2422C97.858 42.3633 97.5298 41.3438 97.272 40.1836C97.0259 39.0234 96.8443 37.6875 96.7271 36.1758C96.6099 34.6523 96.5513 32.8711 96.5513 30.832C96.5513 29.5078 96.5923 28.3184 96.6744 27.2637C96.7564 26.1973 96.9088 25.2598 97.1314 24.4512C97.3658 23.6309 97.6822 22.9277 98.0806 22.3418C98.4791 21.7441 98.9888 21.2578 99.6099 20.8828C100.243 20.5078 100.999 20.2324 101.878 20.0566C102.768 19.8809 103.811 19.793 105.006 19.793C105.78 19.793 106.565 19.9043 107.362 20.127C108.159 20.3496 108.944 20.6602 109.717 21.0586C110.503 21.457 111.27 21.9258 112.02 22.4648C112.77 22.9922 113.479 23.5723 114.147 24.2051C114.827 24.8262 115.46 25.4766 116.045 26.1562C116.643 26.8359 117.176 27.5215 117.645 28.2129C117.692 27.9785 117.71 27.6504 117.698 27.2285C117.698 26.8066 117.674 26.332 117.628 25.8047C117.592 25.2773 117.528 24.7207 117.434 24.1348C117.352 23.5371 117.253 22.957 117.135 22.3945C117.03 21.8203 116.907 21.2871 116.766 20.7949C116.626 20.291 116.479 19.8633 116.327 19.5117L129.106 19.793C129.551 20.3555 129.95 21.0352 130.301 21.832C130.665 22.6172 130.969 23.4902 131.215 24.4512C131.473 25.4004 131.667 26.4141 131.795 27.4922C131.936 28.5703 132.006 29.6836 132.006 30.832C132.006 32.8711 131.977 34.6348 131.919 36.123C131.872 37.6113 131.743 38.8828 131.532 39.9375C131.333 40.9922 131.034 41.8477 130.635 42.5039C130.237 43.1602 129.692 43.6758 129.001 44.0508C128.309 44.4258 127.448 44.6836 126.417 44.8242C125.397 44.9531 124.161 45.0176 122.708 45.0176C121.618 45.0176 120.645 44.8652 119.79 44.5605C118.934 44.2441 118.167 43.8223 117.487 43.2949C116.819 42.7559 116.215 42.1348 115.676 41.4316C115.149 40.7285 114.651 39.9844 114.182 39.1992C113.725 38.4023 113.28 37.5938 112.846 36.7734C112.424 35.9414 111.985 35.1387 111.528 34.3652C111.504 34.7051 111.499 35.1445 111.51 35.6836C111.534 36.2109 111.575 36.7969 111.633 37.4414C111.692 38.0859 111.762 38.7598 111.844 39.4629C111.926 40.166 112.014 40.8574 112.108 41.5371C112.213 42.2051 112.325 42.8438 112.442 43.4531C112.559 44.0508 112.676 44.5664 112.794 45L99.7154 45.7031ZM148.406 45.3691C146.637 45.3691 145.084 45.3398 143.748 45.2812C142.412 45.2344 141.258 45.1289 140.285 44.9648C139.324 44.7891 138.521 44.543 137.877 44.2266C137.232 43.8984 136.717 43.4707 136.33 42.9434C135.955 42.4043 135.691 41.7422 135.539 40.957C135.387 40.1719 135.31 39.2344 135.31 38.1445C135.31 37.2422 135.422 36.4863 135.644 35.877C135.867 35.2676 136.183 34.752 136.594 34.3301C137.004 33.8965 137.49 33.5332 138.053 33.2402C138.627 32.9355 139.254 32.6484 139.933 32.3789C139.43 32.3203 138.931 32.25 138.439 32.168C137.947 32.0859 137.478 31.9688 137.033 31.8164C136.599 31.6641 136.195 31.459 135.82 31.2012C135.457 30.9316 135.14 30.5918 134.871 30.1816C134.613 29.7598 134.408 29.2441 134.256 28.6348C134.103 28.0137 134.027 27.2754 134.027 26.4199C134.027 25.2715 134.074 24.293 134.168 23.4844C134.273 22.6758 134.484 21.9961 134.801 21.4453C135.117 20.8945 135.574 20.4609 136.172 20.1445C136.769 19.8164 137.566 19.5703 138.562 19.4062C139.57 19.2305 140.806 19.1191 142.271 19.0723C143.748 19.0254 145.512 19.002 147.562 19.002C148.219 19.002 148.933 19.0195 149.707 19.0547C150.492 19.0898 151.295 19.1367 152.115 19.1953C152.935 19.2539 153.75 19.3242 154.558 19.4062C155.367 19.4766 156.123 19.5527 156.826 19.6348C157.529 19.7168 158.162 19.8047 158.724 19.8984C159.287 19.9805 159.726 20.0625 160.043 20.1445L159.691 28.0371C159.387 27.9668 158.935 27.8965 158.338 27.8262C157.752 27.7441 157.09 27.6621 156.351 27.5801C155.613 27.498 154.84 27.4219 154.031 27.3516C153.223 27.2695 152.449 27.1992 151.711 27.1406C150.973 27.0703 150.305 27.0176 149.707 26.9824C149.109 26.9473 148.652 26.9297 148.336 26.9297C147.82 26.9297 147.439 27.0059 147.193 27.1582C146.947 27.2988 146.824 27.4805 146.824 27.7031C146.824 27.9492 146.965 28.166 147.246 28.3535C147.539 28.541 147.955 28.6348 148.494 28.6348C148.904 28.6348 149.338 28.6465 149.795 28.6699C150.252 28.6934 150.715 28.7168 151.183 28.7402C151.652 28.7637 152.115 28.7812 152.572 28.793C153.029 28.8047 153.469 28.8047 153.89 28.793L154.435 33.5039C154.072 33.5391 153.685 33.5918 153.275 33.6621C152.865 33.7324 152.455 33.8027 152.045 33.873C151.646 33.9316 151.26 33.9902 150.885 34.0488C150.521 34.0957 150.205 34.1191 149.935 34.1191C149.584 34.1191 149.303 34.1953 149.092 34.3477C148.892 34.5 148.793 34.6934 148.793 34.9277C148.793 35.1035 148.957 35.2324 149.285 35.3145C149.625 35.3848 150.076 35.4199 150.639 35.4199C151.271 35.4199 151.998 35.3789 152.818 35.2969C153.65 35.2148 154.494 35.1152 155.349 34.998C156.205 34.8691 157.031 34.7285 157.828 34.5762C158.625 34.4121 159.305 34.2598 159.867 34.1191L161.01 44.1035C160.471 44.3262 159.844 44.5195 159.129 44.6836C158.426 44.8359 157.576 44.9648 156.58 45.0703C155.596 45.1758 154.435 45.252 153.099 45.2988C151.764 45.3457 150.199 45.3691 148.406 45.3691ZM169.306 45.0879C169.212 44.2676 169.183 43.4297 169.218 42.5742C169.253 41.707 169.306 40.8633 169.376 40.043C169.458 39.2109 169.534 38.4258 169.605 37.6875C169.687 36.9492 169.728 36.293 169.728 35.7188C169.118 35.7188 168.509 35.5371 167.9 35.1738C167.302 34.7988 166.722 34.2715 166.159 33.5918C165.597 32.9121 165.075 32.0977 164.595 31.1484C164.114 30.1875 163.698 29.127 163.347 27.9668C162.995 26.7949 162.714 25.5352 162.503 24.1875C162.304 22.8398 162.204 21.4336 162.204 19.9688L173.349 19.7402C173.384 20.291 173.419 20.8535 173.454 21.4277C173.501 22.002 173.56 22.5645 173.63 23.1152C173.712 23.6543 173.812 24.1699 173.929 24.6621C174.046 25.1426 174.187 25.5645 174.351 25.9277C174.515 26.2793 174.708 26.5605 174.931 26.7715C175.165 26.9824 175.435 27.0879 175.739 27.0879C175.974 27.0879 176.191 26.9766 176.39 26.7539C176.601 26.5195 176.794 26.209 176.97 25.8223C177.157 25.4355 177.327 24.9961 177.48 24.5039C177.632 24 177.761 23.4785 177.866 22.9395C177.984 22.3887 178.077 21.8379 178.148 21.2871C178.218 20.7363 178.265 20.2207 178.288 19.7402L189.239 19.793C189.239 20.4609 189.193 21.2051 189.099 22.0254C189.017 22.8457 188.888 23.6953 188.712 24.5742C188.536 25.4414 188.319 26.3262 188.062 27.2285C187.816 28.1309 187.528 28.998 187.2 29.8301C186.872 30.6621 186.509 31.4414 186.11 32.168C185.712 32.8945 185.284 33.5332 184.827 34.084C184.37 34.623 183.878 35.0508 183.351 35.3672C182.835 35.6719 182.29 35.8242 181.716 35.8242C181.857 36.3633 181.991 37.0312 182.12 37.8281C182.249 38.6133 182.355 39.4336 182.437 40.2891C182.53 41.1328 182.583 41.9707 182.595 42.8027C182.618 43.6348 182.589 44.3672 182.507 45L169.306 45.0879ZM26.4688 82.7012C26.3867 82.209 26.3223 81.541 26.2754 80.6973C26.2285 79.8535 26.1934 78.9219 26.1699 77.9023C26.1582 76.8828 26.1641 75.8281 26.1875 74.7383C26.2109 73.6367 26.252 72.5938 26.3105 71.6094C26.3809 70.625 26.4688 69.7461 26.5742 68.9727C26.6797 68.1875 26.8086 67.6016 26.9609 67.2148C26.5742 67.2266 26.0762 67.2324 25.4668 67.2324C24.8574 67.2324 24.2246 67.2324 23.5684 67.2324C22.9238 67.2324 22.2969 67.2324 21.6875 67.2324C21.0781 67.2207 20.5801 67.2148 20.1934 67.2148L20 58.0566C21.2188 57.9395 22.4375 57.8633 23.6562 57.8281C24.875 57.7812 26.0586 57.7578 27.207 57.7578C28.3555 57.7461 29.4453 57.752 30.4766 57.7754C31.5078 57.7871 32.4395 57.793 33.2715 57.793C34.1973 57.793 35.2051 57.793 36.2949 57.793C37.3965 57.7812 38.5156 57.7754 39.6523 57.7754C40.8008 57.7637 41.9316 57.7578 43.0449 57.7578C44.1582 57.7461 45.1895 57.7402 46.1387 57.7402L45.7695 67.2148C45.6172 67.2148 45.3711 67.209 45.0312 67.1973C44.6914 67.1738 44.3047 67.1504 43.8711 67.127C43.4375 67.0918 42.9805 67.0625 42.5 67.0391C42.0195 67.0039 41.5625 66.9746 41.1289 66.9512C40.6953 66.916 40.3086 66.8867 39.9688 66.8633C39.6289 66.8398 39.3887 66.8223 39.248 66.8105C39.4941 68.252 39.6641 69.6348 39.7578 70.959C39.8633 72.2715 39.9219 73.5781 39.9336 74.8789C39.957 76.168 39.957 77.4746 39.9336 78.7988C39.9102 80.123 39.8984 81.5234 39.8984 83L26.4688 82.7012ZM48.3528 83C48.2825 82.5078 48.2239 81.8984 48.177 81.1719C48.1302 80.4336 48.095 79.6367 48.0716 78.7812C48.0598 77.9258 48.054 77.041 48.054 76.127C48.054 75.2129 48.054 74.334 48.054 73.4902C48.0657 72.6465 48.0774 71.8672 48.0891 71.1523C48.1009 70.4375 48.1067 69.8516 48.1067 69.3945C48.1067 69.0312 48.1126 68.5742 48.1243 68.0234C48.136 67.4727 48.1536 66.8633 48.177 66.1953C48.2005 65.5156 48.2239 64.8008 48.2473 64.0508C48.2825 63.3008 48.3118 62.5566 48.3352 61.8184C48.3704 61.0684 48.4055 60.3477 48.4407 59.6562C48.4759 58.9531 48.511 58.3145 48.5462 57.7402L62.679 57.793C62.7727 58.3672 62.8548 59.0117 62.9251 59.7266C62.9954 60.4297 63.0481 61.1621 63.0833 61.9238C63.1302 62.6855 63.1653 63.459 63.1887 64.2441C63.2122 65.0293 63.2298 65.791 63.2415 66.5293C63.2532 67.2676 63.2591 67.9707 63.2591 68.6387C63.2591 69.2949 63.2591 69.8809 63.2591 70.3965C63.2591 71.3223 63.2532 72.3359 63.2415 73.4375C63.2415 74.5391 63.2298 75.6523 63.2063 76.7773C63.1829 77.9023 63.1419 79.0039 63.0833 80.082C63.0247 81.1484 62.9427 82.1211 62.8372 83H48.3528ZM67.5123 83C67.2896 82.6367 67.0962 82.1621 66.9322 81.5762C66.7681 80.9902 66.6275 80.3164 66.5103 79.5547C66.4048 78.793 66.317 77.9668 66.2466 77.0762C66.1763 76.1738 66.1177 75.2363 66.0709 74.2637C66.0357 73.2793 66.0123 72.2773 66.0005 71.2578C65.9888 70.2266 65.983 69.2012 65.983 68.1816C65.983 66.7285 66.0181 65.4512 66.0884 64.3496C66.1705 63.248 66.3228 62.293 66.5455 61.4844C66.7681 60.6758 67.0845 60.002 67.4947 59.4629C67.9048 58.9238 68.4439 58.4902 69.1119 58.1621C69.7916 57.834 70.6119 57.6055 71.5728 57.4766C72.5455 57.3359 73.6998 57.2656 75.0357 57.2656C76.3248 57.2656 77.5025 57.4297 78.5689 57.7578C79.647 58.0742 80.608 58.5195 81.4517 59.0938C82.3072 59.668 83.0396 60.3477 83.649 61.1328C84.2584 61.918 84.7447 62.7734 85.108 63.6992C85.7056 62.7266 86.3267 61.8242 86.9712 60.9922C87.6158 60.1602 88.3248 59.4395 89.0982 58.8301C89.8834 58.2207 90.7623 57.7461 91.7349 57.4062C92.7193 57.0547 93.8502 56.8789 95.1275 56.8789C96.9791 56.8789 98.4966 57.084 99.6802 57.4941C100.876 57.9043 101.819 58.543 102.51 59.4102C103.202 60.2773 103.682 61.3965 103.952 62.7676C104.221 64.127 104.356 65.7617 104.356 67.6719C104.356 68.1641 104.368 68.8027 104.391 69.5879C104.415 70.3613 104.438 71.2168 104.461 72.1543C104.497 73.0801 104.52 74.0527 104.532 75.0723C104.544 76.0918 104.532 77.0879 104.497 78.0605C104.473 79.0332 104.426 79.9473 104.356 80.8027C104.286 81.6582 104.174 82.3906 104.022 83L89.9595 83.3516C90.2173 82.332 90.4166 81.3359 90.5572 80.3633C90.6978 79.3906 90.7916 78.4766 90.8384 77.6211C90.897 76.7656 90.9087 75.9746 90.8736 75.248C90.8502 74.5215 90.7974 73.9004 90.7154 73.3848C90.6451 72.8691 90.5513 72.4648 90.4341 72.1719C90.3287 71.8789 90.2115 71.7324 90.0826 71.7324C89.8599 71.7324 89.6666 71.873 89.5025 72.1543C89.3502 72.4355 89.1978 72.793 89.0455 73.2266C88.8931 73.6484 88.7232 74.1113 88.5357 74.6152C88.3482 75.1074 88.108 75.5703 87.815 76.0039C87.522 76.4258 87.1587 76.7773 86.7252 77.0586C86.2916 77.3398 85.7525 77.4805 85.108 77.4805C84.4634 77.4805 83.9127 77.3164 83.4556 76.9883C83.0103 76.6484 82.6295 76.2266 82.313 75.7227C81.9966 75.2188 81.733 74.6738 81.522 74.0879C81.3111 73.502 81.1177 72.957 80.942 72.4531C80.7662 71.9492 80.5962 71.5332 80.4322 71.2051C80.2681 70.8652 80.0748 70.6953 79.8521 70.6953C79.6295 70.6953 79.5005 70.9238 79.4654 71.3809C79.4302 71.8379 79.4478 72.4297 79.5181 73.1562C79.6002 73.8711 79.7232 74.6797 79.8873 75.582C80.0513 76.4727 80.2271 77.3574 80.4146 78.2363C80.6021 79.1152 80.7837 79.9414 80.9595 80.7148C81.1353 81.4883 81.2759 82.1094 81.3814 82.5781L67.5123 83ZM121.195 83.3691C119.426 83.3691 117.873 83.3398 116.537 83.2812C115.201 83.2344 114.047 83.1289 113.074 82.9648C112.113 82.7891 111.31 82.543 110.666 82.2266C110.021 81.8984 109.506 81.4707 109.119 80.9434C108.744 80.4043 108.48 79.7422 108.328 78.957C108.176 78.1719 108.099 77.2344 108.099 76.1445C108.099 75.2422 108.211 74.4863 108.433 73.877C108.656 73.2676 108.973 72.752 109.383 72.3301C109.793 71.8965 110.279 71.5332 110.842 71.2402C111.416 70.9355 112.043 70.6484 112.723 70.3789C112.219 70.3203 111.721 70.25 111.228 70.168C110.736 70.0859 110.267 69.9688 109.822 69.8164C109.389 69.6641 108.984 69.459 108.609 69.2012C108.246 68.9316 107.93 68.5918 107.66 68.1816C107.402 67.7598 107.197 67.2441 107.045 66.6348C106.892 66.0137 106.816 65.2754 106.816 64.4199C106.816 63.2715 106.863 62.293 106.957 61.4844C107.062 60.6758 107.273 59.9961 107.59 59.4453C107.906 58.8945 108.363 58.4609 108.961 58.1445C109.558 57.8164 110.355 57.5703 111.351 57.4062C112.359 57.2305 113.596 57.1191 115.06 57.0723C116.537 57.0254 118.301 57.002 120.351 57.002C121.008 57.002 121.723 57.0195 122.496 57.0547C123.281 57.0898 124.084 57.1367 124.904 57.1953C125.724 57.2539 126.539 57.3242 127.348 57.4062C128.156 57.4766 128.912 57.5527 129.615 57.6348C130.318 57.7168 130.951 57.8047 131.514 57.8984C132.076 57.9805 132.515 58.0625 132.832 58.1445L132.48 66.0371C132.176 65.9668 131.724 65.8965 131.127 65.8262C130.541 65.7441 129.879 65.6621 129.14 65.5801C128.402 65.498 127.629 65.4219 126.82 65.3516C126.012 65.2695 125.238 65.1992 124.5 65.1406C123.762 65.0703 123.094 65.0176 122.496 64.9824C121.898 64.9473 121.441 64.9297 121.125 64.9297C120.609 64.9297 120.228 65.0059 119.982 65.1582C119.736 65.2988 119.613 65.4805 119.613 65.7031C119.613 65.9492 119.754 66.166 120.035 66.3535C120.328 66.541 120.744 66.6348 121.283 66.6348C121.693 66.6348 122.127 66.6465 122.584 66.6699C123.041 66.6934 123.504 66.7168 123.973 66.7402C124.441 66.7637 124.904 66.7812 125.361 66.793C125.818 66.8047 126.258 66.8047 126.68 66.793L127.224 71.5039C126.861 71.5391 126.474 71.5918 126.064 71.6621C125.654 71.7324 125.244 71.8027 124.834 71.873C124.435 71.9316 124.049 71.9902 123.674 72.0488C123.31 72.0957 122.994 72.1191 122.724 72.1191C122.373 72.1191 122.092 72.1953 121.881 72.3477C121.681 72.5 121.582 72.6934 121.582 72.9277C121.582 73.1035 121.746 73.2324 122.074 73.3145C122.414 73.3848 122.865 73.4199 123.428 73.4199C124.06 73.4199 124.787 73.3789 125.607 73.2969C126.439 73.2148 127.283 73.1152 128.139 72.998C128.994 72.8691 129.82 72.7285 130.617 72.5762C131.414 72.4121 132.094 72.2598 132.656 72.1191L133.799 82.1035C133.26 82.3262 132.633 82.5195 131.918 82.6836C131.215 82.8359 130.365 82.9648 129.369 83.0703C128.385 83.1758 127.224 83.252 125.889 83.2988C124.553 83.3457 122.988 83.3691 121.195 83.3691Z" fill="#46FF95"/>
</svg>
