<svg width="120" height="165" viewBox="0 0 120 165" fill="none" xmlns="http://www.w3.org/2000/svg">
<path d="M40.7094 10.9795C44.0878 10.5049 47.482 9.96386 50.9039 9.41979L68.7996 6.47911L68.8199 6.4758C73.3958 5.74786 78.1654 4.93163 82.8304 4.2288C84.2561 4.01401 86.513 3.85601 88.4407 4.20753L88.8215 4.2847L88.8226 4.28551C88.9848 4.32195 89.9028 4.50218 90.4333 4.6402C91.1049 4.81491 92.0703 5.1196 93.0092 5.74625L93.559 6.12428C96.305 8.06636 98.9289 10.8134 99.6826 15.1161L99.6827 15.1171C99.9686 16.7501 100.067 18.4726 99.563 20.4705L99.0504 22.5009L98.6354 22.6559C97.8981 24.4537 96.8394 25.9697 95.4433 27.2557C97.6341 33.1731 97.3342 40.6177 95.9143 47.1897C94.2321 54.9756 90.6716 62.984 85.8643 67.6682C85.7834 67.8131 85.68 67.9998 85.5558 68.2313C85.1251 69.0337 84.8482 69.5715 84.2888 70.6158C83.8259 71.4799 83.3162 72.4122 82.8651 73.1616C82.6448 73.5276 82.3914 73.929 82.1321 74.2811C82.0574 74.3826 81.961 74.5062 81.8485 74.6403C81.3231 75.807 81.3337 76.5669 81.4419 77.0878C81.5846 77.7752 82.0214 78.6154 83.0162 79.7096C84.0255 80.8199 85.3495 81.918 86.9695 83.2204C88.4184 84.3852 90.1346 85.7393 91.6427 87.2109C91.6794 87.2382 91.7196 87.2683 91.7633 87.301C91.9895 87.4704 92.3083 87.7131 92.6989 88.0226C93.4788 88.6405 94.5546 89.5311 95.7634 90.6378C98.0953 92.7729 101.066 95.8476 103.324 99.4419C106.698 103.634 109.117 109.261 109.934 113.731C110.07 114.131 110.169 114.51 110.236 114.789C110.346 115.251 110.443 115.742 110.521 116.139C110.607 116.574 110.668 116.889 110.725 117.138C110.728 117.148 110.73 117.157 110.732 117.165L111.057 117.77L111.057 118.775C111.057 118.778 111.059 118.873 111.082 119.102C111.103 119.32 111.135 119.593 111.178 119.92C111.266 120.59 111.378 121.339 111.498 122.174C111.611 122.97 111.73 123.833 111.804 124.592C111.86 125.17 111.961 126.261 111.791 127.199C111.62 128.144 111.422 128.999 111.153 129.827C111.19 129.857 111.221 129.882 111.239 129.897C111.263 129.918 111.288 129.938 111.309 129.956C111.35 129.991 111.393 130.03 111.436 130.067C111.52 130.14 111.62 130.228 111.708 130.306C111.715 130.312 111.722 130.318 111.729 130.324C112.802 130.989 113.431 131.924 113.737 132.435C114.21 133.224 114.54 134.08 114.765 134.815C114.995 135.566 115.164 136.353 115.252 137.078C115.295 137.44 115.326 137.844 115.319 138.257C115.316 138.439 115.304 138.704 115.259 139.017L115.259 139.481L115.259 139.818L115.203 140.152L115.098 140.772C114.973 142.089 114.436 143.201 113.961 143.973C113.41 144.87 112.719 145.674 112.035 146.342C111.345 147.015 110.574 147.634 109.794 148.131C109.389 148.389 108.88 148.676 108.305 148.916L108.199 149.017L107.349 149.29C106.774 149.475 106.136 149.617 105.517 149.731L105.52 149.744C105.303 149.84 105.125 149.895 105.074 149.91C104.996 149.934 104.933 149.952 104.895 149.961C104.819 149.981 104.754 149.996 104.717 150.004C104.639 150.022 104.561 150.038 104.498 150.05C104.366 150.076 104.199 150.106 104.015 150.139C103.641 150.206 103.13 150.296 102.534 150.398C101.339 150.602 99.7672 150.864 98.1987 151.122C96.63 151.381 95.0558 151.637 93.8562 151.828C93.2584 151.923 92.7446 152.002 92.3681 152.059C92.1821 152.086 92.0139 152.111 91.8809 152.129C91.8173 152.138 91.7385 152.148 91.6607 152.157C91.6327 152.16 91.5895 152.163 91.5379 152.168C90.6358 152.38 88.863 152.631 88.4342 152.697C87.3767 152.859 84.9936 153.35 83.2707 153.483C83.1686 153.514 83.0842 153.538 83.0241 153.554C82.7465 153.627 82.4587 153.688 82.1982 153.738C81.6735 153.839 81.0735 153.931 80.52 154.011C79.2537 154.192 78.3911 154.29 77.9702 154.363L77.947 154.367L57.9829 157.693L57.978 157.694C52.2096 158.648 46.8046 159.61 40.801 160.267L38.5232 160.516L38.1779 160.052C35.1474 159.715 32.3719 158.191 30.4647 155.807L30.4646 155.806C30.1484 155.411 29.9222 155.014 29.7884 154.765C29.6414 154.491 29.5116 154.216 29.4169 154.013C29.3042 153.771 29.2467 153.643 29.1745 153.494C29.1039 153.347 29.0914 153.334 29.1217 153.383L29.1215 153.382C28.522 152.414 28.3127 151.355 28.2217 150.697C28.1157 149.93 28.096 149.119 28.1464 148.352C28.1962 147.594 28.3236 146.741 28.5823 145.919C28.7676 145.331 29.1451 144.349 29.9443 143.493C29.98 143.436 30.0146 143.379 30.0502 143.324C28.7282 141.699 27.9003 139.919 27.4184 138.009C26.7149 135.222 26.7774 132.076 26.7025 129.613L26.6969 129.434L26.7072 129.255L26.859 126.696L26.8597 126.682L26.8603 126.667C27.4758 117.398 30.3835 109.01 35.926 101.393L35.9268 101.392C36.8622 100.108 37.9355 98.8703 38.9472 97.7319C39.9994 96.5479 40.9665 95.4918 41.8908 94.3821C43.7662 92.1305 44.9127 90.2851 45.2755 88.5534L45.2761 88.5513C45.4318 87.8105 45.358 86.4186 45.0908 85.5159L45.0906 85.515C43.8882 81.4605 41.1925 80.3722 35.7846 77.3996L35.7737 77.3935L35.7639 77.3881C34.021 76.4167 32.3349 75.3486 30.7127 74.1888L30.7071 74.1848C26.3084 71.0287 22.5171 67.1004 19.5201 62.5904L19.52 62.5894C15.9775 57.35 12.4675 49.4849 11.9328 42.6185L11.9323 42.6156C11.8913 42.0847 11.9023 41.5182 11.9425 40.9554C8.53065 39.4004 6.22474 36.4289 5.0247 33.0961C4.47054 32.2493 4.27538 31.3565 4.19562 30.94C4.08953 30.3861 4.04004 29.8259 4.01742 29.3443C3.97572 28.4566 4.00684 27.3509 4.17535 26.514C4.68546 23.9762 5.64648 21.8347 7.08328 20.0944C8.51936 18.3551 10.265 17.2169 12.049 16.4451C15.3135 15.0329 19.4084 14.6493 22.1564 14.197L32.0203 12.5163L32.055 12.5106C34.0705 12.1856 36.238 11.8852 38.1546 11.5909C38.2862 11.5707 38.4546 11.5276 38.9114 11.3967C39.2856 11.2894 39.9465 11.0949 40.6709 10.9858L40.7094 10.9795Z" fill="#46FF95" stroke="white" stroke-width="8"/>
<path d="M50.4863 128.361C54.3005 130.568 63.1057 132.997 67.8134 125.049" stroke="#343434" stroke-width="4.55975" stroke-linecap="round"/>
<g clip-path="url(#clip0_124_1895)">
<rect x="30.5566" y="97.5898" width="26.8119" height="26.8119" rx="13.406" transform="rotate(-9.30077 30.5566 97.5898)" fill="white"/>
<rect x="35.1445" y="100.312" width="20.4282" height="20.4282" rx="10.2141" transform="rotate(-9.30077 35.1445 100.312)" fill="#343434"/>
</g>
<g clip-path="url(#clip1_124_1895)">
<rect x="60.5566" y="92.5898" width="26.8119" height="26.8119" rx="13.406" transform="rotate(-9.30077 60.5566 92.5898)" fill="white"/>
<rect x="65.1445" y="95.3125" width="20.4282" height="20.4282" rx="10.2141" transform="rotate(-9.30077 65.1445 95.3125)" fill="#343434"/>
</g>
<defs>
<clipPath id="clip0_124_1895">
<rect x="30.5566" y="97.5898" width="26.8119" height="26.8119" rx="13.406" transform="rotate(-9.30077 30.5566 97.5898)" fill="white"/>
</clipPath>
<clipPath id="clip1_124_1895">
<rect x="60.5566" y="92.5898" width="26.8119" height="26.8119" rx="13.406" transform="rotate(-9.30077 60.5566 92.5898)" fill="white"/>
</clipPath>
</defs>
</svg>
