<svg width="309" height="117" viewBox="0 0 309 117" fill="none" xmlns="http://www.w3.org/2000/svg">
<path d="M2.80434 47.8887C2.39613 47.2227 2.04164 46.3525 1.74086 45.2783C1.44008 44.2041 1.18227 42.9688 0.967422 41.5723C0.774063 40.1758 0.61293 38.6611 0.484024 37.0283C0.355118 35.374 0.247696 33.6553 0.161758 31.8721C0.0973053 30.0674 0.0543365 28.2305 0.0328522 26.3613C0.0113678 24.4707 0.00062561 22.5908 0.00062561 20.7217C0.00062561 18.0576 0.0650787 15.7158 0.193985 13.6963C0.344376 11.6768 0.623672 9.92578 1.03188 8.44336C1.44008 6.96094 2.02016 5.72559 2.77211 4.7373C3.52406 3.74902 4.51234 2.9541 5.73695 2.35254C6.98305 1.75098 8.48695 1.33203 10.2487 1.0957C12.0319 0.837891 14.1481 0.708984 16.5973 0.708984C18.9606 0.708984 21.1198 1.00977 23.0748 1.61133C25.0514 2.19141 26.8131 3.00781 28.36 4.06055C29.9284 5.11328 31.2711 6.35937 32.3883 7.79883C33.5055 9.23828 34.3971 10.8066 35.0631 12.5039C36.1588 10.7207 37.2975 9.06641 38.4791 7.54102C39.6608 6.01563 40.9606 4.69434 42.3786 3.57715C43.818 2.45996 45.4293 1.58984 47.2125 0.966797C49.0172 0.322266 51.0905 0 53.4323 0C56.8268 0 59.609 0.375977 61.7789 1.12793C63.9704 1.87988 65.6998 3.05078 66.9674 4.64062C68.235 6.23047 69.1159 8.28223 69.61 10.7959C70.1041 13.2881 70.3512 16.2852 70.3512 19.7871C70.3512 20.6895 70.3727 21.8604 70.4157 23.2998C70.4586 24.7178 70.5016 26.2861 70.5446 28.0049C70.609 29.7021 70.652 31.4854 70.6735 33.3545C70.695 35.2236 70.6735 37.0498 70.609 38.833C70.5661 40.6162 70.4801 42.292 70.3512 43.8604C70.2223 45.4287 70.0182 46.7715 69.7389 47.8887L43.9577 48.5332C44.4303 46.6641 44.7955 44.8379 45.0534 43.0547C45.3112 41.2715 45.483 39.5957 45.569 38.0273C45.6764 36.459 45.6979 35.0088 45.6334 33.6768C45.5905 32.3447 45.4938 31.2061 45.3434 30.2607C45.2145 29.3154 45.0426 28.5742 44.8278 28.0371C44.6344 27.5 44.4196 27.2314 44.1832 27.2314C43.775 27.2314 43.4205 27.4893 43.1198 28.0049C42.8405 28.5205 42.5612 29.1758 42.2819 29.9707C42.0026 30.7441 41.6911 31.5928 41.3473 32.5166C41.0036 33.4189 40.5631 34.2676 40.026 35.0625C39.4889 35.8359 38.8229 36.4805 38.028 36.9961C37.233 37.5117 36.2448 37.7695 35.0631 37.7695C33.8815 37.7695 32.8717 37.4688 32.0338 36.8672C31.2174 36.2441 30.5192 35.4707 29.9391 34.5469C29.359 33.623 28.8756 32.624 28.4889 31.5498C28.1022 30.4756 27.7477 29.4766 27.4254 28.5527C27.1032 27.6289 26.7916 26.8662 26.4909 26.2646C26.1901 25.6416 25.8356 25.3301 25.4274 25.3301C25.0192 25.3301 24.7829 25.749 24.7184 26.5869C24.6539 27.4248 24.6862 28.5098 24.8151 29.8418C24.9655 31.1523 25.1911 32.6348 25.4918 34.2891C25.7926 35.9219 26.1149 37.5439 26.4586 39.1553C26.8024 40.7666 27.1354 42.2812 27.4577 43.6992C27.7799 45.1172 28.0377 46.2559 28.2311 47.1152L2.80434 47.8887ZM104.059 47.8887C100.192 47.8887 96.7972 47.7812 93.8753 47.5664C90.9749 47.3516 88.472 46.9541 86.3665 46.374C84.2825 45.7725 82.5423 44.9561 81.1458 43.9248C79.7708 42.8721 78.6751 41.5186 77.8587 39.8643C77.0638 38.1885 76.4945 36.1689 76.1507 33.8057C75.8284 31.4424 75.6673 28.6494 75.6673 25.4268C75.6673 21.9033 75.8499 18.8418 76.2152 16.2422C76.5804 13.6426 77.1927 11.4189 78.0521 9.57129C78.9114 7.72363 80.0501 6.21973 81.4681 5.05957C82.8861 3.87793 84.6585 2.9541 86.7855 2.28809C88.9124 1.60059 91.4261 1.13867 94.3265 0.902344C97.2269 0.644531 100.578 0.515625 104.381 0.515625C107.905 0.515625 111.074 0.666016 113.888 0.966797C116.724 1.26758 119.238 1.7832 121.429 2.51367C123.62 3.24414 125.5 4.22168 127.069 5.44629C128.659 6.6709 129.958 8.20703 130.968 10.0547C131.978 11.8809 132.719 14.0615 133.192 16.5967C133.686 19.1104 133.933 22.0215 133.933 25.3301C133.933 28.4883 133.707 31.2383 133.256 33.5801C132.805 35.9219 132.085 37.9307 131.097 39.6064C130.13 41.2822 128.863 42.6572 127.294 43.7314C125.747 44.7842 123.868 45.6221 121.655 46.2451C119.442 46.8682 116.874 47.2979 113.952 47.5342C111.052 47.7705 107.754 47.8887 104.059 47.8887ZM104.961 33.0322C105.434 33.0322 105.831 32.8818 106.154 32.5811C106.476 32.2803 106.744 31.8936 106.959 31.4209C107.196 30.9268 107.378 30.3896 107.507 29.8096C107.636 29.208 107.733 28.6172 107.797 28.0371C107.862 27.4355 107.905 26.877 107.926 26.3613C107.948 25.8457 107.958 25.416 107.958 25.0723C107.958 24.7285 107.948 24.2344 107.926 23.5898C107.905 22.9453 107.862 22.2363 107.797 21.4629C107.733 20.6895 107.636 19.8945 107.507 19.0781C107.378 18.2617 107.196 17.5205 106.959 16.8545C106.744 16.1885 106.476 15.6514 106.154 15.2432C105.831 14.8135 105.434 14.5986 104.961 14.5986C104.489 14.5986 104.08 14.8135 103.737 15.2432C103.393 15.6514 103.092 16.1885 102.834 16.8545C102.598 17.5205 102.405 18.2617 102.254 19.0781C102.104 19.8945 101.975 20.6895 101.868 21.4629C101.782 22.2363 101.717 22.9453 101.674 23.5898C101.653 24.2344 101.642 24.7285 101.642 25.0723C101.642 25.3945 101.653 25.8242 101.674 26.3613C101.717 26.877 101.782 27.4355 101.868 28.0371C101.975 28.6172 102.104 29.208 102.254 29.8096C102.405 30.3896 102.598 30.9268 102.834 31.4209C103.092 31.8936 103.393 32.2803 103.737 32.5811C104.08 32.8818 104.489 33.0322 104.961 33.0322ZM144.276 49.1777C143.224 47.7812 142.332 46.2773 141.602 44.666C140.871 43.0547 140.27 41.1855 139.797 39.0586C139.346 36.9316 139.013 34.4824 138.798 31.7109C138.583 28.918 138.476 25.6523 138.476 21.9141C138.476 19.4863 138.551 17.3057 138.701 15.3721C138.852 13.417 139.131 11.6982 139.539 10.2158C139.969 8.71191 140.549 7.42285 141.279 6.34863C142.01 5.25293 142.944 4.36133 144.083 3.67383C145.243 2.98633 146.629 2.48145 148.24 2.15918C149.873 1.83691 151.785 1.67578 153.977 1.67578C155.395 1.67578 156.834 1.87988 158.295 2.28809C159.756 2.69629 161.195 3.26562 162.613 3.99609C164.053 4.72656 165.46 5.58594 166.835 6.57422C168.21 7.54102 169.51 8.60449 170.734 9.76465C171.98 10.9033 173.141 12.0957 174.215 13.3418C175.311 14.5879 176.288 15.8447 177.147 17.1123C177.233 16.6826 177.266 16.0811 177.244 15.3076C177.244 14.5342 177.201 13.6641 177.115 12.6973C177.051 11.7305 176.933 10.71 176.761 9.63574C176.61 8.54004 176.428 7.47656 176.213 6.44531C176.02 5.39258 175.794 4.41504 175.536 3.5127C175.278 2.58887 175.01 1.80469 174.73 1.16016L198.159 1.67578C198.976 2.70703 199.706 3.95313 200.351 5.41406C201.017 6.85352 201.575 8.4541 202.026 10.2158C202.499 11.9561 202.854 13.8145 203.09 15.791C203.348 17.7676 203.477 19.8086 203.477 21.9141C203.477 25.6523 203.423 28.8857 203.315 31.6143C203.229 34.3428 202.993 36.6738 202.606 38.6074C202.241 40.541 201.693 42.1094 200.963 43.3125C200.232 44.5156 199.233 45.4609 197.966 46.1484C196.698 46.8359 195.119 47.3086 193.229 47.5664C191.359 47.8027 189.093 47.9209 186.429 47.9209C184.431 47.9209 182.647 47.6416 181.079 47.083C179.511 46.5029 178.104 45.7295 176.857 44.7627C175.633 43.7744 174.526 42.6357 173.538 41.3467C172.571 40.0576 171.658 38.6934 170.799 37.2539C169.961 35.793 169.145 34.3105 168.35 32.8066C167.576 31.2812 166.771 29.8096 165.933 28.3916C165.89 29.0146 165.879 29.8203 165.9 30.8086C165.943 31.7754 166.019 32.8496 166.126 34.0312C166.233 35.2129 166.362 36.4482 166.513 37.7373C166.663 39.0264 166.824 40.2939 166.996 41.54C167.189 42.7646 167.394 43.9355 167.608 45.0527C167.823 46.1484 168.038 47.0938 168.253 47.8887L144.276 49.1777ZM233.543 48.5654C230.299 48.5654 227.452 48.5117 225.003 48.4043C222.553 48.3184 220.437 48.125 218.654 47.8242C216.892 47.502 215.421 47.0508 214.239 46.4707C213.057 45.8691 212.112 45.085 211.403 44.1182C210.716 43.1299 210.232 41.916 209.953 40.4766C209.674 39.0371 209.534 37.3184 209.534 35.3203C209.534 33.666 209.738 32.2803 210.146 31.1631C210.554 30.0459 211.134 29.1006 211.886 28.3271C212.638 27.5322 213.53 26.8662 214.561 26.3291C215.614 25.7705 216.763 25.2441 218.009 24.75C217.086 24.6426 216.173 24.5137 215.27 24.3633C214.368 24.2129 213.508 23.998 212.692 23.7188C211.897 23.4395 211.156 23.0635 210.468 22.5908C209.802 22.0967 209.222 21.4736 208.728 20.7217C208.256 19.9482 207.88 19.0029 207.6 17.8857C207.321 16.7471 207.181 15.3936 207.181 13.8252C207.181 11.7197 207.267 9.92578 207.439 8.44336C207.633 6.96094 208.019 5.71484 208.599 4.70508C209.179 3.69531 210.017 2.90039 211.113 2.32031C212.209 1.71875 213.67 1.26758 215.496 0.966797C217.343 0.644531 219.61 0.44043 222.296 0.354492C225.003 0.268555 228.236 0.225586 231.996 0.225586C233.199 0.225586 234.509 0.257812 235.927 0.322266C237.367 0.386719 238.839 0.472656 240.342 0.580078C241.846 0.6875 243.34 0.816406 244.822 0.966797C246.304 1.0957 247.69 1.23535 248.979 1.38574C250.268 1.53613 251.428 1.69727 252.46 1.86914C253.491 2.01953 254.297 2.16992 254.877 2.32031L254.232 16.79C253.674 16.6611 252.846 16.5322 251.751 16.4033C250.676 16.2529 249.463 16.1025 248.109 15.9521C246.756 15.8018 245.338 15.6621 243.855 15.5332C242.373 15.3828 240.955 15.2539 239.601 15.1465C238.248 15.0176 237.023 14.9209 235.927 14.8564C234.832 14.792 233.994 14.7598 233.414 14.7598C232.468 14.7598 231.77 14.8994 231.319 15.1787C230.868 15.4365 230.642 15.7695 230.642 16.1777C230.642 16.6289 230.9 17.0264 231.416 17.3701C231.953 17.7139 232.716 17.8857 233.704 17.8857C234.456 17.8857 235.251 17.9072 236.089 17.9502C236.926 17.9932 237.775 18.0361 238.634 18.0791C239.494 18.1221 240.342 18.1543 241.18 18.1758C242.018 18.1973 242.824 18.1973 243.597 18.1758L244.596 26.8125C243.93 26.877 243.221 26.9736 242.469 27.1025C241.717 27.2314 240.966 27.3604 240.214 27.4893C239.483 27.5967 238.774 27.7041 238.087 27.8115C237.421 27.8975 236.841 27.9404 236.346 27.9404C235.702 27.9404 235.186 28.0801 234.799 28.3594C234.434 28.6387 234.252 28.9932 234.252 29.4229C234.252 29.7451 234.552 29.9814 235.154 30.1318C235.777 30.2607 236.604 30.3252 237.635 30.3252C238.796 30.3252 240.128 30.25 241.632 30.0996C243.157 29.9492 244.704 29.7666 246.272 29.5518C247.841 29.3154 249.355 29.0576 250.816 28.7783C252.277 28.4775 253.523 28.1982 254.554 27.9404L256.649 46.2451C255.661 46.6533 254.511 47.0078 253.201 47.3086C251.912 47.5879 250.354 47.8242 248.528 48.0176C246.723 48.2109 244.596 48.3506 242.147 48.4365C239.698 48.5225 236.83 48.5654 233.543 48.5654ZM271.859 48.0498C271.687 46.5459 271.633 45.0098 271.698 43.4414C271.762 41.8516 271.859 40.3047 271.988 38.8008C272.138 37.2754 272.278 35.8359 272.407 34.4824C272.557 33.1289 272.632 31.9258 272.632 30.873C271.515 30.873 270.398 30.54 269.281 29.874C268.185 29.1865 267.121 28.2197 266.09 26.9736C265.059 25.7275 264.103 24.2344 263.222 22.4941C262.341 20.7324 261.578 18.7881 260.934 16.6611C260.289 14.5127 259.774 12.2031 259.387 9.73242C259.022 7.26172 258.839 4.68359 258.839 1.99805L279.271 1.5791C279.335 2.58887 279.4 3.62012 279.464 4.67285C279.55 5.72559 279.658 6.75684 279.786 7.7666C279.937 8.75488 280.12 9.7002 280.334 10.6025C280.549 11.4834 280.807 12.2568 281.108 12.9229C281.409 13.5674 281.763 14.083 282.171 14.4697C282.601 14.8564 283.095 15.0498 283.654 15.0498C284.083 15.0498 284.481 14.8457 284.846 14.4375C285.233 14.0078 285.587 13.4385 285.91 12.7295C286.253 12.0205 286.565 11.2148 286.844 10.3125C287.123 9.38867 287.36 8.43262 287.553 7.44434C287.768 6.43457 287.94 5.4248 288.069 4.41504C288.198 3.40527 288.284 2.45996 288.327 1.5791L308.404 1.67578C308.404 2.90039 308.318 4.26465 308.146 5.76855C307.995 7.27246 307.759 8.83008 307.437 10.4414C307.115 12.0312 306.717 13.6533 306.245 15.3076C305.793 16.9619 305.267 18.5518 304.665 20.0771C304.064 21.6025 303.398 23.0312 302.667 24.3633C301.937 25.6953 301.153 26.8662 300.315 27.876C299.477 28.8643 298.575 29.6484 297.608 30.2285C296.662 30.7871 295.663 31.0664 294.611 31.0664C294.869 32.0547 295.116 33.2793 295.352 34.7402C295.588 36.1797 295.782 37.6836 295.932 39.252C296.104 40.7988 296.201 42.335 296.222 43.8604C296.265 45.3857 296.211 46.7285 296.061 47.8887L271.859 48.0498ZM59.7164 115.341C59.5661 114.438 59.4479 113.214 59.362 111.667C59.276 110.12 59.2116 108.412 59.1686 106.543C59.1471 104.674 59.1579 102.74 59.2008 100.742C59.2438 98.7227 59.319 96.8105 59.4264 95.0059C59.5553 93.2012 59.7164 91.5898 59.9098 90.1719C60.1032 88.7324 60.3395 87.6582 60.6188 86.9492C59.9098 86.9707 58.9967 86.9814 57.8795 86.9814C56.7623 86.9814 55.6022 86.9814 54.3991 86.9814C53.2174 86.9814 52.068 86.9814 50.9508 86.9814C49.8336 86.96 48.9205 86.9492 48.2116 86.9492L47.8571 70.1592C50.0914 69.9443 52.3258 69.8047 54.5602 69.7402C56.7946 69.6543 58.9645 69.6113 61.07 69.6113C63.1754 69.5898 65.1735 69.6006 67.0641 69.6436C68.9547 69.665 70.6627 69.6758 72.1881 69.6758C73.8854 69.6758 75.733 69.6758 77.7311 69.6758C79.7506 69.6543 81.8024 69.6436 83.8864 69.6436C85.9918 69.6221 88.0651 69.6113 90.1061 69.6113C92.1471 69.5898 94.0377 69.5791 95.778 69.5791L95.1012 86.9492C94.8219 86.9492 94.3707 86.9385 93.7477 86.917C93.1246 86.874 92.4157 86.8311 91.6207 86.7881C90.8258 86.7236 89.9879 86.6699 89.1071 86.627C88.2262 86.5625 87.3883 86.5088 86.5934 86.4658C85.7985 86.4014 85.0895 86.3477 84.4664 86.3047C83.8434 86.2617 83.403 86.2295 83.1452 86.208C83.5963 88.8506 83.9079 91.3857 84.0797 93.8135C84.2731 96.2197 84.3805 98.6152 84.402 101C84.445 103.363 84.445 105.759 84.402 108.187C84.359 110.614 84.3375 113.182 84.3375 115.889L59.7164 115.341ZM99.8372 115.889C99.7083 114.986 99.6009 113.869 99.515 112.537C99.429 111.184 99.3646 109.723 99.3216 108.154C99.3001 106.586 99.2894 104.964 99.2894 103.288C99.2894 101.612 99.2894 100.001 99.2894 98.4541C99.3109 96.9072 99.3323 95.4785 99.3538 94.168C99.3753 92.8574 99.3861 91.7832 99.3861 90.9453C99.3861 90.2793 99.3968 89.4414 99.4183 88.4316C99.4398 87.4219 99.472 86.3047 99.515 85.0801C99.5579 83.834 99.6009 82.5234 99.6439 81.1484C99.7083 79.7734 99.762 78.4092 99.805 77.0557C99.8695 75.6807 99.9339 74.3594 99.9984 73.0918C100.063 71.8027 100.127 70.6318 100.192 69.5791L126.102 69.6758C126.274 70.7285 126.424 71.9102 126.553 73.2207C126.682 74.5098 126.779 75.8525 126.843 77.249C126.929 78.6455 126.993 80.0635 127.036 81.5029C127.079 82.9424 127.112 84.3389 127.133 85.6924C127.155 87.0459 127.165 88.335 127.165 89.5596C127.165 90.7627 127.165 91.8369 127.165 92.7822C127.165 94.4795 127.155 96.3379 127.133 98.3574C127.133 100.377 127.112 102.418 127.069 104.48C127.026 106.543 126.951 108.562 126.843 110.539C126.736 112.494 126.585 114.277 126.392 115.889H99.8372ZM134.963 115.889C134.555 115.223 134.2 114.353 133.899 113.278C133.599 112.204 133.341 110.969 133.126 109.572C132.933 108.176 132.771 106.661 132.643 105.028C132.514 103.374 132.406 101.655 132.32 99.8721C132.256 98.0674 132.213 96.2305 132.191 94.3613C132.17 92.4707 132.159 90.5908 132.159 88.7217C132.159 86.0576 132.224 83.7158 132.353 81.6963C132.503 79.6768 132.782 77.9258 133.19 76.4434C133.599 74.9609 134.179 73.7256 134.931 72.7373C135.683 71.749 136.671 70.9541 137.896 70.3525C139.142 69.751 140.646 69.332 142.407 69.0957C144.19 68.8379 146.307 68.709 148.756 68.709C151.119 68.709 153.278 69.0098 155.233 69.6113C157.21 70.1914 158.972 71.0078 160.519 72.0605C162.087 73.1133 163.43 74.3594 164.547 75.7988C165.664 77.2383 166.556 78.8066 167.222 80.5039C168.317 78.7207 169.456 77.0664 170.638 75.541C171.819 74.0156 173.119 72.6943 174.537 71.5771C175.977 70.46 177.588 69.5898 179.371 68.9668C181.176 68.3223 183.249 68 185.591 68C188.985 68 191.768 68.376 193.938 69.1279C196.129 69.8799 197.858 71.0508 199.126 72.6406C200.394 74.2305 201.274 76.2822 201.769 78.7959C202.263 81.2881 202.51 84.2852 202.51 87.7871C202.51 88.6895 202.531 89.8604 202.574 91.2998C202.617 92.7178 202.66 94.2861 202.703 96.0049C202.768 97.7021 202.811 99.4854 202.832 101.354C202.854 103.224 202.832 105.05 202.768 106.833C202.725 108.616 202.639 110.292 202.51 111.86C202.381 113.429 202.177 114.771 201.897 115.889L176.116 116.533C176.589 114.664 176.954 112.838 177.212 111.055C177.47 109.271 177.642 107.596 177.728 106.027C177.835 104.459 177.856 103.009 177.792 101.677C177.749 100.345 177.652 99.2061 177.502 98.2607C177.373 97.3154 177.201 96.5742 176.986 96.0371C176.793 95.5 176.578 95.2314 176.342 95.2314C175.934 95.2314 175.579 95.4893 175.278 96.0049C174.999 96.5205 174.72 97.1758 174.44 97.9707C174.161 98.7441 173.85 99.5928 173.506 100.517C173.162 101.419 172.722 102.268 172.185 103.062C171.647 103.836 170.981 104.48 170.187 104.996C169.392 105.512 168.403 105.77 167.222 105.77C166.04 105.77 165.03 105.469 164.192 104.867C163.376 104.244 162.678 103.471 162.098 102.547C161.518 101.623 161.034 100.624 160.647 99.5498C160.261 98.4756 159.906 97.4766 159.584 96.5527C159.262 95.6289 158.95 94.8662 158.649 94.2646C158.349 93.6416 157.994 93.3301 157.586 93.3301C157.178 93.3301 156.941 93.749 156.877 94.5869C156.812 95.4248 156.845 96.5098 156.974 97.8418C157.124 99.1523 157.35 100.635 157.65 102.289C157.951 103.922 158.273 105.544 158.617 107.155C158.961 108.767 159.294 110.281 159.616 111.699C159.938 113.117 160.196 114.256 160.39 115.115L134.963 115.889ZM233.382 116.565C230.137 116.565 227.291 116.512 224.841 116.404C222.392 116.318 220.276 116.125 218.493 115.824C216.731 115.502 215.259 115.051 214.078 114.471C212.896 113.869 211.951 113.085 211.242 112.118C210.554 111.13 210.071 109.916 209.792 108.477C209.512 107.037 209.373 105.318 209.373 103.32C209.373 101.666 209.577 100.28 209.985 99.1631C210.393 98.0459 210.973 97.1006 211.725 96.3271C212.477 95.5322 213.369 94.8662 214.4 94.3291C215.453 93.7705 216.602 93.2441 217.848 92.75C216.924 92.6426 216.011 92.5137 215.109 92.3633C214.207 92.2129 213.347 91.998 212.531 91.7188C211.736 91.4395 210.995 91.0635 210.307 90.5908C209.641 90.0967 209.061 89.4736 208.567 88.7217C208.094 87.9482 207.718 87.0029 207.439 85.8857C207.16 84.7471 207.02 83.3936 207.02 81.8252C207.02 79.7197 207.106 77.9258 207.278 76.4434C207.471 74.9609 207.858 73.7148 208.438 72.7051C209.018 71.6953 209.856 70.9004 210.952 70.3203C212.048 69.7188 213.508 69.2676 215.335 68.9668C217.182 68.6445 219.449 68.4404 222.134 68.3545C224.841 68.2686 228.075 68.2256 231.835 68.2256C233.038 68.2256 234.348 68.2578 235.766 68.3223C237.206 68.3867 238.677 68.4727 240.181 68.5801C241.685 68.6875 243.178 68.8164 244.661 68.9668C246.143 69.0957 247.529 69.2354 248.818 69.3857C250.107 69.5361 251.267 69.6973 252.299 69.8691C253.33 70.0195 254.135 70.1699 254.716 70.3203L254.071 84.79C253.512 84.6611 252.685 84.5322 251.59 84.4033C250.515 84.2529 249.301 84.1025 247.948 83.9521C246.594 83.8018 245.176 83.6621 243.694 83.5332C242.212 83.3828 240.794 83.2539 239.44 83.1465C238.087 83.0176 236.862 82.9209 235.766 82.8564C234.671 82.792 233.833 82.7598 233.253 82.7598C232.307 82.7598 231.609 82.8994 231.158 83.1787C230.707 83.4365 230.481 83.7695 230.481 84.1777C230.481 84.6289 230.739 85.0264 231.255 85.3701C231.792 85.7139 232.554 85.8857 233.543 85.8857C234.295 85.8857 235.09 85.9072 235.927 85.9502C236.765 85.9932 237.614 86.0361 238.473 86.0791C239.333 86.1221 240.181 86.1543 241.019 86.1758C241.857 86.1973 242.663 86.1973 243.436 86.1758L244.435 94.8125C243.769 94.877 243.06 94.9736 242.308 95.1025C241.556 95.2314 240.804 95.3604 240.052 95.4893C239.322 95.5967 238.613 95.7041 237.925 95.8115C237.259 95.8975 236.679 95.9404 236.185 95.9404C235.541 95.9404 235.025 96.0801 234.638 96.3594C234.273 96.6387 234.091 96.9932 234.091 97.4229C234.091 97.7451 234.391 97.9814 234.993 98.1318C235.616 98.2607 236.443 98.3252 237.474 98.3252C238.634 98.3252 239.966 98.25 241.47 98.0996C242.996 97.9492 244.543 97.7666 246.111 97.5518C247.679 97.3154 249.194 97.0576 250.655 96.7783C252.116 96.4775 253.362 96.1982 254.393 95.9404L256.488 114.245C255.5 114.653 254.35 115.008 253.04 115.309C251.751 115.588 250.193 115.824 248.367 116.018C246.562 116.211 244.435 116.351 241.986 116.437C239.537 116.522 236.669 116.565 233.382 116.565Z" fill="#46FF95"/>
</svg>
