<svg width="372" height="364" viewBox="0 0 372 364" fill="none" xmlns="http://www.w3.org/2000/svg">
<path d="M-33.8257 201.425C-34.6327 186.107 -34.1979 173.682 -30.9862 158.494C-22.1719 117.623 2.58494 81.958 37.7938 59.4094C70.4685 38.2425 112.692 29.8417 150.856 37.9988C147.146 45.4167 146.115 49.105 147.001 57.4247L146.634 57.8104L146.962 57.9683C147.345 59.0528 149.847 65.5025 149.881 66.0067C153.336 71.4971 155.58 73.8824 161.293 77.2329C163.27 99.8655 175.769 123.394 193.085 137.96C197.008 141.212 201.173 144.164 205.54 146.791C209.782 149.296 219.862 154.475 222.842 157.563C224.857 159.674 226.087 162.412 226.324 165.321C226.765 171.025 223.307 174.985 219.861 179.016C216.247 183.245 211.836 187.808 208.575 192.286C195.373 210.598 188.977 232.941 190.487 255.467C190.945 262.393 192.303 269.296 196.361 275.059C194.827 278.661 194.095 280.79 193.828 284.754C193.765 285.662 193.81 287.601 193.673 288.311C194.368 289.542 195.564 293.934 195.998 295.579C198.643 302.329 205.289 306.645 212.076 308.303C208.894 311.079 204.744 313.912 201.213 316.221C188.558 324.607 174.708 331.037 160.134 335.296C121.115 346.418 79.2738 341.567 43.8361 321.808C14.9647 305.845 -7.89476 280.879 -21.2576 250.717C-25.0135 242.245 -26.8861 236.28 -29.4149 227.551C-29.9087 227.087 -30.6066 226.476 -30.7644 225.821C-31.5975 222.357 -35.4864 203.207 -34.4509 201.213L-33.8257 201.425Z" fill="#FFD83B"/>
<path d="M-33.8257 201.425C-34.6327 186.107 -34.1979 173.682 -30.9862 158.494C-22.1719 117.623 2.58493 81.958 37.7938 59.4094C70.4684 38.2425 112.692 29.8417 150.856 37.9988C147.146 45.4167 146.115 49.105 147.001 57.4247L146.634 57.8104L146.962 57.9683C147.345 59.0528 149.847 65.5025 149.881 66.0067C119.322 58.1379 84.6146 63.8089 57.5478 79.822C28.0737 97.2883 6.69581 125.694 -1.92881 158.852C-10.2346 190.42 -5.49443 224.003 11.2248 252.039C28.2495 280.883 56.0122 301.801 88.4314 310.214C123.55 319.087 159.248 312.757 188.828 291.684C190.292 290.639 192.144 289.194 193.673 288.311C194.368 289.542 195.564 293.934 195.998 295.579C198.643 302.329 205.289 306.645 212.076 308.303C208.894 311.079 204.744 313.912 201.213 316.221C188.558 324.607 174.708 331.037 160.134 335.296C121.115 346.418 79.2738 341.567 43.8361 321.808C14.9647 305.845 -7.89477 280.879 -21.2576 250.717C-25.0135 242.245 -26.8861 236.28 -29.4149 227.551C-29.9087 227.087 -30.6066 226.476 -30.7644 225.821C-31.5975 222.357 -35.4864 203.207 -34.4509 201.213L-33.8257 201.425Z" fill="#FFD83B"/>
<path d="M40.1751 80.4006C64.5893 61.9843 94.5728 52.4811 125.138 53.4713L125.139 53.4712C133.806 53.7597 139.149 54.8455 147.198 55.9414L150.104 56.3373L148.555 57.9646C148.855 58.7707 149.407 60.2278 149.951 61.6823C150.291 62.5893 150.623 63.4877 150.873 64.1933C150.998 64.5445 151.106 64.8591 151.185 65.108C151.225 65.2314 151.261 65.3514 151.29 65.4579C151.308 65.5235 151.359 65.7115 151.372 65.9096L151.511 67.9798L149.502 67.4628C119.351 59.6992 85.0514 65.2937 58.3065 81.1164L58.3053 81.1156C29.1724 98.3802 8.04276 126.459 -0.482123 159.232L-0.48342 159.237C-8.68672 190.415 -4.00532 223.584 12.5075 251.274L12.5115 251.28C29.3329 279.779 56.7628 300.448 88.7938 308.763L90.4207 309.162C124.596 317.331 159.196 310.952 187.953 290.465C189.325 289.486 191.306 287.947 192.918 287.016L194.229 286.259L194.974 287.578C195.42 288.368 195.939 289.951 196.364 291.359C196.811 292.841 197.224 294.37 197.443 295.199L197.721 296.249L196.81 296.84C190.022 301.249 185.846 304.479 178.126 308.549L178.119 308.553C154.877 320.633 128.487 325.282 102.518 321.868L102.518 321.868C66.6583 317.164 34.1456 298.384 12.1555 269.669L12.152 269.666C-9.23435 241.559 -18.5541 206.095 -13.7494 171.105C-8.91828 135.055 11.4043 102.281 40.1707 80.4043L40.1751 80.4006Z" fill="#A780FF" stroke="#A780FF" stroke-width="3"/>
<path d="M133.277 130.95C139.29 129.628 140.223 134.622 140.124 139.453C139.464 171.726 108.219 189.582 79.4596 176.399C73.8194 173.25 68.6687 169.726 64.8338 164.446C61.9583 160.487 59.7143 157.433 63.158 153.156C71.0011 150.171 82.6166 146.894 90.7972 144.346L133.277 130.95Z" fill="#343434"/>
<path d="M129.739 141.115C129.898 141.275 130.057 141.435 130.216 141.595C130.512 158.34 114.796 172.645 98.8916 172.404C92.4468 172.307 88.3043 171.051 82.5376 168.236C77.7289 165.524 75.7671 163.664 72.33 159.333C78.2552 157.749 85.1971 155.369 91.117 153.487L129.739 141.115Z" fill="#FFD83B"/>
<path d="M157.274 56.2957L157.103 56.7002C156.243 55.4416 156.257 51.1845 156.559 49.6878C159.683 34.1351 172.584 33.9761 185.121 31.9099L204.285 28.6457C208.204 28.0136 212.138 27.4716 216.063 26.8689C217.714 26.6154 219.27 25.9473 220.922 25.6985C227.561 24.7658 234.221 23.7025 240.846 22.6492L275.607 16.9371C284.63 15.5018 293.702 13.947 302.732 12.5865C305.303 12.1991 308.984 12.0299 311.502 12.5947C313.359 13.0118 315.465 13.2761 317.018 14.313C321.869 17.5499 325.592 21.4416 326.631 27.3778C327.065 29.8531 327.149 32.03 326.519 34.5272C326.153 34.6643 326.31 34.6593 326.062 34.6359C324.74 39.9925 322.017 43.6172 317.307 46.4786L316.262 47.1136C328.212 66.1341 317.572 108.17 301.412 123.06C300.711 123.706 294.427 126.102 293.148 126.585C281.22 131.089 273.568 144.546 280.997 156.309C281.909 157.734 282.987 159.047 284.207 160.219C282.474 170.283 284.993 176.539 293.319 182.434C293.409 188.365 294.64 193.102 299.084 197.36C302.838 201.003 307.9 202.985 313.13 202.859C319.423 202.679 325.396 199.455 331.162 196.96C337.191 204.297 341.139 211.566 344.98 220.238C345.785 222.06 347.206 226.804 347.809 227.926C350.078 229.714 352.205 240.091 350.135 242.143C349.429 246.038 348.605 248.479 346.317 251.756C348.509 252.576 349.79 253.185 351.661 254.669C351.869 254.835 353.136 255.967 353.211 256.015C355.689 256.916 358.711 263.658 356.741 265.697L356.215 268.722C357.154 272.51 350.047 278.282 346.947 278.848L346.777 279.006C343.784 279.969 338.618 280.245 335.023 281.168C336.683 281.25 340.594 280.112 342.467 280.177C342.066 280.355 318.219 284.283 317.751 284.251L317.991 284.056L316.324 284.147L316.799 284.404C315.714 284.691 312.595 285.132 311.273 285.335C308.286 285.794 304.552 286.626 301.605 286.816L303.4 286.35C302.426 286.447 302.267 286.498 301.328 286.308L301.204 286.286L300.846 286.515L300.669 286.925C299.462 287.55 292.679 288.271 290.824 288.591L252.085 295.044C240.771 296.916 230.556 298.735 219.175 299.98L218.946 299.672C217.99 299.7 217.035 299.678 216.081 299.601C212.132 299.243 208.501 297.289 206.024 294.193C205.311 293.308 204.6 291.289 203.955 290.249C202.714 288.252 202.915 281.81 204.834 280.243C205.051 280.089 204.957 280.183 205.124 279.911C206.681 277.401 207.636 276.063 209.935 274.231C200.005 267.353 200.751 258.86 200.42 247.978C199.878 246.427 198.449 244.675 199.047 242.703C199.938 242.618 199.583 242.481 200.362 242.411L200.714 243.012C201.815 226.423 206.981 211.565 216.837 198.021C223.143 189.361 234.072 180.765 236.299 170.131C236.904 167.251 236.614 163.234 235.787 160.441C232.352 148.851 223.445 145.272 214.024 140.093C210.897 138.351 207.871 136.433 204.958 134.351C197.185 128.773 190.486 121.832 185.19 113.863C178.778 104.398 172.642 90.3856 171.74 78.802C171.551 76.3551 172.261 72.967 172.725 70.5475C164.567 69.7754 159.284 63.9 157.274 56.2957Z" fill="#46FF95"/>
<path d="M218.947 299.672C217.992 299.7 217.037 299.678 216.083 299.602C212.134 299.244 208.502 297.29 206.026 294.193C205.313 293.308 204.601 291.29 203.956 290.249C202.716 288.252 202.916 281.811 204.836 280.243C203.609 284.76 203.294 288.246 205.697 292.487C208.22 296.931 213.381 299.391 218.418 298.898C225.922 297.802 233.425 296.506 240.912 295.282L283.555 288.296L324.87 281.525C331.834 280.387 338.874 279.283 345.831 278.074C347.384 277.803 349.234 277.074 350.547 276.231C353.494 274.342 354.973 271.861 356.217 268.722C357.156 272.51 350.049 278.283 346.949 278.849L346.779 279.007C343.786 279.969 338.62 280.245 335.025 281.169C336.685 281.25 340.596 280.112 342.469 280.178C342.068 280.355 318.22 284.284 317.752 284.251L317.992 284.056L316.326 284.147L316.801 284.404C315.715 284.692 312.597 285.132 311.275 285.335C308.287 285.794 304.554 286.626 301.606 286.816L303.402 286.35C302.427 286.447 302.268 286.498 301.33 286.308L301.206 286.286L300.848 286.515L300.671 286.925C299.464 287.551 292.68 288.271 290.826 288.591L252.086 295.045C240.773 296.916 230.558 298.735 219.177 299.981L218.947 299.672Z" fill="#A780FF"/>
<path d="M218.941 299.671L273.802 290.784L292.776 287.654C295.209 287.26 298.931 286.506 301.2 286.286L300.842 286.514L300.665 286.924C299.458 287.55 292.674 288.27 290.82 288.59L252.081 295.044C240.767 296.915 230.552 298.735 219.171 299.98L218.941 299.671Z" fill="#A780FF"/>
<path d="M301.325 286.308C310.913 284.673 320.509 283.092 330.114 281.565C333.703 280.961 343.863 279.037 346.774 279.006C343.781 279.969 338.615 280.245 335.02 281.169C336.68 281.25 340.591 280.112 342.464 280.177C342.063 280.355 318.216 284.283 317.748 284.251L317.988 284.056L316.321 284.147L316.796 284.404C315.711 284.691 312.592 285.132 311.27 285.335C308.283 285.794 304.549 286.626 301.602 286.816L303.397 286.35C302.423 286.447 302.264 286.498 301.325 286.308Z" fill="#A780FF"/>
<path d="M157.274 56.2957L157.103 56.7002C156.243 55.4416 156.257 51.1845 156.559 49.6878C159.683 34.1351 172.584 33.9761 185.121 31.9099L204.285 28.6457C208.204 28.0136 212.138 27.4716 216.063 26.8689C217.714 26.6154 219.27 25.9473 220.922 25.6985C227.561 24.7658 234.221 23.7025 240.846 22.6492L275.607 16.9371C284.63 15.5018 293.702 13.947 302.732 12.5865C305.303 12.1991 308.984 12.0299 311.502 12.5947C313.359 13.0118 315.465 13.2761 317.018 14.313C321.869 17.5499 325.592 21.4416 326.631 27.3778C327.065 29.8531 327.149 32.03 326.519 34.5272C326.153 34.6643 326.31 34.6593 326.062 34.6359C327.943 22.6382 318.987 11.7083 306.405 13.0049C298.73 13.796 290.3 15.592 282.64 16.8587L238.845 24.0496L194.586 31.2872C186.908 32.54 179.145 33.7562 171.483 35.1027C169.649 35.5608 167.227 36.0945 165.678 37.159C158.953 41.7862 155.954 48.1686 157.274 56.2957Z" fill="#A780FF"/>
<path d="M347.809 227.927C350.078 229.715 352.206 240.092 350.135 242.144C350.39 236.559 349.361 233.284 347.809 227.927Z" fill="#A780FF"/>
<path d="M353.213 256.013C355.69 256.914 358.713 263.656 356.742 265.695C356.488 261.399 355.868 259.517 353.213 256.013Z" fill="#A780FF"/>
<path d="M200.416 247.979C199.874 246.428 198.445 244.676 199.043 242.704C199.933 242.619 199.578 242.482 200.358 242.412L200.709 243.013L200.416 247.979Z" fill="#A780FF"/>
<path d="M319.742 114.849C322.519 116.693 325.441 118.691 327.91 120.934C337.596 129.737 343.691 142.193 346.252 154.919C346.808 157.676 347.032 160.618 347.233 163.425L347.527 163.433C347.653 164.057 348.321 168.533 348.334 168.982L348.083 169.227L347.736 168.568C347.297 169.084 347.42 169.136 346.941 169.277C345.395 176.907 344.001 183.73 339.435 190.44C337.919 189.274 336.305 187.953 334.558 187.185L333.458 186.87C331.244 186.284 329.014 186.824 327.101 188.053L327.177 188.487C326.708 188.703 326.373 188.802 325.99 189.133L325.941 189.461L325.608 189.614L325.886 189.519C326.487 189.314 326.863 189.083 327.429 189.276L327.505 189.796C327.176 190.171 327.293 190.173 326.876 190.157C324.278 190.052 325.049 189.066 322.553 190.612L322.384 190.058C321.682 190.361 319.795 191.121 319.226 191.466C318.967 191.871 318.872 192.017 318.572 192.401L318.584 192.727C318.195 193.309 318.229 193.271 317.578 193.545L316.866 193.457L317.456 192.856C316.099 192.264 317.06 193.788 315.927 192.448C312.825 193.149 311.635 192.909 308.638 192.016L307.416 191.356C306.015 190.271 305.601 189.742 304.45 188.37C302.728 188.187 302.507 182.693 302.402 181.187L302.717 182.171C303.167 182.081 302.925 182.12 303.447 182.06C304.966 177.463 307.174 175.764 310.957 173.08C305.502 174.569 299.196 176.706 295.324 170.866C294.841 170.148 294.394 169.275 293.973 168.507C293.804 167.523 293.657 166.507 293.504 165.517C294.141 160.774 295.594 160.689 297.875 157.787L298.055 157.554L298.022 157.297C299.019 156.437 298.913 156.388 298.743 155.307C294.584 155.485 292.741 154.554 289.844 151.706C289.66 151.816 289.793 151.758 289.418 151.76C289.046 151.174 289.192 151.312 288.689 150.87L288.366 151.45L288.152 151.493C287.549 149.986 286.677 146.349 287.036 144.782L287.308 144.669L287.451 145.693L287.715 145.688L287.865 144.833L288.219 144.747C291.334 135.416 298.759 135.74 306.415 131.9C311.274 129.462 317.092 119.609 319.742 114.849Z" fill="#FFD83B"/>
<path d="M289.846 151.707C289.662 151.818 289.794 151.759 289.42 151.761C289.047 151.175 289.193 151.313 288.69 150.871L288.367 151.451L288.153 151.495C287.55 149.988 286.678 146.35 287.038 144.783L287.31 144.67L287.452 145.694L287.716 145.69L287.867 144.834L288.22 144.749C288.111 147.946 288.215 148.948 289.846 151.707Z" fill="#A780FF"/>
<path d="M347.232 163.427L347.526 163.434C347.652 164.058 348.32 168.534 348.333 168.983L348.082 169.229L347.735 168.57C347.296 169.086 347.419 169.138 346.939 169.279C346.977 167.466 347.096 165.235 347.232 163.427Z" fill="#A780FF"/>
<path d="M322.378 190.061C323.41 189.473 325.892 188.541 327.096 188.056L327.172 188.49C326.702 188.706 326.368 188.805 325.984 189.135L325.936 189.464L325.603 189.617L325.88 189.522C326.482 189.317 326.858 189.085 327.424 189.279L327.5 189.799C327.171 190.174 327.287 190.175 326.871 190.16C324.272 190.055 325.043 189.069 322.548 190.614L322.378 190.061Z" fill="#A780FF"/>
<path d="M304.45 188.37C302.727 188.187 302.506 182.693 302.402 181.187L302.716 182.171C303.166 182.081 302.924 182.12 303.447 182.06C303.185 184.594 303.252 185.999 304.45 188.37Z" fill="#A780FF"/>
<path d="M298.743 155.308C299.563 155.23 300.915 155.009 301.644 155.242C301.201 155.864 300.958 155.853 300.207 156.224C299.543 156.656 298.753 157.216 298.055 157.554L298.022 157.298C299.019 156.437 298.913 156.388 298.743 155.308Z" fill="#A780FF"/>
<path d="M315.928 192.445C317.01 192.163 318.153 191.79 319.227 191.463C318.968 191.868 318.873 192.014 318.573 192.398L318.585 192.724C318.197 193.306 318.23 193.268 317.579 193.542L316.867 193.454L317.457 192.853C316.1 192.261 317.061 193.785 315.928 192.445Z" fill="#A780FF"/>
<path d="M293.972 168.506L293.566 168.559L293.485 167.851L293.168 167.691L292.747 168.301C291.532 167.481 292.094 165.76 293.503 165.515C293.656 166.505 293.803 167.521 293.972 168.506Z" fill="#A780FF"/>
<path d="M307.416 191.358L308.638 192.019C307.862 192.518 307.133 192.721 306.331 192.329C306.212 191.688 306.15 191.973 306.505 191.447L307.416 191.358Z" fill="#A780FF"/>
<path d="M333.457 186.871L334.558 187.186C333.909 187.981 333.518 188.375 332.376 188.274L332.037 187.827L332.091 187.446C332.594 187.166 332.84 187.205 333.407 187.205L333.457 186.871Z" fill="#A780FF"/>
<path d="M282.63 51.6422L205.985 64.1944C198.699 65.3877 195.725 74.2523 200.817 79.5987L218.505 98.1701C233.341 113.748 243.451 133.216 247.66 154.313C250.702 169.564 246.712 185.374 236.796 197.354L236.394 197.839L264.273 186.588L280.503 183.931C275.002 178.354 271.899 170.847 271.858 163.014L271.774 146.926C271.665 126.035 275.838 105.343 284.034 86.1262L293.066 64.9504C296.051 57.9516 290.139 50.4125 282.63 51.6422Z" fill="#46FF95"/>
<path d="M229.386 273.129L319.358 258.394C326.217 257.271 329.675 249.484 325.908 243.642L311.463 221.242C304.914 211.086 297.426 201.567 289.097 192.812L261.06 163.341L247.233 181.461C228.478 206.038 219.548 236.719 222.184 267.522C222.493 271.132 225.81 273.715 229.386 273.129Z" fill="#46FF95"/>
<path d="M278.008 237.82C292.163 237.18 280.264 258.773 256.072 252.825C253.43 251.729 249.361 249.63 249.788 246.516C250.586 240.696 258.413 243.161 261.629 243.77C269.344 245.237 272.19 241.8 278.008 237.82Z" fill="#343434"/>
<path d="M282.054 202.699C287.46 202.406 293.675 203.123 297.248 207.107C302.377 210.734 297.113 216.734 290.256 213.955C288.623 213.293 286.747 212.772 285.008 212.389L284.408 212.262C278.521 213.027 276.496 216.731 270.879 215.653C266.348 214.786 266.82 212.325 268.915 209.527C272.217 205.121 276.532 203.701 282.054 202.699Z" fill="#343434"/>
<g clip-path="url(#clip0_114_1106)">
<rect x="79" y="61.7005" width="66.2118" height="66.2118" rx="33.1059" transform="rotate(-9.30077 79 61.7005)" fill="white"/>
<rect x="108.156" y="71.6614" width="50.321" height="50.321" rx="25.1605" transform="rotate(-9.30077 108.156 71.6614)" fill="#343434"/>
</g>
<g clip-path="url(#clip1_114_1106)">
<rect x="7" y="82.2571" width="66.2118" height="66.2118" rx="33.1059" transform="rotate(-9.30077 7 82.2571)" fill="white"/>
<rect x="36.1504" y="92.2181" width="50.321" height="50.321" rx="25.1605" transform="rotate(-9.30077 36.1504 92.2181)" fill="#343434"/>
</g>
<g clip-path="url(#clip2_114_1106)">
<rect x="201" y="192.409" width="52.0271" height="52.0271" rx="26.0136" transform="rotate(-9.30077 201 192.409)" fill="white"/>
<rect x="192.441" y="193.812" width="39.6397" height="39.6397" rx="19.8199" transform="rotate(-9.30077 192.441 193.812)" fill="#343434"/>
</g>
<defs>
<clipPath id="clip0_114_1106">
<rect x="79" y="61.7005" width="66.2118" height="66.2118" rx="33.1059" transform="rotate(-9.30077 79 61.7005)" fill="white"/>
</clipPath>
<clipPath id="clip1_114_1106">
<rect x="7" y="82.2571" width="66.2118" height="66.2118" rx="33.1059" transform="rotate(-9.30077 7 82.2571)" fill="white"/>
</clipPath>
<clipPath id="clip2_114_1106">
<rect x="201" y="192.409" width="52.0271" height="52.0271" rx="26.0136" transform="rotate(-9.30077 201 192.409)" fill="white"/>
</clipPath>
</defs>
</svg>
