<svg width="370" height="165" viewBox="0 0 370 165" fill="none" xmlns="http://www.w3.org/2000/svg">
<rect y="15.2559" width="370" height="124" rx="16" fill="#A780FF" fill-opacity="0.16"/>
<path d="M21.824 52.2559V35.2159H35.624V52.2559H32.336V38.1199H25.112V52.2559H21.824ZM46.4375 52.4959C45.4615 52.4959 44.5975 52.2799 43.8455 51.8479C43.1095 51.3999 42.5335 50.7999 42.1175 50.0479V57.3679H38.9015V39.6799H41.7095V41.8399C42.1895 41.1039 42.7975 40.5279 43.5335 40.1119C44.2695 39.6799 45.1095 39.4639 46.0535 39.4639C46.9015 39.4639 47.6775 39.6319 48.3815 39.9679C49.1015 40.3039 49.7255 40.7759 50.2535 41.3839C50.7815 41.9759 51.1895 42.6639 51.4775 43.4479C51.7815 44.2159 51.9335 45.0479 51.9335 45.9439C51.9335 47.1599 51.6935 48.2639 51.2135 49.2559C50.7495 50.2479 50.1015 51.0399 49.2695 51.6319C48.4535 52.2079 47.5095 52.4959 46.4375 52.4959ZM45.3575 49.7599C45.8535 49.7599 46.3015 49.6559 46.7015 49.4479C47.1015 49.2399 47.4455 48.9599 47.7335 48.6079C48.0375 48.2399 48.2615 47.8319 48.4055 47.3839C48.5655 46.9199 48.6455 46.4399 48.6455 45.9439C48.6455 45.4159 48.5575 44.9279 48.3815 44.4799C48.2215 44.0319 47.9815 43.6399 47.6615 43.3039C47.3415 42.9519 46.9655 42.6799 46.5335 42.4879C46.1175 42.2959 45.6615 42.1999 45.1655 42.1999C44.8615 42.1999 44.5495 42.2559 44.2295 42.3679C43.9255 42.4639 43.6295 42.6079 43.3415 42.7999C43.0535 42.9919 42.7975 43.2159 42.5735 43.4719C42.3655 43.7279 42.2135 44.0079 42.1175 44.3119V47.2639C42.3095 47.7279 42.5655 48.1519 42.8855 48.5359C43.2215 48.9199 43.6055 49.2239 44.0375 49.4479C44.4695 49.6559 44.9095 49.7599 45.3575 49.7599ZM54.1124 52.2559V39.7039H57.3284V47.9599L62.9684 39.6799H65.8964V52.2559H62.6804V44.1919L57.1124 52.2559H54.1124ZM68.8312 52.2559V39.6799H75.8392C76.7032 39.6799 77.3992 39.8239 77.9272 40.1119C78.4712 40.3999 78.8712 40.7759 79.1272 41.2399C79.3832 41.7039 79.5112 42.1999 79.5112 42.7279C79.5112 43.4319 79.3512 44.0479 79.0312 44.5759C78.7272 45.1039 78.2472 45.5119 77.5912 45.7999C78.3272 46.0079 78.9272 46.3679 79.3912 46.8799C79.8552 47.3759 80.0872 48.0319 80.0872 48.8479C80.0872 49.6319 79.9032 50.2799 79.5352 50.7919C79.1672 51.2879 78.6392 51.6559 77.9512 51.8959C77.2632 52.1359 76.4472 52.2559 75.5032 52.2559H68.8312ZM71.8792 50.0719H75.4072C75.6952 50.0719 75.9592 49.9999 76.1992 49.8559C76.4392 49.7119 76.6232 49.5199 76.7512 49.2799C76.8952 49.0399 76.9672 48.7759 76.9672 48.4879C76.9672 48.1839 76.9032 47.9199 76.7752 47.6959C76.6472 47.4559 76.4632 47.2719 76.2232 47.1439C75.9992 46.9999 75.7352 46.9279 75.4312 46.9279H71.8792V50.0719ZM71.8792 44.9119H75.0232C75.3112 44.9119 75.5672 44.8399 75.7912 44.6959C76.0152 44.5519 76.1832 44.3599 76.2952 44.1199C76.4232 43.8799 76.4872 43.6159 76.4872 43.3279C76.4872 42.9119 76.3512 42.5679 76.0792 42.2959C75.8232 42.0079 75.4792 41.8639 75.0472 41.8639H71.8792V44.9119ZM88.2569 52.4959C87.2489 52.4959 86.3369 52.3279 85.5209 51.9919C84.7049 51.6399 84.0089 51.1679 83.4329 50.5759C82.8569 49.9679 82.4089 49.2799 82.0889 48.5119C81.7849 47.7279 81.6329 46.9039 81.6329 46.0399C81.6329 44.8399 81.8969 43.7439 82.4249 42.7519C82.9689 41.7599 83.7369 40.9679 84.7289 40.3759C85.7369 39.7679 86.9209 39.4639 88.2809 39.4639C89.6569 39.4639 90.8329 39.7679 91.8089 40.3759C92.7849 40.9679 93.5289 41.7599 94.0409 42.7519C94.5689 43.7279 94.8329 44.7839 94.8329 45.9199C94.8329 46.1119 94.8249 46.3119 94.8089 46.5199C94.7929 46.7119 94.7769 46.8719 94.7609 46.9999H85.0409C85.1049 47.6399 85.2889 48.1999 85.5929 48.6799C85.9129 49.1599 86.3129 49.5279 86.7929 49.7839C87.2889 50.0239 87.8169 50.1439 88.3769 50.1439C89.0169 50.1439 89.6169 49.9919 90.1769 49.6879C90.7529 49.3679 91.1449 48.9519 91.3529 48.4399L94.1129 49.2079C93.8089 49.8479 93.3689 50.4159 92.7929 50.9119C92.2329 51.4079 91.5689 51.7999 90.8009 52.0879C90.0329 52.3599 89.1849 52.4959 88.2569 52.4959ZM84.9689 44.9599H91.5449C91.4809 44.3199 91.2969 43.7679 90.9929 43.3039C90.7049 42.8239 90.3209 42.4559 89.8409 42.1999C89.3609 41.9279 88.8249 41.7919 88.2329 41.7919C87.6569 41.7919 87.1289 41.9279 86.6489 42.1999C86.1849 42.4559 85.8009 42.8239 85.4969 43.3039C85.2089 43.7679 85.0329 44.3199 84.9689 44.9599ZM99.6961 52.2559V42.4879H95.7121V39.6799H106.92V42.4879H102.912V52.2559H99.6961ZM109.346 45.8479V35.0479H112.562V45.8479H109.346ZM109.346 52.2559V48.6319H112.562V52.2559H109.346Z" fill="#A780FF"/>
<path d="M29.552 69.1759H25.632V79.2559H24.192V69.1759H20.272V67.8959H29.552V69.1759ZM29.6513 79.2559V70.9039H31.0593V73.7519H32.7552C33.7366 73.7519 34.4779 74.0025 34.9793 74.5039C35.4913 74.9945 35.7473 75.6399 35.7473 76.4399C35.7473 76.9732 35.6353 77.4532 35.4113 77.8799C35.1979 78.3065 34.8779 78.6425 34.4513 78.8879C34.0246 79.1332 33.4913 79.2559 32.8513 79.2559H29.6513ZM31.0593 78.1519H32.6593C33.0539 78.1519 33.3686 78.0772 33.6033 77.9279C33.8486 77.7679 34.0299 77.5599 34.1473 77.3039C34.2646 77.0479 34.3233 76.7705 34.3233 76.4719C34.3233 76.1839 34.2699 75.9172 34.1633 75.6719C34.0566 75.4265 33.8806 75.2292 33.6353 75.0799C33.3899 74.9305 33.0539 74.8559 32.6273 74.8559H31.0593V78.1519ZM37.1873 79.2559V70.9199H38.5953V79.2559H37.1873ZM45.5198 82.7599C45.3384 82.7599 45.1518 82.7332 44.9598 82.6799C44.7784 82.6265 44.5918 82.5465 44.3997 82.4399L44.8798 81.4799C44.9758 81.5332 45.0664 81.5705 45.1518 81.5919C45.2478 81.6239 45.3384 81.6399 45.4238 81.6399C45.6798 81.6399 45.9198 81.5172 46.1438 81.2719C46.3784 81.0372 46.5971 80.6745 46.7998 80.1839L47.1998 79.1759L43.5358 70.9039H45.0238L47.8398 77.8319L50.3838 70.9039H51.7758L47.8718 80.6159C47.6798 81.0959 47.4611 81.4905 47.2158 81.7999C46.9704 82.1199 46.7038 82.3599 46.4158 82.5199C46.1278 82.6799 45.8291 82.7599 45.5198 82.7599ZM55.8065 79.3679C54.9958 79.3679 54.3078 79.2185 53.7425 78.9199C53.1878 78.6105 52.7612 78.1839 52.4625 77.6399L53.6145 77.1279C53.8065 77.4692 54.0785 77.7359 54.4305 77.9279C54.7932 78.1199 55.2305 78.2159 55.7425 78.2159C56.3505 78.2159 56.8305 78.0825 57.1825 77.8159C57.5345 77.5492 57.7105 77.1919 57.7105 76.7439C57.7105 76.3385 57.5665 76.0132 57.2785 75.7679C57.0012 75.5119 56.6065 75.3785 56.0945 75.3679H55.2465V74.4399H56.1425C56.3665 74.4399 56.5638 74.3865 56.7345 74.2799C56.9158 74.1625 57.0545 74.0079 57.1505 73.8159C57.2572 73.6239 57.3105 73.4105 57.3105 73.1759C57.3105 72.8025 57.1772 72.5039 56.9105 72.2799C56.6438 72.0452 56.2438 71.9279 55.7105 71.9279C55.2732 71.9279 54.9052 72.0132 54.6065 72.1839C54.3185 72.3545 54.0838 72.6105 53.9025 72.9519L52.8305 72.3759C53.0972 71.8745 53.4812 71.4852 53.9825 71.2079C54.4945 70.9199 55.0918 70.7759 55.7745 70.7759C56.3185 70.7759 56.7985 70.8665 57.2145 71.0479C57.6412 71.2185 57.9718 71.4692 58.2065 71.7999C58.4518 72.1305 58.5745 72.5305 58.5745 72.9999C58.5745 73.3945 58.4785 73.7625 58.2865 74.1039C58.1052 74.4345 57.8332 74.6852 57.4705 74.8559C57.9718 75.0052 58.3558 75.2665 58.6225 75.6399C58.8892 76.0025 59.0225 76.4345 59.0225 76.9359C59.0225 77.4479 58.8838 77.8852 58.6065 78.2479C58.3292 78.6105 57.9505 78.8879 57.4705 79.0799C56.9905 79.2719 56.4358 79.3679 55.8065 79.3679ZM60.6981 79.2559V70.9039H62.1061V74.3599H66.4581V70.9039H67.8661V79.2559H66.4581V75.6079H62.1061V79.2559H60.6981ZM69.48 76.8399C69.48 76.3065 69.6293 75.8479 69.928 75.4639C70.2373 75.0692 70.6587 74.7652 71.192 74.5519C71.7253 74.3385 72.344 74.2319 73.048 74.2319C73.4213 74.2319 73.816 74.2639 74.232 74.3279C74.648 74.3812 75.016 74.4665 75.336 74.5839V73.9759C75.336 73.3359 75.144 72.8345 74.76 72.4719C74.376 72.0985 73.832 71.9119 73.128 71.9119C72.6693 71.9119 72.2267 71.9972 71.8 72.1679C71.384 72.3279 70.9413 72.5625 70.472 72.8719L69.96 71.8799C70.504 71.5065 71.048 71.2292 71.592 71.0479C72.136 70.8559 72.7013 70.7599 73.288 70.7599C74.3547 70.7599 75.1973 71.0585 75.816 71.6559C76.4347 72.2425 76.744 73.0639 76.744 74.1199V77.6559C76.744 77.8265 76.776 77.9545 76.84 78.0399C76.9147 78.1145 77.032 78.1572 77.192 78.1679V79.2559C77.0533 79.2772 76.9307 79.2932 76.824 79.3039C76.728 79.3145 76.648 79.3199 76.584 79.3199C76.2533 79.3199 76.0027 79.2292 75.832 79.0479C75.672 78.8665 75.5813 78.6745 75.56 78.4719L75.528 77.9439C75.1653 78.4132 74.6907 78.7759 74.104 79.0319C73.5173 79.2879 72.936 79.4159 72.36 79.4159C71.8053 79.4159 71.3093 79.3039 70.872 79.0799C70.4347 78.8452 70.0933 78.5359 69.848 78.1519C69.6027 77.7572 69.48 77.3199 69.48 76.8399ZM74.92 77.4319C75.048 77.2825 75.1493 77.1332 75.224 76.9839C75.2987 76.8239 75.336 76.6905 75.336 76.5839V75.5439C75.0053 75.4159 74.6587 75.3199 74.296 75.2559C73.9333 75.1812 73.576 75.1439 73.224 75.1439C72.5093 75.1439 71.928 75.2879 71.48 75.5759C71.0427 75.8532 70.824 76.2372 70.824 76.7279C70.824 76.9945 70.8933 77.2559 71.032 77.5119C71.1813 77.7572 71.3947 77.9599 71.672 78.1199C71.96 78.2799 72.312 78.3599 72.728 78.3599C73.1653 78.3599 73.5813 78.2745 73.976 78.1039C74.3707 77.9225 74.6853 77.6985 74.92 77.4319ZM82.6914 79.4159C82.062 79.4159 81.486 79.3039 80.9634 79.0799C80.4514 78.8452 80.0034 78.5305 79.6194 78.1359C79.246 77.7305 78.9527 77.2665 78.7394 76.7439C78.5367 76.2212 78.4354 75.6665 78.4354 75.0799C78.4354 74.2905 78.6167 73.5705 78.9794 72.9199C79.342 72.2692 79.8434 71.7465 80.4834 71.3519C81.134 70.9572 81.8754 70.7599 82.7074 70.7599C83.55 70.7599 84.2807 70.9625 84.8994 71.3679C85.5287 71.7625 86.014 72.2852 86.3554 72.9359C86.7074 73.5759 86.8834 74.2692 86.8834 75.0159C86.8834 75.1225 86.878 75.2292 86.8674 75.3359C86.8674 75.4319 86.862 75.5065 86.8514 75.5599H79.9234C79.966 76.1039 80.1154 76.5892 80.3714 77.0159C80.638 77.4319 80.9794 77.7625 81.3954 78.0079C81.8114 78.2425 82.2594 78.3599 82.7394 78.3599C83.2514 78.3599 83.7314 78.2319 84.1794 77.9759C84.638 77.7199 84.9527 77.3839 85.1234 76.9679L86.3394 77.3039C86.158 77.7092 85.886 78.0719 85.5234 78.3919C85.1714 78.7119 84.75 78.9625 84.2594 79.1439C83.7794 79.3252 83.2567 79.4159 82.6914 79.4159ZM79.8754 74.5839H85.5714C85.5287 74.0399 85.374 73.5599 85.1074 73.1439C84.8407 72.7279 84.4994 72.4025 84.0834 72.1679C83.6674 71.9332 83.2087 71.8159 82.7074 71.8159C82.2167 71.8159 81.7634 71.9332 81.3474 72.1679C80.9314 72.4025 80.59 72.7279 80.3234 73.1439C80.0674 73.5599 79.918 74.0399 79.8754 74.5839ZM88.4325 79.2559V70.9039H89.8405V78.0239H93.1365V70.9039H94.5605V78.0239H97.8405V70.9039H99.2485V79.2559H88.4325ZM101.511 79.2559V70.9039H102.919V73.7519H104.999C105.98 73.7519 106.721 74.0025 107.223 74.5039C107.735 74.9945 107.991 75.6399 107.991 76.4399C107.991 76.9732 107.879 77.4532 107.655 77.8799C107.441 78.3065 107.121 78.6425 106.695 78.8879C106.268 79.1332 105.735 79.2559 105.095 79.2559H101.511ZM102.919 78.1519H104.903C105.297 78.1519 105.612 78.0772 105.847 77.9279C106.092 77.7679 106.273 77.5599 106.391 77.3039C106.508 77.0479 106.567 76.7705 106.567 76.4719C106.567 76.1839 106.513 75.9172 106.407 75.6719C106.3 75.4265 106.124 75.2292 105.879 75.0799C105.633 74.9305 105.297 74.8559 104.871 74.8559H102.919V78.1519ZM109.575 80.5519L109.895 79.1279H109.415V77.4639H110.743V79.1279L110.263 80.5519H109.575ZM120.645 79.4159C120.015 79.4159 119.439 79.3039 118.917 79.0799C118.405 78.8452 117.957 78.5252 117.573 78.1199C117.199 77.7145 116.906 77.2505 116.693 76.7279C116.49 76.2052 116.389 75.6505 116.389 75.0639C116.389 74.2745 116.565 73.5545 116.917 72.9039C117.269 72.2532 117.765 71.7359 118.405 71.3519C119.045 70.9572 119.786 70.7599 120.629 70.7599C121.45 70.7599 122.165 70.9465 122.773 71.3199C123.391 71.6825 123.85 72.1732 124.149 72.7919L122.773 73.2239C122.559 72.8292 122.261 72.5252 121.877 72.3119C121.493 72.0879 121.066 71.9759 120.597 71.9759C120.085 71.9759 119.615 72.1092 119.189 72.3759C118.773 72.6425 118.442 73.0105 118.197 73.4799C117.951 73.9385 117.829 74.4665 117.829 75.0639C117.829 75.6505 117.951 76.1839 118.197 76.6639C118.453 77.1332 118.789 77.5065 119.205 77.7839C119.631 78.0612 120.101 78.1999 120.613 78.1999C120.943 78.1999 121.258 78.1412 121.557 78.0239C121.866 77.9065 122.133 77.7519 122.357 77.5599C122.591 77.3572 122.751 77.1385 122.837 76.9039L124.213 77.3199C124.042 77.7252 123.781 78.0879 123.429 78.4079C123.087 78.7172 122.677 78.9625 122.197 79.1439C121.727 79.3252 121.21 79.4159 120.645 79.4159ZM125.792 79.2559V70.9039H127.2V74.3439H128.128L130.752 70.9039H132.352L129.232 74.9519L132.72 79.2559H131.088L128.128 75.6399H127.2V79.2559H125.792ZM137.315 79.4159C136.686 79.4159 136.115 79.3039 135.603 79.0799C135.091 78.8452 134.649 78.5305 134.275 78.1359C133.902 77.7305 133.614 77.2665 133.411 76.7439C133.209 76.2212 133.107 75.6719 133.107 75.0959C133.107 74.5092 133.209 73.9545 133.411 73.4319C133.614 72.9092 133.902 72.4505 134.275 72.0559C134.649 71.6505 135.091 71.3359 135.603 71.1119C136.126 70.8772 136.697 70.7599 137.315 70.7599C137.945 70.7599 138.515 70.8772 139.027 71.1119C139.539 71.3359 139.982 71.6505 140.355 72.0559C140.739 72.4505 141.033 72.9092 141.235 73.4319C141.438 73.9545 141.539 74.5092 141.539 75.0959C141.539 75.6719 141.438 76.2212 141.235 76.7439C141.033 77.2665 140.745 77.7305 140.371 78.1359C139.998 78.5305 139.55 78.8452 139.027 79.0799C138.515 79.3039 137.945 79.4159 137.315 79.4159ZM134.547 75.1119C134.547 75.6879 134.67 76.2105 134.915 76.6799C135.171 77.1492 135.507 77.5225 135.923 77.7999C136.339 78.0665 136.803 78.1999 137.315 78.1999C137.827 78.1999 138.291 78.0612 138.707 77.7839C139.134 77.5065 139.47 77.1332 139.715 76.6639C139.971 76.1839 140.099 75.6559 140.099 75.0799C140.099 74.5039 139.971 73.9812 139.715 73.5119C139.47 73.0425 139.134 72.6692 138.707 72.3919C138.291 72.1145 137.827 71.9759 137.315 71.9759C136.803 71.9759 136.339 72.1199 135.923 72.4079C135.507 72.6852 135.171 73.0585 134.915 73.5279C134.67 73.9972 134.547 74.5252 134.547 75.1119ZM142.509 79.3199V78.0559C142.787 78.0559 143.032 77.9865 143.245 77.8479C143.469 77.6985 143.667 77.4532 143.837 77.1119C144.008 76.7599 144.141 76.2799 144.237 75.6719C144.344 75.0532 144.413 74.2692 144.445 73.3199L144.541 70.9039H150.221V79.2559H148.813V72.1519H145.789L145.757 73.4479C145.715 74.5892 145.619 75.5385 145.469 76.2959C145.32 77.0532 145.112 77.6505 144.845 78.0879C144.579 78.5252 144.248 78.8399 143.853 79.0319C143.469 79.2239 143.021 79.3199 142.509 79.3199ZM152.479 79.2559V70.9039H153.887V73.7519H155.967C156.949 73.7519 157.69 74.0025 158.191 74.5039C158.703 74.9945 158.959 75.6399 158.959 76.4399C158.959 76.9732 158.847 77.4532 158.623 77.8799C158.41 78.3065 158.09 78.6425 157.663 78.8879C157.237 79.1332 156.703 79.2559 156.063 79.2559H152.479ZM153.887 78.1519H155.871C156.266 78.1519 156.581 78.0772 156.815 77.9279C157.061 77.7679 157.242 77.5599 157.359 77.3039C157.477 77.0479 157.535 76.7705 157.535 76.4719C157.535 76.1839 157.482 75.9172 157.375 75.6719C157.269 75.4265 157.093 75.2292 156.847 75.0799C156.602 74.9305 156.266 74.8559 155.839 74.8559H153.887V78.1519ZM160.479 79.2559V70.9039H161.887V74.3439H162.815L165.439 70.9039H167.039L163.919 74.9519L167.407 79.2559H165.775L162.815 75.6399H161.887V79.2559H160.479ZM172.003 79.4159C171.373 79.4159 170.803 79.3039 170.291 79.0799C169.779 78.8452 169.336 78.5305 168.963 78.1359C168.589 77.7305 168.301 77.2665 168.099 76.7439C167.896 76.2212 167.795 75.6719 167.795 75.0959C167.795 74.5092 167.896 73.9545 168.099 73.4319C168.301 72.9092 168.589 72.4505 168.963 72.0559C169.336 71.6505 169.779 71.3359 170.291 71.1119C170.813 70.8772 171.384 70.7599 172.003 70.7599C172.632 70.7599 173.203 70.8772 173.715 71.1119C174.227 71.3359 174.669 71.6505 175.043 72.0559C175.427 72.4505 175.72 72.9092 175.923 73.4319C176.125 73.9545 176.227 74.5092 176.227 75.0959C176.227 75.6719 176.125 76.2212 175.923 76.7439C175.72 77.2665 175.432 77.7305 175.059 78.1359C174.685 78.5305 174.237 78.8452 173.715 79.0799C173.203 79.3039 172.632 79.4159 172.003 79.4159ZM169.235 75.1119C169.235 75.6879 169.357 76.2105 169.603 76.6799C169.859 77.1492 170.195 77.5225 170.611 77.7999C171.027 78.0665 171.491 78.1999 172.003 78.1999C172.515 78.1999 172.979 78.0612 173.395 77.7839C173.821 77.5065 174.157 77.1332 174.403 76.6639C174.659 76.1839 174.787 75.6559 174.787 75.0799C174.787 74.5039 174.659 73.9812 174.403 73.5119C174.157 73.0425 173.821 72.6692 173.395 72.3919C172.979 72.1145 172.515 71.9759 172.003 71.9759C171.491 71.9759 171.027 72.1199 170.611 72.4079C170.195 72.6852 169.859 73.0585 169.603 73.5279C169.357 73.9972 169.235 74.5252 169.235 75.1119ZM185.676 79.4159C185.046 79.4159 184.47 79.3039 183.948 79.0799C183.436 78.8452 182.988 78.5252 182.604 78.1199C182.23 77.7145 181.937 77.2505 181.724 76.7279C181.521 76.2052 181.42 75.6505 181.42 75.0639C181.42 74.2745 181.596 73.5545 181.948 72.9039C182.3 72.2532 182.796 71.7359 183.436 71.3519C184.076 70.9572 184.817 70.7599 185.66 70.7599C186.481 70.7599 187.196 70.9465 187.804 71.3199C188.422 71.6825 188.881 72.1732 189.18 72.7919L187.804 73.2239C187.59 72.8292 187.292 72.5252 186.908 72.3119C186.524 72.0879 186.097 71.9759 185.628 71.9759C185.116 71.9759 184.646 72.1092 184.22 72.3759C183.804 72.6425 183.473 73.0105 183.228 73.4799C182.982 73.9385 182.86 74.4665 182.86 75.0639C182.86 75.6505 182.982 76.1839 183.228 76.6639C183.484 77.1332 183.82 77.5065 184.236 77.7839C184.662 78.0612 185.132 78.1999 185.644 78.1999C185.974 78.1999 186.289 78.1412 186.588 78.0239C186.897 77.9065 187.164 77.7519 187.388 77.5599C187.622 77.3572 187.782 77.1385 187.868 76.9039L189.244 77.3199C189.073 77.7252 188.812 78.0879 188.46 78.4079C188.118 78.7172 187.708 78.9625 187.228 79.1439C186.758 79.3252 186.241 79.4159 185.676 79.4159ZM192.871 79.2559V72.1519H189.991V70.9039H197.159V72.1519H194.279V79.2559H192.871ZM202.222 79.4159C201.592 79.4159 201.022 79.3039 200.51 79.0799C199.998 78.8452 199.555 78.5305 199.182 78.1359C198.808 77.7305 198.52 77.2665 198.318 76.7439C198.115 76.2212 198.014 75.6719 198.014 75.0959C198.014 74.5092 198.115 73.9545 198.318 73.4319C198.52 72.9092 198.808 72.4505 199.182 72.0559C199.555 71.6505 199.998 71.3359 200.51 71.1119C201.032 70.8772 201.603 70.7599 202.222 70.7599C202.851 70.7599 203.422 70.8772 203.934 71.1119C204.446 71.3359 204.888 71.6505 205.262 72.0559C205.646 72.4505 205.939 72.9092 206.142 73.4319C206.344 73.9545 206.446 74.5092 206.446 75.0959C206.446 75.6719 206.344 76.2212 206.142 76.7439C205.939 77.2665 205.651 77.7305 205.278 78.1359C204.904 78.5305 204.456 78.8452 203.934 79.0799C203.422 79.3039 202.851 79.4159 202.222 79.4159ZM199.454 75.1119C199.454 75.6879 199.576 76.2105 199.822 76.6799C200.078 77.1492 200.414 77.5225 200.83 77.7999C201.246 78.0665 201.71 78.1999 202.222 78.1999C202.734 78.1999 203.198 78.0612 203.614 77.7839C204.04 77.5065 204.376 77.1332 204.622 76.6639C204.878 76.1839 205.006 75.6559 205.006 75.0799C205.006 74.5039 204.878 73.9812 204.622 73.5119C204.376 73.0425 204.04 72.6692 203.614 72.3919C203.198 72.1145 202.734 71.9759 202.222 71.9759C201.71 71.9759 201.246 72.1199 200.83 72.4079C200.414 72.6852 200.078 73.0585 199.822 73.5279C199.576 73.9972 199.454 74.5252 199.454 75.1119ZM208.136 79.2559V70.9199H209.544V77.3679L214.216 70.9039H215.496V79.2559H214.088V72.9359L209.48 79.2559H208.136ZM219.777 79.2559V72.1519H216.897V70.9039H224.065V72.1519H221.185V79.2559H219.777ZM25.872 99.2559V95.9119C25.5413 96.0719 25.1947 96.1892 24.832 96.2639C24.48 96.3385 24.0907 96.3759 23.664 96.3759C22.7573 96.3759 22.064 96.1412 21.584 95.6719C21.1147 95.1919 20.88 94.4772 20.88 93.5279V90.9039H22.288V93.3359C22.288 94.0079 22.4267 94.4985 22.704 94.8079C22.9813 95.1172 23.424 95.2719 24.032 95.2719C24.3733 95.2719 24.7093 95.2345 25.04 95.1599C25.3813 95.0852 25.6587 94.9839 25.872 94.8559V90.9039H27.296V99.2559H25.872ZM28.9175 96.8399C28.9175 96.3065 29.0668 95.8479 29.3655 95.4639C29.6748 95.0692 30.0962 94.7652 30.6295 94.5519C31.1628 94.3385 31.7815 94.2319 32.4855 94.2319C32.8588 94.2319 33.2535 94.2639 33.6695 94.3279C34.0855 94.3812 34.4535 94.4665 34.7735 94.5839V93.9759C34.7735 93.3359 34.5815 92.8345 34.1975 92.4719C33.8135 92.0985 33.2695 91.9119 32.5655 91.9119C32.1068 91.9119 31.6642 91.9972 31.2375 92.1679C30.8215 92.3279 30.3788 92.5625 29.9095 92.8719L29.3975 91.8799C29.9415 91.5065 30.4855 91.2292 31.0295 91.0479C31.5735 90.8559 32.1388 90.7599 32.7255 90.7599C33.7922 90.7599 34.6348 91.0585 35.2535 91.6559C35.8722 92.2425 36.1815 93.0639 36.1815 94.1199V97.6559C36.1815 97.8265 36.2135 97.9545 36.2775 98.0399C36.3522 98.1145 36.4695 98.1572 36.6295 98.1679V99.2559C36.4908 99.2772 36.3682 99.2932 36.2615 99.3039C36.1655 99.3145 36.0855 99.3199 36.0215 99.3199C35.6908 99.3199 35.4402 99.2292 35.2695 99.0479C35.1095 98.8665 35.0188 98.6745 34.9975 98.4719L34.9655 97.9439C34.6028 98.4132 34.1282 98.7759 33.5415 99.0319C32.9548 99.2879 32.3735 99.4159 31.7975 99.4159C31.2428 99.4159 30.7468 99.3039 30.3095 99.0799C29.8722 98.8452 29.5308 98.5359 29.2855 98.1519C29.0402 97.7572 28.9175 97.3199 28.9175 96.8399ZM34.3575 97.4319C34.4855 97.2825 34.5868 97.1332 34.6615 96.9839C34.7362 96.8239 34.7735 96.6905 34.7735 96.5839V95.5439C34.4428 95.4159 34.0962 95.3199 33.7335 95.2559C33.3708 95.1812 33.0135 95.1439 32.6615 95.1439C31.9468 95.1439 31.3655 95.2879 30.9175 95.5759C30.4802 95.8532 30.2615 96.2372 30.2615 96.7279C30.2615 96.9945 30.3308 97.2559 30.4695 97.5119C30.6188 97.7572 30.8322 97.9599 31.1095 98.1199C31.3975 98.2799 31.7495 98.3599 32.1655 98.3599C32.6028 98.3599 33.0188 98.2745 33.4135 98.1039C33.8082 97.9225 34.1228 97.6985 34.3575 97.4319ZM42.1289 99.4159C41.4995 99.4159 40.9235 99.3039 40.4009 99.0799C39.8889 98.8452 39.4409 98.5252 39.0569 98.1199C38.6835 97.7145 38.3902 97.2505 38.1769 96.7279C37.9742 96.2052 37.8729 95.6505 37.8729 95.0639C37.8729 94.2745 38.0489 93.5545 38.4009 92.9039C38.7529 92.2532 39.2489 91.7359 39.8889 91.3519C40.5289 90.9572 41.2702 90.7599 42.1129 90.7599C42.9342 90.7599 43.6489 90.9465 44.2569 91.3199C44.8755 91.6825 45.3342 92.1732 45.6329 92.7919L44.2569 93.2239C44.0435 92.8292 43.7449 92.5252 43.3609 92.3119C42.9769 92.0879 42.5502 91.9759 42.0809 91.9759C41.5689 91.9759 41.0995 92.1092 40.6729 92.3759C40.2569 92.6425 39.9262 93.0105 39.6809 93.4799C39.4355 93.9385 39.3129 94.4665 39.3129 95.0639C39.3129 95.6505 39.4355 96.1839 39.6809 96.6639C39.9369 97.1332 40.2729 97.5065 40.6889 97.7839C41.1155 98.0612 41.5849 98.1999 42.0969 98.1999C42.4275 98.1999 42.7422 98.1412 43.0409 98.0239C43.3502 97.9065 43.6169 97.7519 43.8409 97.5599C44.0755 97.3572 44.2355 97.1385 44.3209 96.9039L45.6969 97.3199C45.5262 97.7252 45.2649 98.0879 44.9129 98.4079C44.5715 98.7172 44.1609 98.9625 43.6809 99.1439C43.2115 99.3252 42.6942 99.4159 42.1289 99.4159ZM53.3711 99.2559V92.1519H50.4911V90.9039H57.6591V92.1519H54.7791V99.2559H53.3711ZM59.0575 99.2559V90.9039H63.3775C63.8788 90.9039 64.2948 91.0052 64.6255 91.2079C64.9562 91.3999 65.2015 91.6505 65.3615 91.9599C65.5322 92.2692 65.6175 92.5999 65.6175 92.9519C65.6175 93.3999 65.5108 93.8052 65.2975 94.1679C65.0842 94.5199 64.7748 94.7865 64.3695 94.9679C64.8495 95.1065 65.2388 95.3572 65.5375 95.7199C65.8362 96.0719 65.9855 96.5092 65.9855 97.0319C65.9855 97.5012 65.8735 97.9012 65.6495 98.2319C65.4255 98.5625 65.1108 98.8185 64.7055 98.9999C64.3002 99.1705 63.8308 99.2559 63.2975 99.2559H59.0575ZM60.4015 98.2639H63.2655C63.5215 98.2639 63.7508 98.1999 63.9535 98.0719C64.1668 97.9439 64.3322 97.7732 64.4495 97.5599C64.5668 97.3465 64.6255 97.1225 64.6255 96.8879C64.6255 96.6319 64.5668 96.4025 64.4495 96.1999C64.3428 95.9865 64.1882 95.8212 63.9855 95.7039C63.7935 95.5759 63.5695 95.5119 63.3135 95.5119H60.4015V98.2639ZM60.4015 94.5839H63.0095C63.2655 94.5839 63.4895 94.5199 63.6815 94.3919C63.8735 94.2532 64.0228 94.0772 64.1295 93.8639C64.2362 93.6505 64.2895 93.4265 64.2895 93.1919C64.2895 92.8399 64.1722 92.5359 63.9375 92.2799C63.7135 92.0239 63.4202 91.8959 63.0575 91.8959H60.4015V94.5839ZM71.4246 99.4159C70.7953 99.4159 70.2246 99.3039 69.7126 99.0799C69.2006 98.8452 68.758 98.5305 68.3846 98.1359C68.0113 97.7305 67.7233 97.2665 67.5206 96.7439C67.318 96.2212 67.2166 95.6719 67.2166 95.0959C67.2166 94.5092 67.318 93.9545 67.5206 93.4319C67.7233 92.9092 68.0113 92.4505 68.3846 92.0559C68.758 91.6505 69.2006 91.3359 69.7126 91.1119C70.2353 90.8772 70.806 90.7599 71.4246 90.7599C72.054 90.7599 72.6246 90.8772 73.1366 91.1119C73.6486 91.3359 74.0913 91.6505 74.4646 92.0559C74.8486 92.4505 75.142 92.9092 75.3446 93.4319C75.5473 93.9545 75.6486 94.5092 75.6486 95.0959C75.6486 95.6719 75.5473 96.2212 75.3446 96.7439C75.142 97.2665 74.854 97.7305 74.4806 98.1359C74.1073 98.5305 73.6593 98.8452 73.1366 99.0799C72.6246 99.3039 72.054 99.4159 71.4246 99.4159ZM68.6566 95.1119C68.6566 95.6879 68.7793 96.2105 69.0246 96.6799C69.2806 97.1492 69.6166 97.5225 70.0326 97.7999C70.4486 98.0665 70.9126 98.1999 71.4246 98.1999C71.9366 98.1999 72.4006 98.0612 72.8166 97.7839C73.2433 97.5065 73.5793 97.1332 73.8246 96.6639C74.0806 96.1839 74.2086 95.6559 74.2086 95.0799C74.2086 94.5039 74.0806 93.9812 73.8246 93.5119C73.5793 93.0425 73.2433 92.6692 72.8166 92.3919C72.4006 92.1145 71.9366 91.9759 71.4246 91.9759C70.9126 91.9759 70.4486 92.1199 70.0326 92.4079C69.6166 92.6852 69.2806 93.0585 69.0246 93.5279C68.7793 93.9972 68.6566 94.5252 68.6566 95.1119ZM81.0508 99.4159C80.4214 99.4159 79.8454 99.3039 79.3228 99.0799C78.8108 98.8452 78.3628 98.5305 77.9788 98.1359C77.6054 97.7305 77.3121 97.2665 77.0988 96.7439C76.8961 96.2212 76.7948 95.6665 76.7948 95.0799C76.7948 94.2905 76.9761 93.5705 77.3388 92.9199C77.7014 92.2692 78.2028 91.7465 78.8428 91.3519C79.4934 90.9572 80.2348 90.7599 81.0668 90.7599C81.9094 90.7599 82.6401 90.9625 83.2588 91.3679C83.8881 91.7625 84.3734 92.2852 84.7148 92.9359C85.0668 93.5759 85.2428 94.2692 85.2428 95.0159C85.2428 95.1225 85.2374 95.2292 85.2268 95.3359C85.2268 95.4319 85.2214 95.5065 85.2108 95.5599H78.2828C78.3254 96.1039 78.4748 96.5892 78.7308 97.0159C78.9974 97.4319 79.3388 97.7625 79.7548 98.0079C80.1708 98.2425 80.6188 98.3599 81.0988 98.3599C81.6108 98.3599 82.0908 98.2319 82.5388 97.9759C82.9974 97.7199 83.3121 97.3839 83.4828 96.9679L84.6988 97.3039C84.5174 97.7092 84.2454 98.0719 83.8828 98.3919C83.5308 98.7119 83.1094 98.9625 82.6188 99.1439C82.1388 99.3252 81.6161 99.4159 81.0508 99.4159ZM78.2348 94.5839H83.9308C83.8881 94.0399 83.7334 93.5599 83.4668 93.1439C83.2001 92.7279 82.8588 92.4025 82.4428 92.1679C82.0268 91.9332 81.5681 91.8159 81.0668 91.8159C80.5761 91.8159 80.1228 91.9332 79.7068 92.1679C79.2908 92.4025 78.9494 92.7279 78.6828 93.1439C78.4268 93.5599 78.2774 94.0399 78.2348 94.5839ZM86.7919 99.2559V90.9199H88.1999V97.3679L92.8719 90.9039H94.1519V99.2559H92.7439V92.9359L88.1359 99.2559H86.7919ZM90.4879 89.9599C89.7199 89.9599 89.1385 89.7785 88.7439 89.4159C88.3492 89.0425 88.1519 88.5839 88.1519 88.0399H89.1439C89.1439 88.3385 89.2452 88.5892 89.4479 88.7919C89.6612 88.9839 90.0079 89.0799 90.4879 89.0799C90.9572 89.0799 91.2879 88.9892 91.4799 88.8079C91.6719 88.6159 91.7892 88.3599 91.8319 88.0399H92.8239C92.8239 88.5839 92.6265 89.0425 92.2319 89.4159C91.8372 89.7785 91.2559 89.9599 90.4879 89.9599ZM99.8725 99.2559L102.945 94.9519L100.145 90.9039H101.729L104.129 94.3759H105.025V90.9039H106.465V94.3759H107.392L109.745 90.9039H111.345L108.545 94.9519L111.633 99.2559H110.017L107.392 95.6079H106.465V99.2559H105.025V95.6079H104.129L101.489 99.2559H99.8725ZM113.308 99.2559V90.9199H114.716V97.3679L119.388 90.9039H120.668V99.2559H119.26V92.9359L114.652 99.2559H113.308ZM125.525 99.3679C124.715 99.3679 124.027 99.2185 123.461 98.9199C122.907 98.6105 122.48 98.1839 122.181 97.6399L123.333 97.1279C123.525 97.4692 123.797 97.7359 124.149 97.9279C124.512 98.1199 124.949 98.2159 125.461 98.2159C126.069 98.2159 126.549 98.0825 126.901 97.8159C127.253 97.5492 127.429 97.1919 127.429 96.7439C127.429 96.3385 127.285 96.0132 126.997 95.7679C126.72 95.5119 126.325 95.3785 125.813 95.3679H124.965V94.4399H125.861C126.085 94.4399 126.283 94.3865 126.453 94.2799C126.635 94.1625 126.773 94.0079 126.869 93.8159C126.976 93.6239 127.029 93.4105 127.029 93.1759C127.029 92.8025 126.896 92.5039 126.629 92.2799C126.363 92.0452 125.963 91.9279 125.429 91.9279C124.992 91.9279 124.624 92.0132 124.325 92.1839C124.037 92.3545 123.803 92.6105 123.621 92.9519L122.549 92.3759C122.816 91.8745 123.2 91.4852 123.701 91.2079C124.213 90.9199 124.811 90.7759 125.493 90.7759C126.037 90.7759 126.517 90.8665 126.933 91.0479C127.36 91.2185 127.691 91.4692 127.925 91.7999C128.171 92.1305 128.293 92.5305 128.293 92.9999C128.293 93.3945 128.197 93.7625 128.005 94.1039C127.824 94.4345 127.552 94.6852 127.189 94.8559C127.691 95.0052 128.075 95.2665 128.341 95.6399C128.608 96.0025 128.741 96.4345 128.741 96.9359C128.741 97.4479 128.603 97.8852 128.325 98.2479C128.048 98.6105 127.669 98.8879 127.189 99.0799C126.709 99.2719 126.155 99.3679 125.525 99.3679ZM130.417 99.2559V90.9039H131.825V94.3599H136.177V90.9039H137.585V99.2559H136.177V95.6079H131.825V99.2559H130.417ZM139.839 99.2559V90.9199H141.247V97.3679L145.919 90.9039H147.199V99.2559H145.791V92.9359L141.183 99.2559H139.839ZM153.479 99.2559V90.9199H154.887V97.3679L159.559 90.9039H160.839V99.2559H159.431V92.9359L154.823 99.2559H153.479ZM167.12 99.2559V90.9039H168.528V94.3599H172.88V90.9039H174.288V99.2559H172.88V95.6079H168.528V99.2559H167.12ZM175.902 96.8399C175.902 96.3065 176.051 95.8479 176.35 95.4639C176.659 95.0692 177.081 94.7652 177.614 94.5519C178.147 94.3385 178.766 94.2319 179.47 94.2319C179.843 94.2319 180.238 94.2639 180.654 94.3279C181.07 94.3812 181.438 94.4665 181.758 94.5839V93.9759C181.758 93.3359 181.566 92.8345 181.182 92.4719C180.798 92.0985 180.254 91.9119 179.55 91.9119C179.091 91.9119 178.649 91.9972 178.222 92.1679C177.806 92.3279 177.363 92.5625 176.894 92.8719L176.382 91.8799C176.926 91.5065 177.47 91.2292 178.014 91.0479C178.558 90.8559 179.123 90.7599 179.71 90.7599C180.777 90.7599 181.619 91.0585 182.238 91.6559C182.857 92.2425 183.166 93.0639 183.166 94.1199V97.6559C183.166 97.8265 183.198 97.9545 183.262 98.0399C183.337 98.1145 183.454 98.1572 183.614 98.1679V99.2559C183.475 99.2772 183.353 99.2932 183.246 99.3039C183.15 99.3145 183.07 99.3199 183.006 99.3199C182.675 99.3199 182.425 99.2292 182.254 99.0479C182.094 98.8665 182.003 98.6745 181.982 98.4719L181.95 97.9439C181.587 98.4132 181.113 98.7759 180.526 99.0319C179.939 99.2879 179.358 99.4159 178.782 99.4159C178.227 99.4159 177.731 99.3039 177.294 99.0799C176.857 98.8452 176.515 98.5359 176.27 98.1519C176.025 97.7572 175.902 97.3199 175.902 96.8399ZM181.342 97.4319C181.47 97.2825 181.571 97.1332 181.646 96.9839C181.721 96.8239 181.758 96.6905 181.758 96.5839V95.5439C181.427 95.4159 181.081 95.3199 180.718 95.2559C180.355 95.1812 179.998 95.1439 179.646 95.1439C178.931 95.1439 178.35 95.2879 177.902 95.5759C177.465 95.8532 177.246 96.2372 177.246 96.7279C177.246 96.9945 177.315 97.2559 177.454 97.5119C177.603 97.7572 177.817 97.9599 178.094 98.1199C178.382 98.2799 178.734 98.3599 179.15 98.3599C179.587 98.3599 180.003 98.2745 180.398 98.1039C180.793 97.9225 181.107 97.6985 181.342 97.4319ZM194.2 99.2559V95.9119C193.869 96.0719 193.523 96.1892 193.16 96.2639C192.808 96.3385 192.419 96.3759 191.992 96.3759C191.085 96.3759 190.392 96.1412 189.912 95.6719C189.443 95.1919 189.208 94.4772 189.208 93.5279V90.9039H190.616V93.3359C190.616 94.0079 190.755 94.4985 191.032 94.8079C191.309 95.1172 191.752 95.2719 192.36 95.2719C192.701 95.2719 193.037 95.2345 193.368 95.1599C193.709 95.0852 193.987 94.9839 194.2 94.8559V90.9039H195.624V99.2559H194.2ZM199.934 99.2559V92.1519H197.054V90.9039H204.222V92.1519H201.342V99.2559H199.934ZM209.284 99.4159C208.655 99.4159 208.084 99.3039 207.572 99.0799C207.06 98.8452 206.617 98.5305 206.244 98.1359C205.871 97.7305 205.583 97.2665 205.38 96.7439C205.177 96.2212 205.076 95.6719 205.076 95.0959C205.076 94.5092 205.177 93.9545 205.38 93.4319C205.583 92.9092 205.871 92.4505 206.244 92.0559C206.617 91.6505 207.06 91.3359 207.572 91.1119C208.095 90.8772 208.665 90.7599 209.284 90.7599C209.913 90.7599 210.484 90.8772 210.996 91.1119C211.508 91.3359 211.951 91.6505 212.324 92.0559C212.708 92.4505 213.001 92.9092 213.204 93.4319C213.407 93.9545 213.508 94.5092 213.508 95.0959C213.508 95.6719 213.407 96.2212 213.204 96.7439C213.001 97.2665 212.713 97.7305 212.34 98.1359C211.967 98.5305 211.519 98.8452 210.996 99.0799C210.484 99.3039 209.913 99.4159 209.284 99.4159ZM206.516 95.1119C206.516 95.6879 206.639 96.2105 206.884 96.6799C207.14 97.1492 207.476 97.5225 207.892 97.7999C208.308 98.0665 208.772 98.1999 209.284 98.1999C209.796 98.1999 210.26 98.0612 210.676 97.7839C211.103 97.5065 211.439 97.1332 211.684 96.6639C211.94 96.1839 212.068 95.6559 212.068 95.0799C212.068 94.5039 211.94 93.9812 211.684 93.5119C211.439 93.0425 211.103 92.6692 210.676 92.3919C210.26 92.1145 209.796 91.9759 209.284 91.9759C208.772 91.9759 208.308 92.1199 207.892 92.4079C207.476 92.6852 207.14 93.0585 206.884 93.5279C206.639 93.9972 206.516 94.5252 206.516 95.1119ZM221.293 99.2559V92.1519H218.413V90.9039H225.581V92.1519H222.701V99.2559H221.293ZM226.979 99.2559V90.9039H228.387V93.7519H230.083C231.065 93.7519 231.806 94.0025 232.307 94.5039C232.819 94.9945 233.075 95.6399 233.075 96.4399C233.075 96.9732 232.963 97.4532 232.739 97.8799C232.526 98.3065 232.206 98.6425 231.779 98.8879C231.353 99.1332 230.819 99.2559 230.179 99.2559H226.979ZM228.387 98.1519H229.987C230.382 98.1519 230.697 98.0772 230.931 97.9279C231.177 97.7679 231.358 97.5599 231.475 97.3039C231.593 97.0479 231.651 96.7705 231.651 96.4719C231.651 96.1839 231.598 95.9172 231.491 95.6719C231.385 95.4265 231.209 95.2292 230.963 95.0799C230.718 94.9305 230.382 94.8559 229.955 94.8559H228.387V98.1519ZM234.515 99.2559V90.9199H235.923V99.2559H234.515ZM20.64 114.776L24.688 111.88V113.064L21.776 115.112L24.688 117.112V118.296L20.64 115.512V114.776ZM24.512 114.776L28.56 111.88V113.064L25.648 115.112L28.56 117.112V118.296L24.512 115.512V114.776ZM34.3153 119.416C33.6859 119.416 33.1153 119.304 32.6033 119.08C32.0913 118.845 31.6486 118.531 31.2753 118.136C30.9019 117.731 30.6139 117.267 30.4113 116.744C30.2086 116.221 30.1073 115.672 30.1073 115.096C30.1073 114.509 30.2086 113.955 30.4113 113.432C30.6139 112.909 30.9019 112.451 31.2753 112.056C31.6486 111.651 32.0913 111.336 32.6033 111.112C33.1259 110.877 33.6966 110.76 34.3153 110.76C34.9446 110.76 35.5153 110.877 36.0273 111.112C36.5393 111.336 36.9819 111.651 37.3553 112.056C37.7393 112.451 38.0326 112.909 38.2353 113.432C38.4379 113.955 38.5393 114.509 38.5393 115.096C38.5393 115.672 38.4379 116.221 38.2353 116.744C38.0326 117.267 37.7446 117.731 37.3713 118.136C36.9979 118.531 36.5499 118.845 36.0273 119.08C35.5153 119.304 34.9446 119.416 34.3153 119.416ZM31.5473 115.112C31.5473 115.688 31.6699 116.211 31.9153 116.68C32.1713 117.149 32.5073 117.523 32.9233 117.8C33.3393 118.067 33.8033 118.2 34.3153 118.2C34.8273 118.2 35.2913 118.061 35.7073 117.784C36.1339 117.507 36.4699 117.133 36.7153 116.664C36.9713 116.184 37.0993 115.656 37.0993 115.08C37.0993 114.504 36.9713 113.981 36.7153 113.512C36.4699 113.043 36.1339 112.669 35.7073 112.392C35.2913 112.115 34.8273 111.976 34.3153 111.976C33.8033 111.976 33.3393 112.12 32.9233 112.408C32.5073 112.685 32.1713 113.059 31.9153 113.528C31.6699 113.997 31.5473 114.525 31.5473 115.112ZM44.1814 119.416C42.8054 119.416 41.7654 119 41.0614 118.168C40.3574 117.336 40.0054 116.163 40.0054 114.648C40.0054 113.613 40.0907 112.744 40.2614 112.04C40.432 111.325 40.688 110.739 41.0294 110.28C41.3707 109.811 41.792 109.432 42.2934 109.144C42.7947 108.845 43.3707 108.6 44.0214 108.408L47.5574 107.336L47.6374 108.552L44.1974 109.592C43.6107 109.784 43.12 110.029 42.7254 110.328C42.3307 110.627 42.0214 111.011 41.7974 111.48C41.5734 111.949 41.424 112.552 41.3494 113.288C41.6267 112.723 42.0427 112.285 42.5974 111.976C43.152 111.656 43.7974 111.496 44.5334 111.496C45.3227 111.496 46 111.661 46.5654 111.992C47.1414 112.312 47.5787 112.765 47.8774 113.352C48.1867 113.928 48.3414 114.595 48.3414 115.352C48.3414 116.163 48.1814 116.872 47.8614 117.48C47.5414 118.088 47.072 118.563 46.4534 118.904C45.8347 119.245 45.0774 119.416 44.1814 119.416ZM44.1814 118.2C45.0454 118.2 45.712 117.949 46.1814 117.448C46.6614 116.936 46.9014 116.259 46.9014 115.416C46.9014 114.595 46.6667 113.928 46.1974 113.416C45.728 112.904 45.056 112.648 44.1814 112.648C43.6694 112.648 43.2054 112.755 42.7894 112.968C42.384 113.181 42.0587 113.496 41.8134 113.912C41.5787 114.317 41.4614 114.819 41.4614 115.416C41.4614 115.949 41.5627 116.429 41.7654 116.856C41.9787 117.272 42.288 117.603 42.6934 117.848C43.0987 118.083 43.5947 118.2 44.1814 118.2ZM50.0419 119.256V110.904H51.4979L54.6019 116.376L57.7219 110.904H59.1459V119.256H57.8019V112.936L55.0499 117.768H54.1539L51.3859 112.936V119.256H50.0419ZM65.1133 119.416C64.4839 119.416 63.9079 119.304 63.3853 119.08C62.8733 118.845 62.4253 118.531 62.0413 118.136C61.6679 117.731 61.3746 117.267 61.1613 116.744C60.9586 116.221 60.8573 115.667 60.8573 115.08C60.8573 114.291 61.0386 113.571 61.4013 112.92C61.7639 112.269 62.2653 111.747 62.9053 111.352C63.5559 110.957 64.2973 110.76 65.1293 110.76C65.9719 110.76 66.7026 110.963 67.3213 111.368C67.9506 111.763 68.4359 112.285 68.7773 112.936C69.1293 113.576 69.3053 114.269 69.3053 115.016C69.3053 115.123 69.2999 115.229 69.2893 115.336C69.2893 115.432 69.2839 115.507 69.2733 115.56H62.3453C62.3879 116.104 62.5373 116.589 62.7933 117.016C63.0599 117.432 63.4013 117.763 63.8173 118.008C64.2333 118.243 64.6813 118.36 65.1613 118.36C65.6733 118.36 66.1533 118.232 66.6013 117.976C67.0599 117.72 67.3746 117.384 67.5453 116.968L68.7613 117.304C68.5799 117.709 68.3079 118.072 67.9453 118.392C67.5933 118.712 67.1719 118.963 66.6813 119.144C66.2013 119.325 65.6786 119.416 65.1133 119.416ZM62.2973 114.584H67.9933C67.9506 114.04 67.7959 113.56 67.5293 113.144C67.2626 112.728 66.9213 112.403 66.5053 112.168C66.0893 111.933 65.6306 111.816 65.1293 111.816C64.6386 111.816 64.1853 111.933 63.7693 112.168C63.3533 112.403 63.0119 112.728 62.7453 113.144C62.4893 113.56 62.3399 114.04 62.2973 114.584ZM70.8544 119.256V110.904H72.2624V114.36H76.6144V110.904H78.0224V119.256H76.6144V115.608H72.2624V119.256H70.8544ZM80.2763 119.256V110.92H81.6843V117.368L86.3563 110.904H87.6363V119.256H86.2283V112.936L81.6203 119.256H80.2763ZM89.87 119.256V110.904H94.19C94.6913 110.904 95.1073 111.005 95.438 111.208C95.7687 111.4 96.014 111.651 96.174 111.96C96.3447 112.269 96.43 112.6 96.43 112.952C96.43 113.4 96.3233 113.805 96.11 114.168C95.8967 114.52 95.5873 114.787 95.182 114.968C95.662 115.107 96.0513 115.357 96.35 115.72C96.6487 116.072 96.798 116.509 96.798 117.032C96.798 117.501 96.686 117.901 96.462 118.232C96.238 118.563 95.9233 118.819 95.518 119C95.1127 119.171 94.6433 119.256 94.11 119.256H89.87ZM91.214 118.264H94.078C94.334 118.264 94.5633 118.2 94.766 118.072C94.9793 117.944 95.1447 117.773 95.262 117.56C95.3793 117.347 95.438 117.123 95.438 116.888C95.438 116.632 95.3793 116.403 95.262 116.2C95.1553 115.987 95.0007 115.821 94.798 115.704C94.606 115.576 94.382 115.512 94.126 115.512H91.214V118.264ZM91.214 114.584H93.822C94.078 114.584 94.302 114.52 94.494 114.392C94.686 114.253 94.8353 114.077 94.942 113.864C95.0487 113.651 95.102 113.427 95.102 113.192C95.102 112.84 94.9847 112.536 94.75 112.28C94.526 112.024 94.2327 111.896 93.87 111.896H91.214V114.584ZM97.9331 116.84C97.9331 116.307 98.0825 115.848 98.3811 115.464C98.6905 115.069 99.1118 114.765 99.6451 114.552C100.178 114.339 100.797 114.232 101.501 114.232C101.874 114.232 102.269 114.264 102.685 114.328C103.101 114.381 103.469 114.467 103.789 114.584V113.976C103.789 113.336 103.597 112.835 103.213 112.472C102.829 112.099 102.285 111.912 101.581 111.912C101.122 111.912 100.68 111.997 100.253 112.168C99.8371 112.328 99.3945 112.563 98.9251 112.872L98.4131 111.88C98.9571 111.507 99.5011 111.229 100.045 111.048C100.589 110.856 101.154 110.76 101.741 110.76C102.808 110.76 103.65 111.059 104.269 111.656C104.888 112.243 105.197 113.064 105.197 114.12V117.656C105.197 117.827 105.229 117.955 105.293 118.04C105.368 118.115 105.485 118.157 105.645 118.168V119.256C105.506 119.277 105.384 119.293 105.277 119.304C105.181 119.315 105.101 119.32 105.037 119.32C104.706 119.32 104.456 119.229 104.285 119.048C104.125 118.867 104.034 118.675 104.013 118.472L103.981 117.944C103.618 118.413 103.144 118.776 102.557 119.032C101.97 119.288 101.389 119.416 100.813 119.416C100.258 119.416 99.7625 119.304 99.3251 119.08C98.8878 118.845 98.5465 118.536 98.3011 118.152C98.0558 117.757 97.9331 117.32 97.9331 116.84ZM103.373 117.432C103.501 117.283 103.602 117.133 103.677 116.984C103.752 116.824 103.789 116.691 103.789 116.584V115.544C103.458 115.416 103.112 115.32 102.749 115.256C102.386 115.181 102.029 115.144 101.677 115.144C100.962 115.144 100.381 115.288 99.9331 115.576C99.4958 115.853 99.2771 116.237 99.2771 116.728C99.2771 116.995 99.3465 117.256 99.4851 117.512C99.6345 117.757 99.8478 117.96 100.125 118.12C100.413 118.28 100.765 118.36 101.181 118.36C101.618 118.36 102.034 118.275 102.429 118.104C102.824 117.923 103.138 117.699 103.373 117.432ZM111.145 119.416C110.515 119.416 109.939 119.304 109.417 119.08C108.905 118.845 108.457 118.531 108.073 118.136C107.699 117.731 107.406 117.267 107.193 116.744C106.99 116.221 106.889 115.667 106.889 115.08C106.889 114.291 107.07 113.571 107.433 112.92C107.795 112.269 108.297 111.747 108.937 111.352C109.587 110.957 110.329 110.76 111.161 110.76C112.003 110.76 112.734 110.963 113.353 111.368C113.982 111.763 114.467 112.285 114.809 112.936C115.161 113.576 115.337 114.269 115.337 115.016C115.337 115.123 115.331 115.229 115.321 115.336C115.321 115.432 115.315 115.507 115.305 115.56H108.377C108.419 116.104 108.569 116.589 108.825 117.016C109.091 117.432 109.433 117.763 109.849 118.008C110.265 118.243 110.713 118.36 111.193 118.36C111.705 118.36 112.185 118.232 112.633 117.976C113.091 117.72 113.406 117.384 113.577 116.968L114.793 117.304C114.611 117.709 114.339 118.072 113.977 118.392C113.625 118.712 113.203 118.963 112.713 119.144C112.233 119.325 111.71 119.416 111.145 119.416ZM108.329 114.584H114.025C113.982 114.04 113.827 113.56 113.561 113.144C113.294 112.728 112.953 112.403 112.537 112.168C112.121 111.933 111.662 111.816 111.161 111.816C110.67 111.816 110.217 111.933 109.801 112.168C109.385 112.403 109.043 112.728 108.777 113.144C108.521 113.56 108.371 114.04 108.329 114.584ZM116.886 119.256V110.904H118.294V118.024H121.59V110.904H123.014V118.024H126.294V110.904H127.702V119.256H116.886ZM129.964 119.256V110.904H131.372V113.752H133.452C134.433 113.752 135.174 114.003 135.676 114.504C136.188 114.995 136.444 115.64 136.444 116.44C136.444 116.973 136.332 117.453 136.108 117.88C135.894 118.307 135.574 118.643 135.148 118.888C134.721 119.133 134.188 119.256 133.548 119.256H129.964ZM131.372 118.152H133.356C133.75 118.152 134.065 118.077 134.3 117.928C134.545 117.768 134.726 117.56 134.844 117.304C134.961 117.048 135.02 116.771 135.02 116.472C135.02 116.184 134.966 115.917 134.86 115.672C134.753 115.427 134.577 115.229 134.332 115.08C134.086 114.931 133.75 114.856 133.324 114.856H131.372V118.152ZM145.74 115.512L141.692 118.296V117.112L144.604 115.112L141.692 113.064V111.88L145.74 114.776V115.512ZM141.868 115.512L137.82 118.296V117.112L140.732 115.112L137.82 113.064V111.88L141.868 114.776V115.512ZM151.542 119.256V110.904H155.862C156.363 110.904 156.779 111.005 157.11 111.208C157.441 111.4 157.686 111.651 157.846 111.96C158.017 112.269 158.102 112.6 158.102 112.952C158.102 113.4 157.995 113.805 157.782 114.168C157.569 114.52 157.259 114.787 156.854 114.968C157.334 115.107 157.723 115.357 158.022 115.72C158.321 116.072 158.47 116.509 158.47 117.032C158.47 117.501 158.358 117.901 158.134 118.232C157.91 118.563 157.595 118.819 157.19 119C156.785 119.171 156.315 119.256 155.782 119.256H151.542ZM152.886 118.264H155.75C156.006 118.264 156.235 118.2 156.438 118.072C156.651 117.944 156.817 117.773 156.934 117.56C157.051 117.347 157.11 117.123 157.11 116.888C157.11 116.632 157.051 116.403 156.934 116.2C156.827 115.987 156.673 115.821 156.47 115.704C156.278 115.576 156.054 115.512 155.798 115.512H152.886V118.264ZM152.886 114.584H155.494C155.75 114.584 155.974 114.52 156.166 114.392C156.358 114.253 156.507 114.077 156.614 113.864C156.721 113.651 156.774 113.427 156.774 113.192C156.774 112.84 156.657 112.536 156.422 112.28C156.198 112.024 155.905 111.896 155.542 111.896H152.886V114.584ZM164.757 119.416C164.074 119.416 163.466 119.245 162.933 118.904C162.4 118.563 161.978 118.131 161.669 117.608V122.664H160.261V110.904H161.509V112.472C161.84 111.96 162.272 111.549 162.805 111.24C163.338 110.92 163.92 110.76 164.549 110.76C165.125 110.76 165.653 110.877 166.133 111.112C166.613 111.347 167.029 111.667 167.381 112.072C167.733 112.477 168.005 112.941 168.197 113.464C168.4 113.976 168.501 114.515 168.501 115.08C168.501 115.869 168.341 116.595 168.021 117.256C167.712 117.917 167.274 118.445 166.709 118.84C166.144 119.224 165.493 119.416 164.757 119.416ZM164.325 118.2C164.741 118.2 165.114 118.115 165.445 117.944C165.786 117.763 166.074 117.528 166.309 117.24C166.554 116.941 166.741 116.605 166.869 116.232C166.997 115.859 167.061 115.475 167.061 115.08C167.061 114.664 166.986 114.269 166.837 113.896C166.698 113.523 166.496 113.192 166.229 112.904C165.973 112.616 165.669 112.392 165.317 112.232C164.976 112.061 164.602 111.976 164.197 111.976C163.941 111.976 163.674 112.024 163.397 112.12C163.13 112.216 162.874 112.355 162.629 112.536C162.384 112.707 162.176 112.904 162.005 113.128C161.834 113.352 161.722 113.592 161.669 113.848V116.232C161.829 116.595 162.042 116.925 162.309 117.224C162.576 117.523 162.885 117.763 163.237 117.944C163.589 118.115 163.952 118.2 164.325 118.2ZM173.926 119.416C173.296 119.416 172.72 119.304 172.198 119.08C171.686 118.845 171.238 118.531 170.854 118.136C170.48 117.731 170.187 117.267 169.974 116.744C169.771 116.221 169.67 115.667 169.67 115.08C169.67 114.291 169.851 113.571 170.214 112.92C170.576 112.269 171.078 111.747 171.718 111.352C172.368 110.957 173.11 110.76 173.942 110.76C174.784 110.76 175.515 110.963 176.134 111.368C176.763 111.763 177.248 112.285 177.59 112.936C177.942 113.576 178.118 114.269 178.118 115.016C178.118 115.123 178.112 115.229 178.102 115.336C178.102 115.432 178.096 115.507 178.086 115.56H171.158C171.2 116.104 171.35 116.589 171.606 117.016C171.872 117.432 172.214 117.763 172.63 118.008C173.046 118.243 173.494 118.36 173.974 118.36C174.486 118.36 174.966 118.232 175.414 117.976C175.872 117.72 176.187 117.384 176.358 116.968L177.574 117.304C177.392 117.709 177.12 118.072 176.758 118.392C176.406 118.712 175.984 118.963 175.494 119.144C175.014 119.325 174.491 119.416 173.926 119.416ZM171.11 114.584H176.806C176.763 114.04 176.608 113.56 176.342 113.144C176.075 112.728 175.734 112.403 175.318 112.168C174.902 111.933 174.443 111.816 173.942 111.816C173.451 111.816 172.998 111.933 172.582 112.168C172.166 112.403 171.824 112.728 171.558 113.144C171.302 113.56 171.152 114.04 171.11 114.584ZM179.667 119.256V110.904H181.123L184.227 116.376L187.347 110.904H188.771V119.256H187.427V112.936L184.675 117.768H183.779L181.011 112.936V119.256H179.667ZM190.418 119.256L192.786 115.896C192.242 115.789 191.805 115.533 191.474 115.128C191.144 114.712 190.978 114.157 190.978 113.464C190.978 112.963 191.096 112.52 191.33 112.136C191.565 111.752 191.89 111.448 192.306 111.224C192.733 111 193.229 110.888 193.794 110.888H197.218V119.256H195.81V116.12H194.178L191.97 119.256H190.418ZM193.89 115.08H195.81V111.992H194.05C193.549 111.992 193.149 112.136 192.85 112.424C192.552 112.701 192.402 113.059 192.402 113.496C192.402 113.933 192.525 114.307 192.77 114.616C193.026 114.925 193.4 115.08 193.89 115.08Z" fill="#32343A"/>
<path d="M288.153 10.9795C291.531 10.5049 294.925 9.96386 298.347 9.41979L316.243 6.47911L316.263 6.4758C320.839 5.74786 325.609 4.93163 330.274 4.2288C331.699 4.01401 333.956 3.85601 335.884 4.20753L336.265 4.2847L336.266 4.28551C336.428 4.32195 337.346 4.50218 337.877 4.6402C338.548 4.81491 339.514 5.1196 340.453 5.74625L341.002 6.12428C343.748 8.06636 346.372 10.8134 347.126 15.1161L347.126 15.1171C347.412 16.7501 347.511 18.4726 347.006 20.4705L346.494 22.5009L346.079 22.6559C345.341 24.4537 344.283 25.9697 342.887 27.2557C345.077 33.1731 344.778 40.6177 343.358 47.1897C341.675 54.9756 338.115 62.984 333.308 67.6682C333.227 67.8131 333.123 67.9998 332.999 68.2313C332.568 69.0337 332.292 69.5715 331.732 70.6158C331.269 71.4799 330.76 72.4122 330.308 73.1616C330.088 73.5276 329.835 73.929 329.575 74.2811C329.501 74.3826 329.404 74.5062 329.292 74.6403C328.767 75.807 328.777 76.5669 328.885 77.0878C329.028 77.7752 329.465 78.6154 330.46 79.7096C331.469 80.8199 332.793 81.918 334.413 83.2204C335.862 84.3852 337.578 85.7393 339.086 87.2109C339.123 87.2382 339.163 87.2683 339.207 87.301C339.433 87.4704 339.752 87.7131 340.142 88.0226C340.922 88.6405 341.998 89.5311 343.207 90.6378C345.539 92.7729 348.509 95.8476 350.767 99.4419C354.141 103.634 356.56 109.261 357.377 113.731C357.513 114.131 357.613 114.51 357.679 114.789C357.789 115.251 357.887 115.742 357.965 116.139C358.05 116.574 358.111 116.889 358.169 117.138C358.171 117.148 358.173 117.157 358.175 117.165L358.5 117.77L358.5 118.775C358.5 118.778 358.503 118.873 358.525 119.102C358.546 119.32 358.578 119.593 358.621 119.92C358.71 120.59 358.822 121.339 358.941 122.174C359.055 122.97 359.173 123.833 359.247 124.592C359.303 125.17 359.405 126.261 359.235 127.199C359.063 128.144 358.865 128.999 358.596 129.827C358.633 129.857 358.664 129.882 358.682 129.897C358.707 129.918 358.731 129.938 358.752 129.956C358.793 129.991 358.837 130.03 358.879 130.067C358.963 130.14 359.063 130.228 359.152 130.306C359.159 130.312 359.166 130.318 359.172 130.324C360.245 130.989 360.875 131.924 361.181 132.435C361.653 133.224 361.984 134.08 362.209 134.815C362.439 135.566 362.608 136.353 362.695 137.078C362.739 137.44 362.769 137.844 362.762 138.257C362.759 138.439 362.747 138.704 362.703 139.017L362.703 139.481L362.702 139.818L362.646 140.152L362.541 140.772C362.417 142.089 361.879 143.201 361.405 143.973C360.854 144.87 360.162 145.674 359.478 146.342C358.789 147.015 358.018 147.634 357.238 148.131C356.832 148.389 356.324 148.676 355.748 148.916L355.642 149.017L354.792 149.29C354.218 149.475 353.58 149.617 352.961 149.731L352.964 149.744C352.747 149.84 352.568 149.895 352.517 149.91C352.44 149.934 352.376 149.952 352.338 149.961C352.262 149.981 352.197 149.996 352.16 150.004C352.083 150.022 352.004 150.038 351.941 150.05C351.81 150.076 351.642 150.106 351.458 150.139C351.084 150.206 350.573 150.296 349.977 150.398C348.782 150.602 347.211 150.864 345.642 151.122C344.073 151.381 342.499 151.637 341.3 151.828C340.702 151.923 340.188 152.002 339.811 152.059C339.625 152.086 339.457 152.111 339.324 152.129C339.261 152.138 339.182 152.148 339.104 152.157C339.076 152.16 339.033 152.163 338.981 152.168C338.079 152.38 336.306 152.631 335.878 152.697C334.82 152.859 332.437 153.35 330.714 153.483C330.612 153.514 330.528 153.538 330.467 153.554C330.19 153.627 329.902 153.688 329.642 153.738C329.117 153.839 328.517 153.931 327.963 154.011C326.697 154.192 325.834 154.29 325.414 154.363L325.39 154.367L305.426 157.693L305.421 157.694C299.653 158.648 294.248 159.61 288.244 160.267L285.967 160.516L285.621 160.052C282.591 159.715 279.815 158.191 277.908 155.807L277.908 155.806C277.592 155.411 277.366 155.014 277.232 154.765C277.085 154.491 276.955 154.216 276.86 154.013C276.748 153.771 276.69 153.643 276.618 153.494C276.547 153.347 276.535 153.334 276.565 153.383L276.565 153.382C275.965 152.414 275.756 151.355 275.665 150.697C275.559 149.93 275.539 149.119 275.59 148.352C275.64 147.594 275.767 146.741 276.026 145.919C276.211 145.331 276.588 144.349 277.388 143.493C277.423 143.436 277.458 143.379 277.494 143.324C276.172 141.699 275.344 139.919 274.862 138.009C274.158 135.222 274.221 132.076 274.146 129.613L274.14 129.434L274.151 129.255L274.302 126.696L274.303 126.682L274.304 126.667C274.919 117.398 277.827 109.01 283.369 101.393L283.37 101.392C284.306 100.108 285.379 98.8703 286.391 97.7319C287.443 96.5479 288.41 95.4918 289.334 94.3821C291.21 92.1305 292.356 90.2851 292.719 88.5534L292.719 88.5513C292.875 87.8105 292.801 86.4186 292.534 85.5159L292.534 85.515C291.332 81.4605 288.636 80.3722 283.228 77.3996L283.217 77.3935L283.207 77.3881C281.464 76.4167 279.778 75.3486 278.156 74.1888L278.15 74.1848C273.752 71.0287 269.96 67.1004 266.963 62.5904L266.963 62.5894C263.421 57.35 259.911 49.4849 259.376 42.6185L259.376 42.6156C259.335 42.0847 259.346 41.5182 259.386 40.9554C255.974 39.4004 253.668 36.4289 252.468 33.0961C251.914 32.2493 251.719 31.3565 251.639 30.94C251.533 30.3861 251.483 29.8259 251.461 29.3443C251.419 28.4566 251.45 27.3509 251.619 26.514C252.129 23.9762 253.09 21.8347 254.527 20.0944C255.963 18.3551 257.708 17.2169 259.492 16.4451C262.757 15.0329 266.852 14.6493 269.6 14.197L279.464 12.5163L279.498 12.5106C281.514 12.1856 283.681 11.8852 285.598 11.5909C285.73 11.5707 285.898 11.5276 286.355 11.3967C286.729 11.2894 287.39 11.0949 288.114 10.9858L288.153 10.9795Z" fill="#46FF95" stroke="white" stroke-width="8"/>
<path d="M297.93 128.361C301.744 130.568 310.549 132.997 315.257 125.049" stroke="#343434" stroke-width="4.55975" stroke-linecap="round"/>
<g clip-path="url(#clip0_124_1794)">
<rect x="278" y="97.5898" width="26.8119" height="26.8119" rx="13.406" transform="rotate(-9.30077 278 97.5898)" fill="white"/>
<rect x="282.588" y="100.312" width="20.4282" height="20.4282" rx="10.2141" transform="rotate(-9.30077 282.588 100.312)" fill="#343434"/>
</g>
<g clip-path="url(#clip1_124_1794)">
<rect x="308" y="92.5898" width="26.8119" height="26.8119" rx="13.406" transform="rotate(-9.30077 308 92.5898)" fill="white"/>
<rect x="312.588" y="95.3125" width="20.4282" height="20.4282" rx="10.2141" transform="rotate(-9.30077 312.588 95.3125)" fill="#343434"/>
</g>
<defs>
<clipPath id="clip0_124_1794">
<rect x="278" y="97.5898" width="26.8119" height="26.8119" rx="13.406" transform="rotate(-9.30077 278 97.5898)" fill="white"/>
</clipPath>
<clipPath id="clip1_124_1794">
<rect x="308" y="92.5898" width="26.8119" height="26.8119" rx="13.406" transform="rotate(-9.30077 308 92.5898)" fill="white"/>
</clipPath>
</defs>
</svg>
