<svg width="370" height="165" viewBox="0 0 370 165" fill="none" xmlns="http://www.w3.org/2000/svg">
<rect y="15.2559" width="370" height="124" rx="16" fill="#A780FF" fill-opacity="0.16"/>
<path d="M21.824 52.2559V35.2159H35.624V52.2559H32.336V38.1199H25.112V52.2559H21.824ZM46.4375 52.4959C45.4615 52.4959 44.5975 52.2799 43.8455 51.8479C43.1095 51.3999 42.5335 50.7999 42.1175 50.0479V57.3679H38.9015V39.6799H41.7095V41.8399C42.1895 41.1039 42.7975 40.5279 43.5335 40.1119C44.2695 39.6799 45.1095 39.4639 46.0535 39.4639C46.9015 39.4639 47.6775 39.6319 48.3815 39.9679C49.1015 40.3039 49.7255 40.7759 50.2535 41.3839C50.7815 41.9759 51.1895 42.6639 51.4775 43.4479C51.7815 44.2159 51.9335 45.0479 51.9335 45.9439C51.9335 47.1599 51.6935 48.2639 51.2135 49.2559C50.7495 50.2479 50.1015 51.0399 49.2695 51.6319C48.4535 52.2079 47.5095 52.4959 46.4375 52.4959ZM45.3575 49.7599C45.8535 49.7599 46.3015 49.6559 46.7015 49.4479C47.1015 49.2399 47.4455 48.9599 47.7335 48.6079C48.0375 48.2399 48.2615 47.8319 48.4055 47.3839C48.5655 46.9199 48.6455 46.4399 48.6455 45.9439C48.6455 45.4159 48.5575 44.9279 48.3815 44.4799C48.2215 44.0319 47.9815 43.6399 47.6615 43.3039C47.3415 42.9519 46.9655 42.6799 46.5335 42.4879C46.1175 42.2959 45.6615 42.1999 45.1655 42.1999C44.8615 42.1999 44.5495 42.2559 44.2295 42.3679C43.9255 42.4639 43.6295 42.6079 43.3415 42.7999C43.0535 42.9919 42.7975 43.2159 42.5735 43.4719C42.3655 43.7279 42.2135 44.0079 42.1175 44.3119V47.2639C42.3095 47.7279 42.5655 48.1519 42.8855 48.5359C43.2215 48.9199 43.6055 49.2239 44.0375 49.4479C44.4695 49.6559 44.9095 49.7599 45.3575 49.7599ZM54.1124 52.2559V39.7039H57.3284V47.9599L62.9684 39.6799H65.8964V52.2559H62.6804V44.1919L57.1124 52.2559H54.1124ZM68.8312 52.2559V39.6799H75.8392C76.7032 39.6799 77.3992 39.8239 77.9272 40.1119C78.4712 40.3999 78.8712 40.7759 79.1272 41.2399C79.3832 41.7039 79.5112 42.1999 79.5112 42.7279C79.5112 43.4319 79.3512 44.0479 79.0312 44.5759C78.7272 45.1039 78.2472 45.5119 77.5912 45.7999C78.3272 46.0079 78.9272 46.3679 79.3912 46.8799C79.8552 47.3759 80.0872 48.0319 80.0872 48.8479C80.0872 49.6319 79.9032 50.2799 79.5352 50.7919C79.1672 51.2879 78.6392 51.6559 77.9512 51.8959C77.2632 52.1359 76.4472 52.2559 75.5032 52.2559H68.8312ZM71.8792 50.0719H75.4072C75.6952 50.0719 75.9592 49.9999 76.1992 49.8559C76.4392 49.7119 76.6232 49.5199 76.7512 49.2799C76.8952 49.0399 76.9672 48.7759 76.9672 48.4879C76.9672 48.1839 76.9032 47.9199 76.7752 47.6959C76.6472 47.4559 76.4632 47.2719 76.2232 47.1439C75.9992 46.9999 75.7352 46.9279 75.4312 46.9279H71.8792V50.0719ZM71.8792 44.9119H75.0232C75.3112 44.9119 75.5672 44.8399 75.7912 44.6959C76.0152 44.5519 76.1832 44.3599 76.2952 44.1199C76.4232 43.8799 76.4872 43.6159 76.4872 43.3279C76.4872 42.9119 76.3512 42.5679 76.0792 42.2959C75.8232 42.0079 75.4792 41.8639 75.0472 41.8639H71.8792V44.9119ZM88.2569 52.4959C87.2489 52.4959 86.3369 52.3279 85.5209 51.9919C84.7049 51.6399 84.0089 51.1679 83.4329 50.5759C82.8569 49.9679 82.4089 49.2799 82.0889 48.5119C81.7849 47.7279 81.6329 46.9039 81.6329 46.0399C81.6329 44.8399 81.8969 43.7439 82.4249 42.7519C82.9689 41.7599 83.7369 40.9679 84.7289 40.3759C85.7369 39.7679 86.9209 39.4639 88.2809 39.4639C89.6569 39.4639 90.8329 39.7679 91.8089 40.3759C92.7849 40.9679 93.5289 41.7599 94.0409 42.7519C94.5689 43.7279 94.8329 44.7839 94.8329 45.9199C94.8329 46.1119 94.8249 46.3119 94.8089 46.5199C94.7929 46.7119 94.7769 46.8719 94.7609 46.9999H85.0409C85.1049 47.6399 85.2889 48.1999 85.5929 48.6799C85.9129 49.1599 86.3129 49.5279 86.7929 49.7839C87.2889 50.0239 87.8169 50.1439 88.3769 50.1439C89.0169 50.1439 89.6169 49.9919 90.1769 49.6879C90.7529 49.3679 91.1449 48.9519 91.3529 48.4399L94.1129 49.2079C93.8089 49.8479 93.3689 50.4159 92.7929 50.9119C92.2329 51.4079 91.5689 51.7999 90.8009 52.0879C90.0329 52.3599 89.1849 52.4959 88.2569 52.4959ZM84.9689 44.9599H91.5449C91.4809 44.3199 91.2969 43.7679 90.9929 43.3039C90.7049 42.8239 90.3209 42.4559 89.8409 42.1999C89.3609 41.9279 88.8249 41.7919 88.2329 41.7919C87.6569 41.7919 87.1289 41.9279 86.6489 42.1999C86.1849 42.4559 85.8009 42.8239 85.4969 43.3039C85.2089 43.7679 85.0329 44.3199 84.9689 44.9599ZM99.6961 52.2559V42.4879H95.7121V39.6799H106.92V42.4879H102.912V52.2559H99.6961ZM109.346 45.8479V35.0479H112.562V45.8479H109.346ZM109.346 52.2559V48.6319H112.562V52.2559H109.346Z" fill="#A780FF"/>
<path d="M21.36 79.2559V67.8959H30.128V79.2559H28.688V69.1759H22.8V79.2559H21.36ZM36.3164 79.4159C35.687 79.4159 35.111 79.3039 34.5884 79.0799C34.0764 78.8452 33.6284 78.5305 33.2444 78.1359C32.871 77.7305 32.5777 77.2665 32.3644 76.7439C32.1617 76.2212 32.0604 75.6665 32.0604 75.0799C32.0604 74.2905 32.2417 73.5705 32.6044 72.9199C32.967 72.2692 33.4684 71.7465 34.1084 71.3519C34.759 70.9572 35.5004 70.7599 36.3324 70.7599C37.175 70.7599 37.9057 70.9625 38.5244 71.3679C39.1537 71.7625 39.639 72.2852 39.9804 72.9359C40.3324 73.5759 40.5084 74.2692 40.5084 75.0159C40.5084 75.1225 40.503 75.2292 40.4924 75.3359C40.4924 75.4319 40.487 75.5065 40.4764 75.5599H33.5484C33.591 76.1039 33.7404 76.5892 33.9964 77.0159C34.263 77.4319 34.6044 77.7625 35.0204 78.0079C35.4364 78.2425 35.8844 78.3599 36.3644 78.3599C36.8764 78.3599 37.3564 78.2319 37.8044 77.9759C38.263 77.7199 38.5777 77.3839 38.7484 76.9679L39.9644 77.3039C39.783 77.7092 39.511 78.0719 39.1484 78.3919C38.7964 78.7119 38.375 78.9625 37.8844 79.1439C37.4044 79.3252 36.8817 79.4159 36.3164 79.4159ZM33.5004 74.5839H39.1964C39.1537 74.0399 38.999 73.5599 38.7324 73.1439C38.4657 72.7279 38.1244 72.4025 37.7084 72.1679C37.2924 71.9332 36.8337 71.8159 36.3324 71.8159C35.8417 71.8159 35.3884 71.9332 34.9724 72.1679C34.5564 72.4025 34.215 72.7279 33.9484 73.1439C33.6924 73.5599 33.543 74.0399 33.5004 74.5839ZM46.5695 79.4159C45.8868 79.4159 45.2788 79.2452 44.7455 78.9039C44.2122 78.5625 43.7908 78.1305 43.4815 77.6079V82.6639H42.0735V70.9039H43.3215V72.4719C43.6522 71.9599 44.0842 71.5492 44.6175 71.2399C45.1508 70.9199 45.7322 70.7599 46.3615 70.7599C46.9375 70.7599 47.4655 70.8772 47.9455 71.1119C48.4255 71.3465 48.8415 71.6665 49.1935 72.0719C49.5455 72.4772 49.8175 72.9412 50.0095 73.4639C50.2122 73.9759 50.3135 74.5145 50.3135 75.0799C50.3135 75.8692 50.1535 76.5945 49.8335 77.2559C49.5242 77.9172 49.0868 78.4452 48.5215 78.8399C47.9562 79.2239 47.3055 79.4159 46.5695 79.4159ZM46.1375 78.1999C46.5535 78.1999 46.9268 78.1145 47.2575 77.9439C47.5988 77.7625 47.8868 77.5279 48.1215 77.2399C48.3668 76.9412 48.5535 76.6052 48.6815 76.2319C48.8095 75.8585 48.8735 75.4745 48.8735 75.0799C48.8735 74.6639 48.7988 74.2692 48.6495 73.8959C48.5108 73.5225 48.3082 73.1919 48.0415 72.9039C47.7855 72.6159 47.4815 72.3919 47.1295 72.2319C46.7882 72.0612 46.4148 71.9759 46.0095 71.9759C45.7535 71.9759 45.4868 72.0239 45.2095 72.1199C44.9428 72.2159 44.6868 72.3545 44.4415 72.5359C44.1962 72.7065 43.9882 72.9039 43.8175 73.1279C43.6468 73.3519 43.5348 73.5919 43.4815 73.8479V76.2319C43.6415 76.5945 43.8548 76.9252 44.1215 77.2239C44.3882 77.5225 44.6975 77.7625 45.0495 77.9439C45.4015 78.1145 45.7642 78.1999 46.1375 78.1999ZM55.7383 79.4159C55.1089 79.4159 54.5329 79.3039 54.0103 79.0799C53.4983 78.8452 53.0503 78.5305 52.6663 78.1359C52.2929 77.7305 51.9996 77.2665 51.7863 76.7439C51.5836 76.2212 51.4823 75.6665 51.4823 75.0799C51.4823 74.2905 51.6636 73.5705 52.0263 72.9199C52.3889 72.2692 52.8903 71.7465 53.5303 71.3519C54.1809 70.9572 54.9223 70.7599 55.7543 70.7599C56.5969 70.7599 57.3276 70.9625 57.9463 71.3679C58.5756 71.7625 59.0609 72.2852 59.4023 72.9359C59.7543 73.5759 59.9303 74.2692 59.9303 75.0159C59.9303 75.1225 59.9249 75.2292 59.9143 75.3359C59.9143 75.4319 59.9089 75.5065 59.8983 75.5599H52.9703C53.0129 76.1039 53.1623 76.5892 53.4183 77.0159C53.6849 77.4319 54.0263 77.7625 54.4423 78.0079C54.8583 78.2425 55.3063 78.3599 55.7863 78.3599C56.2983 78.3599 56.7783 78.2319 57.2263 77.9759C57.6849 77.7199 57.9996 77.3839 58.1703 76.9679L59.3863 77.3039C59.2049 77.7092 58.9329 78.0719 58.5703 78.3919C58.2183 78.7119 57.7969 78.9625 57.3063 79.1439C56.8263 79.3252 56.3036 79.4159 55.7383 79.4159ZM52.9223 74.5839H58.6183C58.5756 74.0399 58.4209 73.5599 58.1543 73.1439C57.8876 72.7279 57.5463 72.4025 57.1303 72.1679C56.7143 71.9332 56.2556 71.8159 55.7543 71.8159C55.2636 71.8159 54.8103 71.9332 54.3943 72.1679C53.9783 72.4025 53.6369 72.7279 53.3703 73.1439C53.1143 73.5599 52.9649 74.0399 52.9223 74.5839ZM61.4794 79.2559V70.9039H65.7994C66.3007 70.9039 66.7167 71.0052 67.0474 71.2079C67.378 71.3999 67.6234 71.6505 67.7834 71.9599C67.954 72.2692 68.0394 72.5999 68.0394 72.9519C68.0394 73.3999 67.9327 73.8052 67.7194 74.1679C67.506 74.5199 67.1967 74.7865 66.7914 74.9679C67.2714 75.1065 67.6607 75.3572 67.9594 75.7199C68.258 76.0719 68.4074 76.5092 68.4074 77.0319C68.4074 77.5012 68.2954 77.9012 68.0714 78.2319C67.8474 78.5625 67.5327 78.8185 67.1274 78.9999C66.722 79.1705 66.2527 79.2559 65.7194 79.2559H61.4794ZM62.8234 78.2639H65.6874C65.9434 78.2639 66.1727 78.1999 66.3754 78.0719C66.5887 77.9439 66.754 77.7732 66.8714 77.5599C66.9887 77.3465 67.0474 77.1225 67.0474 76.8879C67.0474 76.6319 66.9887 76.4025 66.8714 76.1999C66.7647 75.9865 66.61 75.8212 66.4074 75.7039C66.2154 75.5759 65.9914 75.5119 65.7354 75.5119H62.8234V78.2639ZM62.8234 74.5839H65.4314C65.6874 74.5839 65.9114 74.5199 66.1034 74.3919C66.2954 74.2532 66.4447 74.0772 66.5514 73.8639C66.658 73.6505 66.7114 73.4265 66.7114 73.1919C66.7114 72.8399 66.594 72.5359 66.3594 72.2799C66.1354 72.0239 65.842 71.8959 65.4794 71.8959H62.8234V74.5839ZM73.8945 79.4159C73.2652 79.4159 72.6892 79.3039 72.1665 79.0799C71.6545 78.8452 71.2065 78.5305 70.8225 78.1359C70.4492 77.7305 70.1558 77.2665 69.9425 76.7439C69.7398 76.2212 69.6385 75.6665 69.6385 75.0799C69.6385 74.2905 69.8198 73.5705 70.1825 72.9199C70.5452 72.2692 71.0465 71.7465 71.6865 71.3519C72.3372 70.9572 73.0785 70.7599 73.9105 70.7599C74.7532 70.7599 75.4838 70.9625 76.1025 71.3679C76.7318 71.7625 77.2172 72.2852 77.5585 72.9359C77.9105 73.5759 78.0865 74.2692 78.0865 75.0159C78.0865 75.1225 78.0812 75.2292 78.0705 75.3359C78.0705 75.4319 78.0652 75.5065 78.0545 75.5599H71.1265C71.1692 76.1039 71.3185 76.5892 71.5745 77.0159C71.8412 77.4319 72.1825 77.7625 72.5985 78.0079C73.0145 78.2425 73.4625 78.3599 73.9425 78.3599C74.4545 78.3599 74.9345 78.2319 75.3825 77.9759C75.8412 77.7199 76.1558 77.3839 76.3265 76.9679L77.5425 77.3039C77.3612 77.7092 77.0892 78.0719 76.7265 78.3919C76.3745 78.7119 75.9532 78.9625 75.4625 79.1439C74.9825 79.3252 74.4598 79.4159 73.8945 79.4159ZM71.0785 74.5839H76.7745C76.7318 74.0399 76.5772 73.5599 76.3105 73.1439C76.0438 72.7279 75.7025 72.4025 75.2865 72.1679C74.8705 71.9332 74.4118 71.8159 73.9105 71.8159C73.4198 71.8159 72.9665 71.9332 72.5505 72.1679C72.1345 72.4025 71.7932 72.7279 71.5265 73.1439C71.2705 73.5599 71.1212 74.0399 71.0785 74.5839ZM78.7236 81.2239V78.0079H78.8996C79.1343 78.0079 79.3476 77.9385 79.5396 77.7999C79.7423 77.6612 79.9183 77.4212 80.0676 77.0799C80.2276 76.7279 80.3556 76.2479 80.4516 75.6399C80.5476 75.0319 80.6116 74.2585 80.6436 73.3199L80.7236 70.9039H86.4036V78.0079H87.5396V81.2239H86.2916V79.2559H79.9716V81.2239H78.7236ZM80.8676 78.0079H84.9956V72.1519H81.9716L81.9236 73.4479C81.8916 74.3545 81.8276 75.1172 81.7316 75.7359C81.6463 76.3439 81.529 76.8292 81.3796 77.1919C81.241 77.5545 81.0703 77.8265 80.8676 78.0079ZM90.1448 82.7599C89.9634 82.7599 89.7768 82.7332 89.5848 82.6799C89.4034 82.6265 89.2168 82.5465 89.0247 82.4399L89.5048 81.4799C89.6008 81.5332 89.6914 81.5705 89.7768 81.5919C89.8728 81.6239 89.9634 81.6399 90.0488 81.6399C90.3048 81.6399 90.5448 81.5172 90.7688 81.2719C91.0034 81.0372 91.2221 80.6745 91.4248 80.1839L91.8248 79.1759L88.1608 70.9039H89.6488L92.4648 77.8319L95.0088 70.9039H96.4008L92.4968 80.6159C92.3048 81.0959 92.0861 81.4905 91.8408 81.7999C91.5954 82.1199 91.3288 82.3599 91.0408 82.5199C90.7528 82.6799 90.4541 82.7599 90.1448 82.7599ZM103.465 79.2559V72.1519H100.585V70.9039H107.753V72.1519H104.873V79.2559H103.465ZM109.151 79.2559V70.9039H113.471C113.973 70.9039 114.389 71.0052 114.719 71.2079C115.05 71.3999 115.295 71.6505 115.455 71.9599C115.626 72.2692 115.711 72.5999 115.711 72.9519C115.711 73.3999 115.605 73.8052 115.391 74.1679C115.178 74.5199 114.869 74.7865 114.463 74.9679C114.943 75.1065 115.333 75.3572 115.631 75.7199C115.93 76.0719 116.079 76.5092 116.079 77.0319C116.079 77.5012 115.967 77.9012 115.743 78.2319C115.519 78.5625 115.205 78.8185 114.799 78.9999C114.394 79.1705 113.925 79.2559 113.391 79.2559H109.151ZM110.495 78.2639H113.359C113.615 78.2639 113.845 78.1999 114.047 78.0719C114.261 77.9439 114.426 77.7732 114.543 77.5599C114.661 77.3465 114.719 77.1225 114.719 76.8879C114.719 76.6319 114.661 76.4025 114.543 76.1999C114.437 75.9865 114.282 75.8212 114.079 75.7039C113.887 75.5759 113.663 75.5119 113.407 75.5119H110.495V78.2639ZM110.495 74.5839H113.103C113.359 74.5839 113.583 74.5199 113.775 74.3919C113.967 74.2532 114.117 74.0772 114.223 73.8639C114.33 73.6505 114.383 73.4265 114.383 73.1919C114.383 72.8399 114.266 72.5359 114.031 72.2799C113.807 72.0239 113.514 71.8959 113.151 71.8959H110.495V74.5839ZM121.518 79.4159C120.889 79.4159 120.318 79.3039 119.806 79.0799C119.294 78.8452 118.852 78.5305 118.478 78.1359C118.105 77.7305 117.817 77.2665 117.614 76.7439C117.412 76.2212 117.31 75.6719 117.31 75.0959C117.31 74.5092 117.412 73.9545 117.614 73.4319C117.817 72.9092 118.105 72.4505 118.478 72.0559C118.852 71.6505 119.294 71.3359 119.806 71.1119C120.329 70.8772 120.9 70.7599 121.518 70.7599C122.148 70.7599 122.718 70.8772 123.23 71.1119C123.742 71.3359 124.185 71.6505 124.558 72.0559C124.942 72.4505 125.236 72.9092 125.438 73.4319C125.641 73.9545 125.742 74.5092 125.742 75.0959C125.742 75.6719 125.641 76.2212 125.438 76.7439C125.236 77.2665 124.948 77.7305 124.574 78.1359C124.201 78.5305 123.753 78.8452 123.23 79.0799C122.718 79.3039 122.148 79.4159 121.518 79.4159ZM118.75 75.1119C118.75 75.6879 118.873 76.2105 119.118 76.6799C119.374 77.1492 119.71 77.5225 120.126 77.7999C120.542 78.0665 121.006 78.1999 121.518 78.1999C122.03 78.1999 122.494 78.0612 122.91 77.7839C123.337 77.5065 123.673 77.1332 123.918 76.6639C124.174 76.1839 124.302 75.6559 124.302 75.0799C124.302 74.5039 124.174 73.9812 123.918 73.5119C123.673 73.0425 123.337 72.6692 122.91 72.3919C122.494 72.1145 122.03 71.9759 121.518 71.9759C121.006 71.9759 120.542 72.1199 120.126 72.4079C119.71 72.6852 119.374 73.0585 119.118 73.5279C118.873 73.9972 118.75 74.5252 118.75 75.1119ZM127.433 79.2559V70.9199H128.841V77.3679L133.513 70.9039H134.793V79.2559H133.385V72.9359L128.777 79.2559H127.433ZM143.121 79.2559V72.1519H140.241V70.9039H147.409V72.1519H144.529V79.2559H143.121ZM153.32 79.4159C152.637 79.4159 152.029 79.2452 151.496 78.9039C150.962 78.5625 150.541 78.1305 150.232 77.6079V82.6639H148.824V70.9039H150.072V72.4719C150.402 71.9599 150.834 71.5492 151.368 71.2399C151.901 70.9199 152.482 70.7599 153.112 70.7599C153.688 70.7599 154.216 70.8772 154.696 71.1119C155.176 71.3465 155.592 71.6665 155.944 72.0719C156.296 72.4772 156.568 72.9412 156.76 73.4639C156.962 73.9759 157.064 74.5145 157.064 75.0799C157.064 75.8692 156.904 76.5945 156.584 77.2559C156.274 77.9172 155.837 78.4452 155.272 78.8399C154.706 79.2239 154.056 79.4159 153.32 79.4159ZM152.888 78.1999C153.304 78.1999 153.677 78.1145 154.008 77.9439C154.349 77.7625 154.637 77.5279 154.872 77.2399C155.117 76.9412 155.304 76.6052 155.432 76.2319C155.56 75.8585 155.624 75.4745 155.624 75.0799C155.624 74.6639 155.549 74.2692 155.4 73.8959C155.261 73.5225 155.058 73.1919 154.792 72.9039C154.536 72.6159 154.232 72.3919 153.88 72.2319C153.538 72.0612 153.165 71.9759 152.76 71.9759C152.504 71.9759 152.237 72.0239 151.96 72.1199C151.693 72.2159 151.437 72.3545 151.192 72.5359C150.946 72.7065 150.738 72.9039 150.568 73.1279C150.397 73.3519 150.285 73.5919 150.232 73.8479V76.2319C150.392 76.5945 150.605 76.9252 150.872 77.2239C151.138 77.5225 151.448 77.7625 151.799 77.9439C152.152 78.1145 152.514 78.1999 152.888 78.1999ZM158.136 76.8399C158.136 76.3065 158.286 75.8479 158.584 75.4639C158.894 75.0692 159.315 74.7652 159.848 74.5519C160.382 74.3385 161 74.2319 161.704 74.2319C162.078 74.2319 162.472 74.2639 162.888 74.3279C163.304 74.3812 163.672 74.4665 163.992 74.5839V73.9759C163.992 73.3359 163.8 72.8345 163.416 72.4719C163.032 72.0985 162.488 71.9119 161.784 71.9119C161.326 71.9119 160.883 71.9972 160.456 72.1679C160.04 72.3279 159.598 72.5625 159.128 72.8719L158.616 71.8799C159.16 71.5065 159.704 71.2292 160.248 71.0479C160.792 70.8559 161.358 70.7599 161.944 70.7599C163.011 70.7599 163.854 71.0585 164.472 71.6559C165.091 72.2425 165.4 73.0639 165.4 74.1199V77.6559C165.4 77.8265 165.432 77.9545 165.496 78.0399C165.571 78.1145 165.688 78.1572 165.848 78.1679V79.2559C165.71 79.2772 165.587 79.2932 165.48 79.3039C165.384 79.3145 165.304 79.3199 165.24 79.3199C164.91 79.3199 164.659 79.2292 164.488 79.0479C164.328 78.8665 164.238 78.6745 164.216 78.4719L164.184 77.9439C163.822 78.4132 163.347 78.7759 162.76 79.0319C162.174 79.2879 161.592 79.4159 161.016 79.4159C160.462 79.4159 159.966 79.3039 159.528 79.0799C159.091 78.8452 158.75 78.5359 158.504 78.1519C158.259 77.7572 158.136 77.3199 158.136 76.8399ZM163.576 77.4319C163.704 77.2825 163.806 77.1332 163.88 76.9839C163.955 76.8239 163.992 76.6905 163.992 76.5839V75.5439C163.662 75.4159 163.315 75.3199 162.952 75.2559C162.59 75.1812 162.232 75.1439 161.88 75.1439C161.166 75.1439 160.584 75.2879 160.136 75.5759C159.699 75.8532 159.48 76.2372 159.48 76.7279C159.48 76.9945 159.55 77.2559 159.688 77.5119C159.838 77.7572 160.051 77.9599 160.328 78.1199C160.616 78.2799 160.968 78.3599 161.384 78.3599C161.822 78.3599 162.238 78.2745 162.632 78.1039C163.027 77.9225 163.342 77.6985 163.576 77.4319ZM169.59 79.2559V72.1519H166.71V70.9039H173.878V72.1519H170.998V79.2559H169.59ZM175.276 79.2559V70.9039H176.684V73.7519H178.38C179.362 73.7519 180.103 74.0025 180.604 74.5039C181.116 74.9945 181.372 75.6399 181.372 76.4399C181.372 76.9732 181.26 77.4532 181.036 77.8799C180.823 78.3065 180.503 78.6425 180.076 78.8879C179.65 79.1332 179.116 79.2559 178.476 79.2559H175.276ZM176.684 78.1519H178.284C178.679 78.1519 178.994 78.0772 179.228 77.9279C179.474 77.7679 179.655 77.5599 179.772 77.3039C179.89 77.0479 179.948 76.7705 179.948 76.4719C179.948 76.1839 179.895 75.9172 179.788 75.6719C179.682 75.4265 179.506 75.2292 179.26 75.0799C179.015 74.9305 178.679 74.8559 178.252 74.8559H176.684V78.1519ZM182.812 79.2559V70.9199H184.22V79.2559H182.812ZM190.526 79.2559V70.9039H194.846C195.348 70.9039 195.764 71.0052 196.094 71.2079C196.425 71.3999 196.67 71.6505 196.83 71.9599C197.001 72.2692 197.086 72.5999 197.086 72.9519C197.086 73.3999 196.98 73.8052 196.766 74.1679C196.553 74.5199 196.244 74.7865 195.838 74.9679C196.318 75.1065 196.708 75.3572 197.006 75.7199C197.305 76.0719 197.454 76.5092 197.454 77.0319C197.454 77.5012 197.342 77.9012 197.118 78.2319C196.894 78.5625 196.58 78.8185 196.174 78.9999C195.769 79.1705 195.3 79.2559 194.766 79.2559H190.526ZM191.87 78.2639H194.734C194.99 78.2639 195.22 78.1999 195.422 78.0719C195.636 77.9439 195.801 77.7732 195.918 77.5599C196.036 77.3465 196.094 77.1225 196.094 76.8879C196.094 76.6319 196.036 76.4025 195.918 76.1999C195.812 75.9865 195.657 75.8212 195.454 75.7039C195.262 75.5759 195.038 75.5119 194.782 75.5119H191.87V78.2639ZM191.87 74.5839H194.478C194.734 74.5839 194.958 74.5199 195.15 74.3919C195.342 74.2532 195.492 74.0772 195.598 73.8639C195.705 73.6505 195.758 73.4265 195.758 73.1919C195.758 72.8399 195.641 72.5359 195.406 72.2799C195.182 72.0239 194.889 71.8959 194.526 71.8959H191.87V74.5839ZM208.028 79.2559V75.9119C207.698 76.0719 207.351 76.1892 206.988 76.2639C206.636 76.3385 206.247 76.3759 205.82 76.3759C204.914 76.3759 204.22 76.1412 203.74 75.6719C203.271 75.1919 203.036 74.4772 203.036 73.5279V70.9039H204.444V73.3359C204.444 74.0079 204.583 74.4985 204.86 74.8079C205.138 75.1172 205.58 75.2719 206.188 75.2719C206.53 75.2719 206.866 75.2345 207.196 75.1599C207.538 75.0852 207.815 74.9839 208.028 74.8559V70.9039H209.452V79.2559H208.028ZM211.074 76.8399C211.074 76.3065 211.223 75.8479 211.522 75.4639C211.831 75.0692 212.252 74.7652 212.786 74.5519C213.319 74.3385 213.938 74.2319 214.642 74.2319C215.015 74.2319 215.41 74.2639 215.826 74.3279C216.242 74.3812 216.61 74.4665 216.93 74.5839V73.9759C216.93 73.3359 216.738 72.8345 216.354 72.4719C215.97 72.0985 215.426 71.9119 214.722 71.9119C214.263 71.9119 213.82 71.9972 213.394 72.1679C212.978 72.3279 212.535 72.5625 212.066 72.8719L211.554 71.8799C212.098 71.5065 212.642 71.2292 213.186 71.0479C213.73 70.8559 214.295 70.7599 214.882 70.7599C215.948 70.7599 216.791 71.0585 217.41 71.6559C218.028 72.2425 218.338 73.0639 218.338 74.1199V77.6559C218.338 77.8265 218.37 77.9545 218.434 78.0399C218.508 78.1145 218.626 78.1572 218.786 78.1679V79.2559C218.647 79.2772 218.524 79.2932 218.418 79.3039C218.322 79.3145 218.242 79.3199 218.178 79.3199C217.847 79.3199 217.596 79.2292 217.426 79.0479C217.266 78.8665 217.175 78.6745 217.154 78.4719L217.122 77.9439C216.759 78.4132 216.284 78.7759 215.698 79.0319C215.111 79.2879 214.53 79.4159 213.954 79.4159C213.399 79.4159 212.903 79.3039 212.466 79.0799C212.028 78.8452 211.687 78.5359 211.442 78.1519C211.196 77.7572 211.074 77.3199 211.074 76.8399ZM216.514 77.4319C216.642 77.2825 216.743 77.1332 216.818 76.9839C216.892 76.8239 216.93 76.6905 216.93 76.5839V75.5439C216.599 75.4159 216.252 75.3199 215.89 75.2559C215.527 75.1812 215.17 75.1439 214.818 75.1439C214.103 75.1439 213.522 75.2879 213.074 75.5759C212.636 75.8532 212.418 76.2372 212.418 76.7279C212.418 76.9945 212.487 77.2559 212.626 77.5119C212.775 77.7572 212.988 77.9599 213.266 78.1199C213.554 78.2799 213.906 78.3599 214.322 78.3599C214.759 78.3599 215.175 78.2745 215.57 78.1039C215.964 77.9225 216.279 77.6985 216.514 77.4319ZM224.285 79.4159C223.656 79.4159 223.08 79.3039 222.557 79.0799C222.045 78.8452 221.597 78.5252 221.213 78.1199C220.84 77.7145 220.546 77.2505 220.333 76.7279C220.13 76.2052 220.029 75.6505 220.029 75.0639C220.029 74.2745 220.205 73.5545 220.557 72.9039C220.909 72.2532 221.405 71.7359 222.045 71.3519C222.685 70.9572 223.426 70.7599 224.269 70.7599C225.09 70.7599 225.805 70.9465 226.413 71.3199C227.032 71.6825 227.49 72.1732 227.789 72.7919L226.413 73.2239C226.2 72.8292 225.901 72.5252 225.517 72.3119C225.133 72.0879 224.706 71.9759 224.237 71.9759C223.725 71.9759 223.256 72.1092 222.829 72.3759C222.413 72.6425 222.082 73.0105 221.837 73.4799C221.592 73.9385 221.469 74.4665 221.469 75.0639C221.469 75.6505 221.592 76.1839 221.837 76.6639C222.093 77.1332 222.429 77.5065 222.845 77.7839C223.272 78.0612 223.741 78.1999 224.253 78.1999C224.584 78.1999 224.898 78.1412 225.197 78.0239C225.506 77.9065 225.773 77.7519 225.997 77.5599C226.232 77.3572 226.392 77.1385 226.477 76.9039L227.853 77.3199C227.682 77.7252 227.421 78.0879 227.069 78.4079C226.728 78.7172 226.317 78.9625 225.837 79.1439C225.368 79.3252 224.85 79.4159 224.285 79.4159ZM229.433 79.2559V70.9039H230.841V73.7519H232.536C233.518 73.7519 234.259 74.0025 234.761 74.5039C235.273 74.9945 235.529 75.6399 235.529 76.4399C235.529 76.9732 235.417 77.4532 235.193 77.8799C234.979 78.3065 234.659 78.6425 234.233 78.8879C233.806 79.1332 233.273 79.2559 232.633 79.2559H229.433ZM230.841 78.1519H232.441C232.835 78.1519 233.15 78.0772 233.385 77.9279C233.63 77.7679 233.811 77.5599 233.929 77.3039C234.046 77.0479 234.105 76.7705 234.105 76.4719C234.105 76.1839 234.051 75.9172 233.945 75.6719C233.838 75.4265 233.662 75.2292 233.417 75.0799C233.171 74.9305 232.835 74.8559 232.409 74.8559H230.841V78.1519ZM236.969 79.2559V70.9199H238.377V79.2559H236.969ZM20.56 99.2559L23.632 94.9519L20.832 90.9039H22.416L24.816 94.3759H25.712V90.9039H27.152V94.3759H28.08L30.432 90.9039H32.032L29.232 94.9519L32.32 99.2559H30.704L28.08 95.6079H27.152V99.2559H25.712V95.6079H24.816L22.176 99.2559H20.56ZM33.995 99.2559V90.9199H35.403V97.3679L40.075 90.9039H41.355V99.2559H39.947V92.9359L35.339 99.2559H33.995ZM46.2128 99.3679C45.4021 99.3679 44.7141 99.2185 44.1488 98.9199C43.5941 98.6105 43.1674 98.1839 42.8688 97.6399L44.0208 97.1279C44.2128 97.4692 44.4848 97.7359 44.8368 97.9279C45.1994 98.1199 45.6368 98.2159 46.1488 98.2159C46.7568 98.2159 47.2368 98.0825 47.5888 97.8159C47.9408 97.5492 48.1168 97.1919 48.1168 96.7439C48.1168 96.3385 47.9728 96.0132 47.6848 95.7679C47.4074 95.5119 47.0128 95.3785 46.5008 95.3679H45.6528V94.4399H46.5488C46.7728 94.4399 46.9701 94.3865 47.1408 94.2799C47.3221 94.1625 47.4608 94.0079 47.5568 93.8159C47.6634 93.6239 47.7168 93.4105 47.7168 93.1759C47.7168 92.8025 47.5834 92.5039 47.3168 92.2799C47.0501 92.0452 46.6501 91.9279 46.1168 91.9279C45.6794 91.9279 45.3114 92.0132 45.0128 92.1839C44.7248 92.3545 44.4901 92.6105 44.3088 92.9519L43.2368 92.3759C43.5034 91.8745 43.8874 91.4852 44.3888 91.2079C44.9008 90.9199 45.4981 90.7759 46.1808 90.7759C46.7248 90.7759 47.2048 90.8665 47.6208 91.0479C48.0474 91.2185 48.3781 91.4692 48.6128 91.7999C48.8581 92.1305 48.9808 92.5305 48.9808 92.9999C48.9808 93.3945 48.8848 93.7625 48.6928 94.1039C48.5114 94.4345 48.2394 94.6852 47.8768 94.8559C48.3781 95.0052 48.7621 95.2665 49.0288 95.6399C49.2954 96.0025 49.4288 96.4345 49.4288 96.9359C49.4288 97.4479 49.2901 97.8852 49.0128 98.2479C48.7354 98.6105 48.3568 98.8879 47.8768 99.0799C47.3968 99.2719 46.8421 99.3679 46.2128 99.3679ZM51.1044 99.2559V90.9039H52.5124V94.3599H56.8644V90.9039H58.2724V99.2559H56.8644V95.6079H52.5124V99.2559H51.1044ZM60.5263 99.2559V90.9199H61.9343V97.3679L66.6063 90.9039H67.8863V99.2559H66.4783V92.9359L61.8703 99.2559H60.5263ZM70.184 100.552L70.504 99.1279H70.024V97.4639H71.352V99.1279L70.872 100.552H70.184ZM82.2939 99.2559V95.9119C81.9632 96.0719 81.6165 96.1892 81.2539 96.2639C80.9019 96.3385 80.5125 96.3759 80.0859 96.3759C79.1792 96.3759 78.4859 96.1412 78.0059 95.6719C77.5365 95.1919 77.3019 94.4772 77.3019 93.5279V90.9039H78.7099V93.3359C78.7099 94.0079 78.8485 94.4985 79.1259 94.8079C79.4032 95.1172 79.8459 95.2719 80.4539 95.2719C80.7952 95.2719 81.1312 95.2345 81.4619 95.1599C81.8032 95.0852 82.0805 94.9839 82.2939 94.8559V90.9039H83.7179V99.2559H82.2939ZM88.0274 99.2559V92.1519H85.1474V90.9039H92.3154V92.1519H89.4354V99.2559H88.0274ZM97.3778 99.4159C96.7484 99.4159 96.1778 99.3039 95.6658 99.0799C95.1538 98.8452 94.7111 98.5305 94.3378 98.1359C93.9644 97.7305 93.6764 97.2665 93.4738 96.7439C93.2711 96.2212 93.1698 95.6719 93.1698 95.0959C93.1698 94.5092 93.2711 93.9545 93.4738 93.4319C93.6764 92.9092 93.9644 92.4505 94.3378 92.0559C94.7111 91.6505 95.1538 91.3359 95.6658 91.1119C96.1884 90.8772 96.7591 90.7599 97.3778 90.7599C98.0071 90.7599 98.5778 90.8772 99.0898 91.1119C99.6018 91.3359 100.044 91.6505 100.418 92.0559C100.802 92.4505 101.095 92.9092 101.298 93.4319C101.5 93.9545 101.602 94.5092 101.602 95.0959C101.602 95.6719 101.5 96.2212 101.298 96.7439C101.095 97.2665 100.807 97.7305 100.434 98.1359C100.06 98.5305 99.6124 98.8452 99.0898 99.0799C98.5778 99.3039 98.0071 99.4159 97.3778 99.4159ZM94.6098 95.1119C94.6098 95.6879 94.7324 96.2105 94.9778 96.6799C95.2338 97.1492 95.5698 97.5225 95.9858 97.7999C96.4018 98.0665 96.8658 98.1999 97.3778 98.1999C97.8898 98.1999 98.3538 98.0612 98.7698 97.7839C99.1964 97.5065 99.5324 97.1332 99.7778 96.6639C100.034 96.1839 100.162 95.6559 100.162 95.0799C100.162 94.5039 100.034 93.9812 99.7778 93.5119C99.5324 93.0425 99.1964 92.6692 98.7698 92.3919C98.3538 92.1145 97.8898 91.9759 97.3778 91.9759C96.8658 91.9759 96.4018 92.1199 95.9858 92.4079C95.5698 92.6852 95.2338 93.0585 94.9778 93.5279C94.7324 93.9972 94.6098 94.5252 94.6098 95.1119ZM107.244 99.4159C105.868 99.4159 104.828 98.9999 104.124 98.1679C103.42 97.3359 103.068 96.1625 103.068 94.6479C103.068 93.6132 103.153 92.7439 103.324 92.0399C103.495 91.3252 103.751 90.7385 104.092 90.2799C104.433 89.8105 104.855 89.4319 105.356 89.1439C105.857 88.8452 106.433 88.5999 107.084 88.4079L110.62 87.3359L110.7 88.5519L107.26 89.5919C106.673 89.7839 106.183 90.0292 105.788 90.3279C105.393 90.6265 105.084 91.0105 104.86 91.4799C104.636 91.9492 104.487 92.5519 104.412 93.2879C104.689 92.7225 105.105 92.2852 105.66 91.9759C106.215 91.6559 106.86 91.4959 107.596 91.4959C108.385 91.4959 109.063 91.6612 109.628 91.9919C110.204 92.3119 110.641 92.7652 110.94 93.3519C111.249 93.9279 111.404 94.5945 111.404 95.3519C111.404 96.1625 111.244 96.8719 110.924 97.4799C110.604 98.0879 110.135 98.5625 109.516 98.9039C108.897 99.2452 108.14 99.4159 107.244 99.4159ZM107.244 98.1999C108.108 98.1999 108.775 97.9492 109.244 97.4479C109.724 96.9359 109.964 96.2585 109.964 95.4159C109.964 94.5945 109.729 93.9279 109.26 93.4159C108.791 92.9039 108.119 92.6479 107.244 92.6479C106.732 92.6479 106.268 92.7545 105.852 92.9679C105.447 93.1812 105.121 93.4959 104.876 93.9119C104.641 94.3172 104.524 94.8185 104.524 95.4159C104.524 95.9492 104.625 96.4292 104.828 96.8559C105.041 97.2719 105.351 97.6025 105.756 97.8479C106.161 98.0825 106.657 98.1999 107.244 98.1999ZM113.104 99.2559V90.9039H114.512V93.7519H116.208C117.19 93.7519 117.931 94.0025 118.432 94.5039C118.944 94.9945 119.2 95.6399 119.2 96.4399C119.2 96.9732 119.088 97.4532 118.864 97.8799C118.651 98.3065 118.331 98.6425 117.904 98.8879C117.478 99.1332 116.944 99.2559 116.304 99.2559H113.104ZM114.512 98.1519H116.112C116.507 98.1519 116.822 98.0772 117.056 97.9279C117.302 97.7679 117.483 97.5599 117.6 97.3039C117.718 97.0479 117.776 96.7705 117.776 96.4719C117.776 96.1839 117.723 95.9172 117.616 95.6719C117.51 95.4265 117.334 95.2292 117.088 95.0799C116.843 94.9305 116.507 94.8559 116.08 94.8559H114.512V98.1519ZM120.64 99.2559V90.9199H122.048V99.2559H120.64ZM128.354 99.2559V90.9039H135.282V99.2559H133.874V92.1519H129.762V99.2559H128.354ZM141.206 99.4159C140.577 99.4159 140.006 99.3039 139.494 99.0799C138.982 98.8452 138.539 98.5305 138.166 98.1359C137.793 97.7305 137.505 97.2665 137.302 96.7439C137.099 96.2212 136.998 95.6719 136.998 95.0959C136.998 94.5092 137.099 93.9545 137.302 93.4319C137.505 92.9092 137.793 92.4505 138.166 92.0559C138.539 91.6505 138.982 91.3359 139.494 91.1119C140.017 90.8772 140.587 90.7599 141.206 90.7599C141.835 90.7599 142.406 90.8772 142.918 91.1119C143.43 91.3359 143.873 91.6505 144.246 92.0559C144.63 92.4505 144.923 92.9092 145.126 93.4319C145.329 93.9545 145.43 94.5092 145.43 95.0959C145.43 95.6719 145.329 96.2212 145.126 96.7439C144.923 97.2665 144.635 97.7305 144.262 98.1359C143.889 98.5305 143.441 98.8452 142.918 99.0799C142.406 99.3039 141.835 99.4159 141.206 99.4159ZM138.438 95.1119C138.438 95.6879 138.561 96.2105 138.806 96.6799C139.062 97.1492 139.398 97.5225 139.814 97.7999C140.23 98.0665 140.694 98.1999 141.206 98.1999C141.718 98.1999 142.182 98.0612 142.598 97.7839C143.025 97.5065 143.361 97.1332 143.606 96.6639C143.862 96.1839 143.99 95.6559 143.99 95.0799C143.99 94.5039 143.862 93.9812 143.606 93.5119C143.361 93.0425 143.025 92.6692 142.598 92.3919C142.182 92.1145 141.718 91.9759 141.206 91.9759C140.694 91.9759 140.23 92.1199 139.814 92.4079C139.398 92.6852 139.062 93.0585 138.806 93.5279C138.561 93.9972 138.438 94.5252 138.438 95.1119ZM147.024 95.5279V94.2479H151.744V95.5279H147.024ZM153.886 99.2559V90.9039H155.294V94.3599H159.646V90.9039H161.054V99.2559H159.646V95.6079H155.294V99.2559H153.886ZM166.972 99.4159C166.342 99.4159 165.772 99.3039 165.26 99.0799C164.748 98.8452 164.305 98.5305 163.932 98.1359C163.558 97.7305 163.27 97.2665 163.068 96.7439C162.865 96.2212 162.764 95.6719 162.764 95.0959C162.764 94.5092 162.865 93.9545 163.068 93.4319C163.27 92.9092 163.558 92.4505 163.932 92.0559C164.305 91.6505 164.748 91.3359 165.26 91.1119C165.782 90.8772 166.353 90.7599 166.972 90.7599C167.601 90.7599 168.172 90.8772 168.684 91.1119C169.196 91.3359 169.638 91.6505 170.012 92.0559C170.396 92.4505 170.689 92.9092 170.892 93.4319C171.094 93.9545 171.196 94.5092 171.196 95.0959C171.196 95.6719 171.094 96.2212 170.892 96.7439C170.689 97.2665 170.401 97.7305 170.028 98.1359C169.654 98.5305 169.206 98.8452 168.684 99.0799C168.172 99.3039 167.601 99.4159 166.972 99.4159ZM164.204 95.1119C164.204 95.6879 164.326 96.2105 164.572 96.6799C164.828 97.1492 165.164 97.5225 165.58 97.7999C165.996 98.0665 166.46 98.1999 166.972 98.1999C167.484 98.1999 167.948 98.0612 168.364 97.7839C168.79 97.5065 169.126 97.1332 169.372 96.6639C169.628 96.1839 169.756 95.6559 169.756 95.0799C169.756 94.5039 169.628 93.9812 169.372 93.5119C169.126 93.0425 168.79 92.6692 168.364 92.3919C167.948 92.1145 167.484 91.9759 166.972 91.9759C166.46 91.9759 165.996 92.1199 165.58 92.4079C165.164 92.6852 164.828 93.0585 164.572 93.5279C164.326 93.9972 164.204 94.5252 164.204 95.1119ZM172.886 99.2559V90.9039H177.206C177.707 90.9039 178.123 91.0052 178.454 91.2079C178.784 91.3999 179.03 91.6505 179.19 91.9599C179.36 92.2692 179.446 92.5999 179.446 92.9519C179.446 93.3999 179.339 93.8052 179.126 94.1679C178.912 94.5199 178.603 94.7865 178.198 94.9679C178.678 95.1065 179.067 95.3572 179.366 95.7199C179.664 96.0719 179.814 96.5092 179.814 97.0319C179.814 97.5012 179.702 97.9012 179.478 98.2319C179.254 98.5625 178.939 98.8185 178.534 98.9999C178.128 99.1705 177.659 99.2559 177.126 99.2559H172.886ZM174.23 98.2639H177.094C177.35 98.2639 177.579 98.1999 177.782 98.0719C177.995 97.9439 178.16 97.7732 178.278 97.5599C178.395 97.3465 178.454 97.1225 178.454 96.8879C178.454 96.6319 178.395 96.4025 178.278 96.1999C178.171 95.9865 178.016 95.8212 177.814 95.7039C177.622 95.5759 177.398 95.5119 177.142 95.5119H174.23V98.2639ZM174.23 94.5839H176.838C177.094 94.5839 177.318 94.5199 177.51 94.3919C177.702 94.2532 177.851 94.0772 177.958 93.8639C178.064 93.6505 178.118 93.4265 178.118 93.1919C178.118 92.8399 178 92.5359 177.766 92.2799C177.542 92.0239 177.248 91.8959 176.886 91.8959H174.23V94.5839ZM185.253 99.4159C184.623 99.4159 184.053 99.3039 183.541 99.0799C183.029 98.8452 182.586 98.5305 182.213 98.1359C181.839 97.7305 181.551 97.2665 181.349 96.7439C181.146 96.2212 181.045 95.6719 181.045 95.0959C181.045 94.5092 181.146 93.9545 181.349 93.4319C181.551 92.9092 181.839 92.4505 182.213 92.0559C182.586 91.6505 183.029 91.3359 183.541 91.1119C184.063 90.8772 184.634 90.7599 185.253 90.7599C185.882 90.7599 186.453 90.8772 186.965 91.1119C187.477 91.3359 187.919 91.6505 188.293 92.0559C188.677 92.4505 188.97 92.9092 189.173 93.4319C189.375 93.9545 189.477 94.5092 189.477 95.0959C189.477 95.6719 189.375 96.2212 189.173 96.7439C188.97 97.2665 188.682 97.7305 188.309 98.1359C187.935 98.5305 187.487 98.8452 186.965 99.0799C186.453 99.3039 185.882 99.4159 185.253 99.4159ZM182.485 95.1119C182.485 95.6879 182.607 96.2105 182.853 96.6799C183.109 97.1492 183.445 97.5225 183.861 97.7999C184.277 98.0665 184.741 98.1999 185.253 98.1999C185.765 98.1999 186.229 98.0612 186.645 97.7839C187.071 97.5065 187.407 97.1332 187.653 96.6639C187.909 96.1839 188.037 95.6559 188.037 95.0799C188.037 94.5039 187.909 93.9812 187.653 93.5119C187.407 93.0425 187.071 92.6692 186.645 92.3919C186.229 92.1145 185.765 91.9759 185.253 91.9759C184.741 91.9759 184.277 92.1199 183.861 92.4079C183.445 92.6852 183.109 93.0585 182.853 93.5279C182.607 93.9972 182.485 94.5252 182.485 95.1119ZM191.167 99.2559V90.9039H192.623L195.727 96.3759L198.847 90.9039H200.271V99.2559H198.927V92.9359L196.175 97.7679H195.279L192.511 92.9359V99.2559H191.167ZM203.582 102.76C203.401 102.76 203.214 102.733 203.022 102.68C202.841 102.627 202.654 102.547 202.462 102.44L202.942 101.48C203.038 101.533 203.129 101.571 203.214 101.592C203.31 101.624 203.401 101.64 203.486 101.64C203.742 101.64 203.982 101.517 204.206 101.272C204.441 101.037 204.66 100.675 204.862 100.184L205.262 99.1759L201.598 90.9039H203.086L205.902 97.8319L208.446 90.9039H209.838L205.934 100.616C205.742 101.096 205.524 101.491 205.278 101.8C205.033 102.12 204.766 102.36 204.478 102.52C204.19 102.68 203.892 102.76 203.582 102.76ZM21.12 119.256V110.904H28.048V119.256H26.64V112.152H22.528V119.256H21.12ZM33.9715 119.416C33.3422 119.416 32.7715 119.304 32.2595 119.08C31.7475 118.845 31.3048 118.531 30.9315 118.136C30.5582 117.731 30.2702 117.267 30.0675 116.744C29.8648 116.221 29.7635 115.672 29.7635 115.096C29.7635 114.509 29.8648 113.955 30.0675 113.432C30.2702 112.909 30.5582 112.451 30.9315 112.056C31.3048 111.651 31.7475 111.336 32.2595 111.112C32.7822 110.877 33.3528 110.76 33.9715 110.76C34.6008 110.76 35.1715 110.877 35.6835 111.112C36.1955 111.336 36.6382 111.651 37.0115 112.056C37.3955 112.451 37.6888 112.909 37.8915 113.432C38.0942 113.955 38.1955 114.509 38.1955 115.096C38.1955 115.672 38.0942 116.221 37.8915 116.744C37.6888 117.267 37.4008 117.731 37.0275 118.136C36.6542 118.531 36.2062 118.845 35.6835 119.08C35.1715 119.304 34.6008 119.416 33.9715 119.416ZM31.2035 115.112C31.2035 115.688 31.3262 116.211 31.5715 116.68C31.8275 117.149 32.1635 117.523 32.5795 117.8C32.9955 118.067 33.4595 118.2 33.9715 118.2C34.4835 118.2 34.9475 118.061 35.3635 117.784C35.7902 117.507 36.1262 117.133 36.3715 116.664C36.6275 116.184 36.7555 115.656 36.7555 115.08C36.7555 114.504 36.6275 113.981 36.3715 113.512C36.1262 113.043 35.7902 112.669 35.3635 112.392C34.9475 112.115 34.4835 111.976 33.9715 111.976C33.4595 111.976 32.9955 112.12 32.5795 112.408C32.1635 112.685 31.8275 113.059 31.5715 113.528C31.3262 113.997 31.2035 114.525 31.2035 115.112ZM43.5976 119.416C42.9683 119.416 42.3923 119.304 41.8696 119.08C41.3576 118.845 40.9096 118.525 40.5256 118.12C40.1523 117.715 39.859 117.251 39.6456 116.728C39.443 116.205 39.3416 115.651 39.3416 115.064C39.3416 114.275 39.5176 113.555 39.8696 112.904C40.2216 112.253 40.7176 111.736 41.3576 111.352C41.9976 110.957 42.739 110.76 43.5816 110.76C44.403 110.76 45.1176 110.947 45.7256 111.32C46.3443 111.683 46.803 112.173 47.1016 112.792L45.7256 113.224C45.5123 112.829 45.2136 112.525 44.8296 112.312C44.4456 112.088 44.019 111.976 43.5496 111.976C43.0376 111.976 42.5683 112.109 42.1416 112.376C41.7256 112.643 41.395 113.011 41.1496 113.48C40.9043 113.939 40.7816 114.467 40.7816 115.064C40.7816 115.651 40.9043 116.184 41.1496 116.664C41.4056 117.133 41.7416 117.507 42.1576 117.784C42.5843 118.061 43.0536 118.2 43.5656 118.2C43.8963 118.2 44.211 118.141 44.5096 118.024C44.819 117.907 45.0856 117.752 45.3096 117.56C45.5443 117.357 45.7043 117.139 45.7896 116.904L47.1656 117.32C46.995 117.725 46.7336 118.088 46.3816 118.408C46.0403 118.717 45.6296 118.963 45.1496 119.144C44.6803 119.325 44.163 119.416 43.5976 119.416ZM48.745 119.256V110.904H50.201L53.305 116.376L56.425 110.904H57.849V119.256H56.505V112.936L53.753 117.768H52.857L50.089 112.936V119.256H48.745ZM63.7684 119.416C63.139 119.416 62.5684 119.304 62.0564 119.08C61.5444 118.845 61.1017 118.531 60.7284 118.136C60.355 117.731 60.067 117.267 59.8644 116.744C59.6617 116.221 59.5604 115.672 59.5604 115.096C59.5604 114.509 59.6617 113.955 59.8644 113.432C60.067 112.909 60.355 112.451 60.7284 112.056C61.1017 111.651 61.5444 111.336 62.0564 111.112C62.579 110.877 63.1497 110.76 63.7684 110.76C64.3977 110.76 64.9684 110.877 65.4804 111.112C65.9924 111.336 66.435 111.651 66.8084 112.056C67.1924 112.451 67.4857 112.909 67.6884 113.432C67.891 113.955 67.9924 114.509 67.9924 115.096C67.9924 115.672 67.891 116.221 67.6884 116.744C67.4857 117.267 67.1977 117.731 66.8244 118.136C66.451 118.531 66.003 118.845 65.4804 119.08C64.9684 119.304 64.3977 119.416 63.7684 119.416ZM61.0004 115.112C61.0004 115.688 61.123 116.211 61.3684 116.68C61.6244 117.149 61.9604 117.523 62.3764 117.8C62.7924 118.067 63.2564 118.2 63.7684 118.2C64.2804 118.2 64.7444 118.061 65.1604 117.784C65.587 117.507 65.923 117.133 66.1684 116.664C66.4244 116.184 66.5524 115.656 66.5524 115.08C66.5524 114.504 66.4244 113.981 66.1684 113.512C65.923 113.043 65.587 112.669 65.1604 112.392C64.7444 112.115 64.2804 111.976 63.7684 111.976C63.2564 111.976 62.7924 112.12 62.3764 112.408C61.9604 112.685 61.6244 113.059 61.3684 113.528C61.123 113.997 61.0004 114.525 61.0004 115.112ZM71.7305 119.256V112.152H68.8505V110.904H76.0185V112.152H73.1385V119.256H71.7305ZM81.9289 119.416C81.2462 119.416 80.6382 119.245 80.1049 118.904C79.5715 118.563 79.1502 118.131 78.8409 117.608V122.664H77.4329V110.904H78.6809V112.472C79.0115 111.96 79.4435 111.549 79.9769 111.24C80.5102 110.92 81.0915 110.76 81.7209 110.76C82.2969 110.76 82.8249 110.877 83.3049 111.112C83.7849 111.347 84.2009 111.667 84.5529 112.072C84.9049 112.477 85.1769 112.941 85.3689 113.464C85.5715 113.976 85.6729 114.515 85.6729 115.08C85.6729 115.869 85.5129 116.595 85.1929 117.256C84.8835 117.917 84.4462 118.445 83.8809 118.84C83.3155 119.224 82.6649 119.416 81.9289 119.416ZM81.4969 118.2C81.9129 118.2 82.2862 118.115 82.6169 117.944C82.9582 117.763 83.2462 117.528 83.4809 117.24C83.7262 116.941 83.9129 116.605 84.0409 116.232C84.1689 115.859 84.2329 115.475 84.2329 115.08C84.2329 114.664 84.1582 114.269 84.0089 113.896C83.8702 113.523 83.6675 113.192 83.4009 112.904C83.1449 112.616 82.8409 112.392 82.4889 112.232C82.1475 112.061 81.7742 111.976 81.3689 111.976C81.1129 111.976 80.8462 112.024 80.5689 112.12C80.3022 112.216 80.0462 112.355 79.8009 112.536C79.5555 112.707 79.3475 112.904 79.1769 113.128C79.0062 113.352 78.8942 113.592 78.8409 113.848V116.232C79.0009 116.595 79.2142 116.925 79.4809 117.224C79.7475 117.523 80.0569 117.763 80.4089 117.944C80.7609 118.115 81.1235 118.2 81.4969 118.2ZM91.0976 119.416C90.4683 119.416 89.8923 119.304 89.3696 119.08C88.8576 118.845 88.4096 118.531 88.0256 118.136C87.6523 117.731 87.359 117.267 87.1456 116.744C86.943 116.221 86.8416 115.667 86.8416 115.08C86.8416 114.291 87.023 113.571 87.3856 112.92C87.7483 112.269 88.2496 111.747 88.8896 111.352C89.5403 110.957 90.2816 110.76 91.1136 110.76C91.9563 110.76 92.687 110.963 93.3056 111.368C93.935 111.763 94.4203 112.285 94.7616 112.936C95.1136 113.576 95.2896 114.269 95.2896 115.016C95.2896 115.123 95.2843 115.229 95.2736 115.336C95.2736 115.432 95.2683 115.507 95.2576 115.56H88.3296C88.3723 116.104 88.5216 116.589 88.7776 117.016C89.0443 117.432 89.3856 117.763 89.8016 118.008C90.2176 118.243 90.6656 118.36 91.1456 118.36C91.6576 118.36 92.1376 118.232 92.5856 117.976C93.0443 117.72 93.359 117.384 93.5296 116.968L94.7456 117.304C94.5643 117.709 94.2923 118.072 93.9296 118.392C93.5776 118.712 93.1563 118.963 92.6656 119.144C92.1856 119.325 91.663 119.416 91.0976 119.416ZM88.2816 114.584H93.9776C93.935 114.04 93.7803 113.56 93.5136 113.144C93.247 112.728 92.9056 112.403 92.4896 112.168C92.0736 111.933 91.615 111.816 91.1136 111.816C90.623 111.816 90.1696 111.933 89.7536 112.168C89.3376 112.403 88.9963 112.728 88.7296 113.144C88.4736 113.56 88.3243 114.04 88.2816 114.584ZM98.8868 119.256V112.152H96.0068V110.904H103.175V112.152H100.295V119.256H98.8868ZM104.573 119.256V110.904H105.981V113.752H108.061C109.042 113.752 109.784 114.003 110.285 114.504C110.797 114.995 111.053 115.64 111.053 116.44C111.053 116.973 110.941 117.453 110.717 117.88C110.504 118.307 110.184 118.643 109.757 118.888C109.33 119.133 108.797 119.256 108.157 119.256H104.573ZM105.981 118.152H107.965C108.36 118.152 108.674 118.077 108.909 117.928C109.154 117.768 109.336 117.56 109.453 117.304C109.57 117.048 109.629 116.771 109.629 116.472C109.629 116.184 109.576 115.917 109.469 115.672C109.362 115.427 109.186 115.229 108.941 115.08C108.696 114.931 108.36 114.856 107.933 114.856H105.981V118.152ZM116.62 119.256V110.904H118.028V114.36H122.38V110.904H123.788V119.256H122.38V115.608H118.028V119.256H116.62ZM125.402 116.84C125.402 116.307 125.551 115.848 125.85 115.464C126.159 115.069 126.581 114.765 127.114 114.552C127.647 114.339 128.266 114.232 128.97 114.232C129.343 114.232 129.738 114.264 130.154 114.328C130.57 114.381 130.938 114.467 131.258 114.584V113.976C131.258 113.336 131.066 112.835 130.682 112.472C130.298 112.099 129.754 111.912 129.05 111.912C128.591 111.912 128.149 111.997 127.722 112.168C127.306 112.328 126.863 112.563 126.394 112.872L125.882 111.88C126.426 111.507 126.97 111.229 127.514 111.048C128.058 110.856 128.623 110.76 129.21 110.76C130.277 110.76 131.119 111.059 131.738 111.656C132.357 112.243 132.666 113.064 132.666 114.12V117.656C132.666 117.827 132.698 117.955 132.762 118.04C132.837 118.115 132.954 118.157 133.114 118.168V119.256C132.975 119.277 132.853 119.293 132.746 119.304C132.65 119.315 132.57 119.32 132.506 119.32C132.175 119.32 131.925 119.229 131.754 119.048C131.594 118.867 131.503 118.675 131.482 118.472L131.45 117.944C131.087 118.413 130.613 118.776 130.026 119.032C129.439 119.288 128.858 119.416 128.282 119.416C127.727 119.416 127.231 119.304 126.794 119.08C126.357 118.845 126.015 118.536 125.77 118.152C125.525 117.757 125.402 117.32 125.402 116.84ZM130.842 117.432C130.97 117.283 131.071 117.133 131.146 116.984C131.221 116.824 131.258 116.691 131.258 116.584V115.544C130.927 115.416 130.581 115.32 130.218 115.256C129.855 115.181 129.498 115.144 129.146 115.144C128.431 115.144 127.85 115.288 127.402 115.576C126.965 115.853 126.746 116.237 126.746 116.728C126.746 116.995 126.815 117.256 126.954 117.512C127.103 117.757 127.317 117.96 127.594 118.12C127.882 118.28 128.234 118.36 128.65 118.36C129.087 118.36 129.503 118.275 129.898 118.104C130.293 117.923 130.607 117.699 130.842 117.432ZM138.948 119.256V110.904H140.356V114.344H141.284L143.908 110.904H145.508L142.388 114.952L145.876 119.256H144.244L141.284 115.64H140.356V119.256H138.948ZM146.605 116.84C146.605 116.307 146.754 115.848 147.053 115.464C147.362 115.069 147.784 114.765 148.317 114.552C148.85 114.339 149.469 114.232 150.173 114.232C150.546 114.232 150.941 114.264 151.357 114.328C151.773 114.381 152.141 114.467 152.461 114.584V113.976C152.461 113.336 152.269 112.835 151.885 112.472C151.501 112.099 150.957 111.912 150.253 111.912C149.794 111.912 149.352 111.997 148.925 112.168C148.509 112.328 148.066 112.563 147.597 112.872L147.085 111.88C147.629 111.507 148.173 111.229 148.717 111.048C149.261 110.856 149.826 110.76 150.413 110.76C151.48 110.76 152.322 111.059 152.941 111.656C153.56 112.243 153.869 113.064 153.869 114.12V117.656C153.869 117.827 153.901 117.955 153.965 118.04C154.04 118.115 154.157 118.157 154.317 118.168V119.256C154.178 119.277 154.056 119.293 153.949 119.304C153.853 119.315 153.773 119.32 153.709 119.32C153.378 119.32 153.128 119.229 152.957 119.048C152.797 118.867 152.706 118.675 152.685 118.472L152.653 117.944C152.29 118.413 151.816 118.776 151.229 119.032C150.642 119.288 150.061 119.416 149.485 119.416C148.93 119.416 148.434 119.304 147.997 119.08C147.56 118.845 147.218 118.536 146.973 118.152C146.728 117.757 146.605 117.32 146.605 116.84ZM152.045 117.432C152.173 117.283 152.274 117.133 152.349 116.984C152.424 116.824 152.461 116.691 152.461 116.584V115.544C152.13 115.416 151.784 115.32 151.421 115.256C151.058 115.181 150.701 115.144 150.349 115.144C149.634 115.144 149.053 115.288 148.605 115.576C148.168 115.853 147.949 116.237 147.949 116.728C147.949 116.995 148.018 117.256 148.157 117.512C148.306 117.757 148.52 117.96 148.797 118.12C149.085 118.28 149.437 118.36 149.853 118.36C150.29 118.36 150.706 118.275 151.101 118.104C151.496 117.923 151.81 117.699 152.045 117.432ZM155.544 119.256L158.616 114.952L155.816 110.904H157.4L159.8 114.376H160.696V110.904H162.136V114.376H163.064L165.416 110.904H167.016L164.216 114.952L167.304 119.256H165.688L163.064 115.608H162.136V119.256H160.696V115.608H159.8L157.16 119.256H155.544ZM168.067 121.224V118.008H168.243C168.478 118.008 168.691 117.939 168.883 117.8C169.086 117.661 169.262 117.421 169.411 117.08C169.571 116.728 169.699 116.248 169.795 115.64C169.891 115.032 169.955 114.259 169.987 113.32L170.067 110.904H175.747V118.008H176.883V121.224H175.635V119.256H169.315V121.224H168.067ZM170.211 118.008H174.339V112.152H171.315L171.267 113.448C171.235 114.355 171.171 115.117 171.075 115.736C170.99 116.344 170.873 116.829 170.723 117.192C170.585 117.555 170.414 117.827 170.211 118.008ZM179.489 122.76C179.307 122.76 179.121 122.733 178.929 122.68C178.747 122.627 178.561 122.547 178.368 122.44L178.849 121.48C178.945 121.533 179.035 121.571 179.121 121.592C179.217 121.624 179.307 121.64 179.393 121.64C179.649 121.64 179.889 121.517 180.113 121.272C180.347 121.037 180.566 120.675 180.769 120.184L181.169 119.176L177.505 110.904H178.993L181.809 117.832L184.353 110.904H185.745L181.841 120.616C181.649 121.096 181.43 121.491 181.185 121.8C180.939 122.12 180.673 122.36 180.385 122.52C180.097 122.68 179.798 122.76 179.489 122.76ZM194.063 119.416C193.327 119.416 192.677 119.256 192.111 118.936C191.546 118.616 191.093 118.179 190.751 117.624C190.41 117.059 190.202 116.419 190.127 115.704H188.575V119.256H187.167V110.904H188.575V114.472H190.127C190.213 113.736 190.426 113.091 190.767 112.536C191.119 111.971 191.578 111.533 192.143 111.224C192.709 110.915 193.349 110.76 194.063 110.76C194.906 110.76 195.631 110.957 196.239 111.352C196.847 111.736 197.317 112.253 197.647 112.904C197.978 113.555 198.143 114.285 198.143 115.096C198.143 115.928 197.973 116.669 197.631 117.32C197.301 117.971 196.826 118.483 196.207 118.856C195.599 119.229 194.885 119.416 194.063 119.416ZM194.063 118.2C194.586 118.2 195.045 118.067 195.439 117.8C195.834 117.533 196.143 117.171 196.367 116.712C196.591 116.243 196.703 115.704 196.703 115.096C196.703 114.456 196.586 113.907 196.351 113.448C196.127 112.979 195.813 112.616 195.407 112.36C195.013 112.104 194.565 111.976 194.063 111.976C193.562 111.976 193.114 112.109 192.719 112.376C192.335 112.632 192.037 112.995 191.823 113.464C191.61 113.933 191.503 114.477 191.503 115.096C191.503 115.725 191.61 116.275 191.823 116.744C192.047 117.213 192.351 117.576 192.735 117.832C193.13 118.077 193.573 118.2 194.063 118.2ZM203.886 119.256V110.904H210.814V119.256H209.406V112.152H205.294V119.256H203.886ZM216.737 119.416C216.108 119.416 215.537 119.304 215.025 119.08C214.513 118.845 214.07 118.531 213.697 118.136C213.324 117.731 213.036 117.267 212.833 116.744C212.63 116.221 212.529 115.672 212.529 115.096C212.529 114.509 212.63 113.955 212.833 113.432C213.036 112.909 213.324 112.451 213.697 112.056C214.07 111.651 214.513 111.336 215.025 111.112C215.548 110.877 216.118 110.76 216.737 110.76C217.366 110.76 217.937 110.877 218.449 111.112C218.961 111.336 219.404 111.651 219.777 112.056C220.161 112.451 220.454 112.909 220.657 113.432C220.86 113.955 220.961 114.509 220.961 115.096C220.961 115.672 220.86 116.221 220.657 116.744C220.454 117.267 220.166 117.731 219.793 118.136C219.42 118.531 218.972 118.845 218.449 119.08C217.937 119.304 217.366 119.416 216.737 119.416ZM213.969 115.112C213.969 115.688 214.092 116.211 214.337 116.68C214.593 117.149 214.929 117.523 215.345 117.8C215.761 118.067 216.225 118.2 216.737 118.2C217.249 118.2 217.713 118.061 218.129 117.784C218.556 117.507 218.892 117.133 219.137 116.664C219.393 116.184 219.521 115.656 219.521 115.08C219.521 114.504 219.393 113.981 219.137 113.512C218.892 113.043 218.556 112.669 218.129 112.392C217.713 112.115 217.249 111.976 216.737 111.976C216.225 111.976 215.761 112.12 215.345 112.408C214.929 112.685 214.593 113.059 214.337 113.528C214.092 113.997 213.969 114.525 213.969 115.112ZM222.651 119.256V110.904H224.059V114.344H224.987L227.611 110.904H229.211L226.091 114.952L229.579 119.256H227.947L224.987 115.64H224.059V119.256H222.651ZM232.004 122.76C231.823 122.76 231.636 122.733 231.444 122.68C231.263 122.627 231.076 122.547 230.884 122.44L231.364 121.48C231.46 121.533 231.551 121.571 231.636 121.592C231.732 121.624 231.823 121.64 231.908 121.64C232.164 121.64 232.404 121.517 232.628 121.272C232.863 121.037 233.081 120.675 233.284 120.184L233.684 119.176L230.02 110.904H231.508L234.324 117.832L236.868 110.904H238.26L234.356 120.616C234.164 121.096 233.945 121.491 233.7 121.8C233.455 122.12 233.188 122.36 232.9 122.52C232.612 122.68 232.313 122.76 232.004 122.76ZM239.667 119.256V110.904H246.595V119.256H245.187V112.152H241.075V119.256H239.667ZM248.854 119.256V110.904H250.262V114.344H251.19L253.814 110.904H255.414L252.294 114.952L255.782 119.256H254.15L251.19 115.64H250.262V119.256H248.854ZM258.207 122.76C258.026 122.76 257.839 122.733 257.647 122.68C257.466 122.627 257.279 122.547 257.087 122.44L257.567 121.48C257.663 121.533 257.754 121.571 257.839 121.592C257.935 121.624 258.026 121.64 258.111 121.64C258.367 121.64 258.607 121.517 258.831 121.272C259.066 121.037 259.285 120.675 259.487 120.184L259.887 119.176L256.223 110.904H257.711L260.527 117.832L263.071 110.904H264.463L260.559 120.616C260.367 121.096 260.149 121.491 259.903 121.8C259.658 122.12 259.391 122.36 259.103 122.52C258.815 122.68 258.517 122.76 258.207 122.76Z" fill="#32343A"/>
<path d="M288.153 10.9795C291.531 10.5049 294.925 9.96386 298.347 9.41979L316.243 6.47911L316.263 6.4758C320.839 5.74786 325.609 4.93163 330.274 4.2288C331.699 4.01401 333.956 3.85601 335.884 4.20753L336.265 4.2847L336.266 4.28551C336.428 4.32195 337.346 4.50218 337.877 4.6402C338.548 4.81491 339.514 5.1196 340.453 5.74625L341.002 6.12428C343.748 8.06636 346.372 10.8134 347.126 15.1161L347.126 15.1171C347.412 16.7501 347.511 18.4726 347.006 20.4705L346.494 22.5009L346.079 22.6559C345.341 24.4537 344.283 25.9697 342.887 27.2557C345.077 33.1731 344.778 40.6177 343.358 47.1897C341.675 54.9756 338.115 62.984 333.308 67.6682C333.227 67.8131 333.123 67.9998 332.999 68.2313C332.568 69.0337 332.292 69.5715 331.732 70.6158C331.269 71.4799 330.76 72.4122 330.308 73.1616C330.088 73.5276 329.835 73.929 329.575 74.2811C329.501 74.3826 329.404 74.5062 329.292 74.6403C328.767 75.807 328.777 76.5669 328.885 77.0878C329.028 77.7752 329.465 78.6154 330.46 79.7096C331.469 80.8199 332.793 81.918 334.413 83.2204C335.862 84.3852 337.578 85.7393 339.086 87.2109C339.123 87.2382 339.163 87.2683 339.207 87.301C339.433 87.4704 339.752 87.7131 340.142 88.0226C340.922 88.6405 341.998 89.5311 343.207 90.6378C345.539 92.7729 348.509 95.8476 350.767 99.4419C354.141 103.634 356.56 109.261 357.377 113.731C357.513 114.131 357.613 114.51 357.679 114.789C357.789 115.251 357.887 115.742 357.965 116.139C358.05 116.574 358.111 116.889 358.169 117.138C358.171 117.148 358.173 117.157 358.175 117.165L358.5 117.77L358.5 118.775C358.5 118.778 358.503 118.873 358.525 119.102C358.546 119.32 358.578 119.593 358.621 119.92C358.71 120.59 358.822 121.339 358.941 122.174C359.055 122.97 359.173 123.833 359.247 124.592C359.303 125.17 359.405 126.261 359.235 127.199C359.063 128.144 358.865 128.999 358.596 129.827C358.633 129.857 358.664 129.882 358.682 129.897C358.707 129.918 358.731 129.938 358.752 129.956C358.793 129.991 358.837 130.03 358.879 130.067C358.963 130.14 359.063 130.228 359.152 130.306C359.159 130.312 359.166 130.318 359.172 130.324C360.245 130.989 360.875 131.924 361.181 132.435C361.653 133.224 361.984 134.08 362.209 134.815C362.439 135.566 362.608 136.353 362.695 137.078C362.739 137.44 362.769 137.844 362.762 138.257C362.759 138.439 362.747 138.704 362.703 139.017L362.703 139.481L362.702 139.818L362.646 140.152L362.541 140.772C362.417 142.089 361.879 143.201 361.405 143.973C360.854 144.87 360.162 145.674 359.478 146.342C358.789 147.015 358.018 147.634 357.238 148.131C356.832 148.389 356.324 148.676 355.748 148.916L355.642 149.017L354.792 149.29C354.218 149.475 353.58 149.617 352.961 149.731L352.964 149.744C352.747 149.84 352.568 149.895 352.517 149.91C352.44 149.934 352.376 149.952 352.338 149.961C352.262 149.981 352.197 149.996 352.16 150.004C352.083 150.022 352.004 150.038 351.941 150.05C351.81 150.076 351.642 150.106 351.458 150.139C351.084 150.206 350.573 150.296 349.977 150.398C348.782 150.602 347.211 150.864 345.642 151.122C344.073 151.381 342.499 151.637 341.3 151.828C340.702 151.923 340.188 152.002 339.811 152.059C339.625 152.086 339.457 152.111 339.324 152.129C339.261 152.138 339.182 152.148 339.104 152.157C339.076 152.16 339.033 152.163 338.981 152.168C338.079 152.38 336.306 152.631 335.878 152.697C334.82 152.859 332.437 153.35 330.714 153.483C330.612 153.514 330.528 153.538 330.467 153.554C330.19 153.627 329.902 153.688 329.642 153.738C329.117 153.839 328.517 153.931 327.963 154.011C326.697 154.192 325.834 154.29 325.414 154.363L325.39 154.367L305.426 157.693L305.421 157.694C299.653 158.648 294.248 159.61 288.244 160.267L285.967 160.516L285.621 160.052C282.591 159.715 279.815 158.191 277.908 155.807L277.908 155.806C277.592 155.411 277.366 155.014 277.232 154.765C277.085 154.491 276.955 154.216 276.86 154.013C276.748 153.771 276.69 153.643 276.618 153.494C276.547 153.347 276.535 153.334 276.565 153.383L276.565 153.382C275.965 152.414 275.756 151.355 275.665 150.697C275.559 149.93 275.539 149.119 275.59 148.352C275.64 147.594 275.767 146.741 276.026 145.919C276.211 145.331 276.588 144.349 277.388 143.493C277.423 143.436 277.458 143.379 277.494 143.324C276.172 141.699 275.344 139.919 274.862 138.009C274.158 135.222 274.221 132.076 274.146 129.613L274.14 129.434L274.151 129.255L274.302 126.696L274.303 126.682L274.304 126.667C274.919 117.398 277.827 109.01 283.369 101.393L283.37 101.392C284.306 100.108 285.379 98.8703 286.391 97.7319C287.443 96.5479 288.41 95.4918 289.334 94.3821C291.21 92.1305 292.356 90.2851 292.719 88.5534L292.719 88.5513C292.875 87.8105 292.801 86.4186 292.534 85.5159L292.534 85.515C291.332 81.4605 288.636 80.3722 283.228 77.3996L283.217 77.3935L283.207 77.3881C281.464 76.4167 279.778 75.3486 278.156 74.1888L278.15 74.1848C273.752 71.0287 269.96 67.1004 266.963 62.5904L266.963 62.5894C263.421 57.35 259.911 49.4849 259.376 42.6185L259.376 42.6156C259.335 42.0847 259.346 41.5182 259.386 40.9554C255.974 39.4004 253.668 36.4289 252.468 33.0961C251.914 32.2493 251.719 31.3565 251.639 30.94C251.533 30.3861 251.483 29.8259 251.461 29.3443C251.419 28.4566 251.45 27.3509 251.619 26.514C252.129 23.9762 253.09 21.8347 254.527 20.0944C255.963 18.3551 257.708 17.2169 259.492 16.4451C262.757 15.0329 266.852 14.6493 269.6 14.197L279.464 12.5163L279.498 12.5106C281.514 12.1856 283.681 11.8852 285.598 11.5909C285.73 11.5707 285.898 11.5276 286.355 11.3967C286.729 11.2894 287.39 11.0949 288.114 10.9858L288.153 10.9795Z" fill="#46FF95" stroke="white" stroke-width="8"/>
<path d="M297.93 128.361C301.744 130.568 310.549 132.997 315.257 125.049" stroke="#343434" stroke-width="4.55975" stroke-linecap="round"/>
<g clip-path="url(#clip0_124_1794)">
<rect x="278" y="97.5898" width="26.8119" height="26.8119" rx="13.406" transform="rotate(-9.30077 278 97.5898)" fill="white"/>
<rect x="282.588" y="100.312" width="20.4282" height="20.4282" rx="10.2141" transform="rotate(-9.30077 282.588 100.312)" fill="#343434"/>
</g>
<g clip-path="url(#clip1_124_1794)">
<rect x="308" y="92.5898" width="26.8119" height="26.8119" rx="13.406" transform="rotate(-9.30077 308 92.5898)" fill="white"/>
<rect x="312.588" y="95.3125" width="20.4282" height="20.4282" rx="10.2141" transform="rotate(-9.30077 312.588 95.3125)" fill="#343434"/>
</g>
<defs>
<clipPath id="clip0_124_1794">
<rect x="278" y="97.5898" width="26.8119" height="26.8119" rx="13.406" transform="rotate(-9.30077 278 97.5898)" fill="white"/>
</clipPath>
<clipPath id="clip1_124_1794">
<rect x="308" y="92.5898" width="26.8119" height="26.8119" rx="13.406" transform="rotate(-9.30077 308 92.5898)" fill="white"/>
</clipPath>
</defs>
</svg>
